<svg width="14" height="15" viewBox="0 0 14 15" fill="none" xmlns="http://www.w3.org/2000/svg">
<path d="M4.61084 4.72661L0.545686 5.34347L0.473685 5.35881C0.36469 5.38909 0.265327 5.44911 0.185742 5.53273C0.106158 5.61635 0.0492035 5.72058 0.0206956 5.83477C-0.00781232 5.94896 -0.00685245 6.06903 0.0234771 6.18271C0.0538067 6.29639 0.112419 6.3996 0.19333 6.48182L3.13834 9.48207L2.44382 13.72L2.43554 13.7934C2.42887 13.9114 2.45227 14.0291 2.50337 14.1345C2.55446 14.2399 2.63139 14.3292 2.7263 14.3933C2.82121 14.4573 2.93068 14.4938 3.04349 14.499C3.15631 14.5042 3.26843 14.478 3.36836 14.4229L7.00406 12.4223L10.6315 14.4229L10.6952 14.4536C10.8004 14.497 10.9147 14.5103 11.0264 14.4921C11.1381 14.474 11.2432 14.4251 11.3308 14.3504C11.4185 14.2757 11.4856 14.178 11.5253 14.0672C11.565 13.9565 11.5758 13.8366 11.5567 13.72L10.8615 9.48207L13.8078 6.48115L13.8575 6.42447C13.9285 6.33295 13.975 6.22337 13.9924 6.1069C14.0097 5.99043 13.9973 5.87122 13.9563 5.76142C13.9153 5.65162 13.8472 5.55515 13.759 5.48185C13.6708 5.40855 13.5656 5.36103 13.4542 5.34413L9.389 4.72661L7.57178 0.872094C7.5192 0.760416 7.4378 0.666374 7.33679 0.600614C7.23578 0.534853 7.1192 0.5 7.00024 0.5C6.88128 0.5 6.7647 0.534853 6.66369 0.600614C6.56268 0.666374 6.48128 0.760416 6.4287 0.872094L4.61084 4.72661Z" fill="#EEAD05"/>
</svg>
