<svg width="18" height="18" viewBox="0 0 18 18" fill="none" xmlns="http://www.w3.org/2000/svg">
<path d="M14.2084 5.33333L9.62502 2.68333C9.43528 2.5728 9.21961 2.51457 9.00002 2.51457C8.78043 2.51457 8.56476 2.5728 8.37502 2.68333L3.79169 5.33333C3.40835 5.55833 3.16669 5.96667 3.16669 6.41667V11.7083C3.16669 12.1583 3.40835 12.5667 3.79169 12.7917L8.37502 15.4417C8.75835 15.6667 9.24169 15.6667 9.62502 15.4417L14.2084 12.7917C14.5917 12.5667 14.8334 12.1583 14.8334 11.7083V6.41667C14.8334 5.96667 14.5917 5.55833 14.2084 5.33333ZM4.83335 11.4667V7.61667L8.16669 9.55V13.3917L4.83335 11.4667ZM9.00002 8.10833L5.66669 6.175L9.00002 4.25L12.3334 6.175L9.00002 8.10833ZM9.83335 13.3917V9.55L13.1667 7.61667V11.4667L9.83335 13.3917ZM4.83335 0.666668H1.91669C1.22502 0.666668 0.666687 1.225 0.666687 1.91667V4.83333H2.33335V2.33333H4.83335V0.666668ZM13.1667 0.666668H16.0834C16.775 0.666668 17.3334 1.225 17.3334 1.91667V4.83333H15.6667V2.33333H13.1667V0.666668ZM4.83335 17.3333H1.91669C1.22502 17.3333 0.666687 16.775 0.666687 16.0833V13.1667H2.33335V15.6667H4.83335V17.3333ZM13.1667 17.3333H16.0834C16.775 17.3333 17.3334 16.775 17.3334 16.0833V13.1667H15.6667V15.6667H13.1667V17.3333Z" fill="black"/>
</svg>
