<svg width="15" height="16" viewBox="0 0 15 16" fill="none" xmlns="http://www.w3.org/2000/svg">
<path d="M13.75 12.375C13.75 12.7065 13.6183 13.0245 13.3839 13.2589C13.1495 13.4933 12.8315 13.625 12.5 13.625H2.5C2.16848 13.625 1.85054 13.4933 1.61612 13.2589C1.3817 13.0245 1.25 12.7065 1.25 12.375V3.625C1.25 3.29348 1.3817 2.97554 1.61612 2.74112C1.85054 2.5067 2.16848 2.375 2.5 2.375H5.625L6.875 4.25H12.5C12.8315 4.25 13.1495 4.3817 13.3839 4.61612C13.6183 4.85054 13.75 5.16848 13.75 5.5V12.375Z" stroke="#4B5563" stroke-width="1.5" stroke-linecap="round" stroke-linejoin="round"/>
<path d="M7.5 7.375V11.125" stroke="#4B5563" stroke-width="1.5" stroke-linecap="round" stroke-linejoin="round"/>
<path d="M5.625 9.25H9.375" stroke="#4B5563" stroke-width="1.5" stroke-linecap="round" stroke-linejoin="round"/>
</svg>
