<svg width="17" height="16" viewBox="0 0 17 16" fill="none" xmlns="http://www.w3.org/2000/svg">
<path d="M11.833 1.99955C12.0081 1.82445 12.216 1.68556 12.4447 1.5908C12.6735 1.49604 12.9187 1.44727 13.1663 1.44727C13.414 1.44727 13.6592 1.49604 13.8879 1.5908C14.1167 1.68556 14.3246 1.82445 14.4997 1.99955C14.6748 2.17465 14.8137 2.38252 14.9084 2.61129C15.0032 2.84006 15.052 3.08526 15.052 3.33288C15.052 3.58051 15.0032 3.8257 14.9084 4.05448C14.8137 4.28325 14.6748 4.49112 14.4997 4.66622L5.49967 13.6662L1.83301 14.6662L2.83301 10.9996L11.833 1.99955Z" stroke="#9CA3AF" stroke-width="1.5" stroke-linecap="round" stroke-linejoin="round"/>
</svg>
