<svg width="20" height="20" viewBox="0 0 20 20" fill="none" xmlns="http://www.w3.org/2000/svg">
<g id="User group">
<path id="Icon" d="M14.1667 16.6667H18.3333V15C18.3333 13.6193 17.2141 12.5 15.8333 12.5C15.037 12.5 14.3276 12.8723 13.8698 13.4524M14.1667 16.6667H5.83334M14.1667 16.6667V15C14.1667 14.4531 14.0613 13.9309 13.8698 13.4524M5.83334 16.6667H1.66667V15C1.66667 13.6193 2.78596 12.5 4.16667 12.5C4.96301 12.5 5.67239 12.8723 6.13021 13.4524M5.83334 16.6667V15C5.83334 14.4531 5.93869 13.9309 6.13021 13.4524M6.13021 13.4524C6.74459 11.9175 8.24569 10.8333 10 10.8333C11.7543 10.8333 13.2554 11.9175 13.8698 13.4524M12.5 5.83334C12.5 7.21406 11.3807 8.33334 10 8.33334C8.61929 8.33334 7.50001 7.21406 7.50001 5.83334C7.50001 4.45263 8.61929 3.33334 10 3.33334C11.3807 3.33334 12.5 4.45263 12.5 5.83334ZM17.5 8.33334C17.5 9.25382 16.7538 10 15.8333 10C14.9129 10 14.1667 9.25382 14.1667 8.33334C14.1667 7.41287 14.9129 6.66668 15.8333 6.66668C16.7538 6.66668 17.5 7.41287 17.5 8.33334ZM5.83334 8.33334C5.83334 9.25382 5.08715 10 4.16667 10C3.2462 10 2.50001 9.25382 2.50001 8.33334C2.50001 7.41287 3.2462 6.66668 4.16667 6.66668C5.08715 6.66668 5.83334 7.41287 5.83334 8.33334Z" stroke="#111827" stroke-width="1.5" stroke-linecap="round" stroke-linejoin="round"/>
</g>
</svg>
