<svg width="20" height="20" viewBox="0 0 20 20" fill="none" xmlns="http://www.w3.org/2000/svg">
<path d="M2.99709 3.49597C2.99709 3.36336 3.04977 3.23619 3.14354 3.14242C3.23731 3.04865 3.36449 2.99597 3.49709 2.99597H3.93509C4.66209 2.99597 5.08009 3.46897 5.32209 3.94097C5.48709 4.26397 5.60609 4.65797 5.70509 4.99997H16.0001C16.1546 5.00002 16.307 5.03587 16.4453 5.10472C16.5837 5.17356 16.7042 5.27353 16.7974 5.39677C16.8906 5.52001 16.954 5.66317 16.9825 5.81502C17.0111 5.96687 17.0041 6.12328 16.9621 6.27197L15.4661 11.547C15.3471 11.9655 15.0949 12.3338 14.7477 12.596C14.4004 12.8582 13.9772 13 13.5421 13H8.46309C8.02437 13.0001 7.59777 12.856 7.24901 12.5898C6.90026 12.3237 6.6487 11.9502 6.53309 11.527L5.89109 9.17197C5.88741 9.16142 5.88408 9.15074 5.88109 9.13997L4.85009 5.64297L4.75009 5.30597C4.65009 4.95997 4.56209 4.65397 4.43009 4.39697C4.27109 4.08697 4.12509 3.99697 3.93409 3.99697H3.49609C3.36349 3.99697 3.23631 3.94429 3.14254 3.85052C3.04877 3.75676 2.99609 3.62958 2.99609 3.49697L2.99709 3.49597ZM6.84509 8.86997L7.49809 11.266C7.55599 11.4775 7.68181 11.6641 7.85618 11.7971C8.03055 11.9301 8.2438 12.0021 8.46309 12.002H13.5431C13.7605 12.0018 13.972 11.9307 14.1454 11.7995C14.3188 11.6683 14.4447 11.4842 14.5041 11.275L16.0001 5.99997H6.00009L6.84509 8.86997ZM10.0001 15.499C10.0001 15.8968 9.84206 16.2783 9.56075 16.5596C9.27945 16.8409 8.89792 16.999 8.50009 16.999C8.10227 16.999 7.72074 16.8409 7.43943 16.5596C7.15813 16.2783 7.00009 15.8968 7.00009 15.499C7.00009 15.1011 7.15813 14.7196 7.43943 14.4383C7.72074 14.157 8.10227 13.999 8.50009 13.999C8.89792 13.999 9.27945 14.157 9.56075 14.4383C9.84206 14.7196 10.0001 15.1011 10.0001 15.499ZM9.00009 15.499C9.00009 15.3664 8.94742 15.2392 8.85365 15.1454C8.75988 15.0517 8.6327 14.999 8.50009 14.999C8.36749 14.999 8.24031 15.0517 8.14654 15.1454C8.05277 15.2392 8.00009 15.3664 8.00009 15.499C8.00009 15.6316 8.05277 15.7588 8.14654 15.8525C8.24031 15.9463 8.36749 15.999 8.50009 15.999C8.6327 15.999 8.75988 15.9463 8.85365 15.8525C8.94742 15.7588 9.00009 15.6316 9.00009 15.499ZM15.0001 15.499C15.0001 15.8968 14.8421 16.2783 14.5608 16.5596C14.2795 16.8409 13.8979 16.999 13.5001 16.999C13.1023 16.999 12.7207 16.8409 12.4394 16.5596C12.1581 16.2783 12.0001 15.8968 12.0001 15.499C12.0001 15.1011 12.1581 14.7196 12.4394 14.4383C12.7207 14.157 13.1023 13.999 13.5001 13.999C13.8979 13.999 14.2795 14.157 14.5608 14.4383C14.8421 14.7196 15.0001 15.1011 15.0001 15.499ZM14.0001 15.499C14.0001 15.3664 13.9474 15.2392 13.8536 15.1454C13.7599 15.0517 13.6327 14.999 13.5001 14.999C13.3675 14.999 13.2403 15.0517 13.1465 15.1454C13.0528 15.2392 13.0001 15.3664 13.0001 15.499C13.0001 15.6316 13.0528 15.7588 13.1465 15.8525C13.2403 15.9463 13.3675 15.999 13.5001 15.999C13.6327 15.999 13.7599 15.9463 13.8536 15.8525C13.9474 15.7588 14.0001 15.6316 14.0001 15.499Z" fill="#595959"/>
</svg>
