<svg width="20" height="20" viewBox="0 0 20 20" fill="none" xmlns="http://www.w3.org/2000/svg">
<path d="M17.5 5.78125H16.0938V5C16.0938 4.54416 15.9127 4.10699 15.5903 3.78466C15.268 3.46233 14.8308 3.28125 14.375 3.28125H3.125C2.66916 3.28125 2.23199 3.46233 1.90966 3.78466C1.58733 4.10699 1.40625 4.54416 1.40625 5V12.5C1.40625 12.9558 1.58733 13.393 1.90966 13.7153C2.23199 14.0377 2.66916 14.2188 3.125 14.2188H12.0312V15C12.0312 15.4558 12.2123 15.893 12.5347 16.2153C12.857 16.5377 13.2942 16.7188 13.75 16.7188H17.5C17.9558 16.7188 18.393 16.5377 18.7153 16.2153C19.0377 15.893 19.2188 15.4558 19.2188 15V7.5C19.2188 7.04416 19.0377 6.60699 18.7153 6.28466C18.393 5.96233 17.9558 5.78125 17.5 5.78125ZM3.125 13.2812C2.9178 13.2812 2.71909 13.1989 2.57257 13.0524C2.42606 12.9059 2.34375 12.7072 2.34375 12.5V5C2.34375 4.7928 2.42606 4.59409 2.57257 4.44757C2.71909 4.30106 2.9178 4.21875 3.125 4.21875H14.375C14.5822 4.21875 14.7809 4.30106 14.9274 4.44757C15.0739 4.59409 15.1562 4.7928 15.1562 5V5.78125H13.75C13.2942 5.78125 12.857 5.96233 12.5347 6.28466C12.2123 6.60699 12.0312 7.04416 12.0312 7.5V13.2812H3.125ZM18.2812 15C18.2812 15.2072 18.1989 15.4059 18.0524 15.5524C17.9059 15.6989 17.7072 15.7812 17.5 15.7812H13.75C13.5428 15.7812 13.3441 15.6989 13.1976 15.5524C13.0511 15.4059 12.9688 15.2072 12.9688 15V7.5C12.9688 7.2928 13.0511 7.09409 13.1976 6.94757C13.3441 6.80106 13.5428 6.71875 13.75 6.71875H17.5C17.7072 6.71875 17.9059 6.80106 18.0524 6.94757C18.1989 7.09409 18.2812 7.2928 18.2812 7.5V15ZM10.4688 16.25C10.4688 16.3743 10.4194 16.4935 10.3315 16.5815C10.2435 16.6694 10.1243 16.7188 10 16.7188H6.875C6.75068 16.7188 6.63145 16.6694 6.54354 16.5815C6.45564 16.4935 6.40625 16.3743 6.40625 16.25C6.40625 16.1257 6.45564 16.0065 6.54354 15.9185C6.63145 15.8306 6.75068 15.7812 6.875 15.7812H10C10.1243 15.7812 10.2435 15.8306 10.3315 15.9185C10.4194 16.0065 10.4688 16.1257 10.4688 16.25ZM16.7188 8.75C16.7188 8.87432 16.6694 8.99355 16.5815 9.08146C16.4935 9.16936 16.3743 9.21875 16.25 9.21875H15C14.8757 9.21875 14.7565 9.16936 14.6685 9.08146C14.5806 8.99355 14.5312 8.87432 14.5312 8.75C14.5312 8.62568 14.5806 8.50645 14.6685 8.41854C14.7565 8.33064 14.8757 8.28125 15 8.28125H16.25C16.3743 8.28125 16.4935 8.33064 16.5815 8.41854C16.6694 8.50645 16.7188 8.62568 16.7188 8.75Z" fill="#595959"/>
</svg>
