<svg width="20" height="20" viewBox="0 0 20 20" fill="none" xmlns="http://www.w3.org/2000/svg">
<path d="M10.1426 18.2853C14.6397 18.2853 18.2853 14.6397 18.2853 10.1426C18.2853 5.64558 14.6397 2 10.1426 2C5.64558 2 2 5.64558 2 10.1426C2 14.6397 5.64558 18.2853 10.1426 18.2853Z" stroke="#595959" stroke-width="1.25271" stroke-linecap="round" stroke-linejoin="round"/>
<path d="M8.2627 8.26356C8.2627 7.89192 8.3729 7.52862 8.57938 7.21961C8.78585 6.9106 9.07932 6.66975 9.42268 6.52753C9.76603 6.38531 10.1439 6.34809 10.5084 6.4206C10.8729 6.4931 11.2077 6.67207 11.4705 6.93486C11.7333 7.19765 11.9122 7.53247 11.9847 7.89697C12.0572 8.26148 12.02 8.6393 11.8778 8.98265C11.7356 9.32601 11.4947 9.61948 11.1857 9.82595C10.8767 10.0324 10.5134 10.1426 10.1418 10.1426V11.3953" stroke="#595959" stroke-width="1.25271" stroke-linecap="round" stroke-linejoin="round"/>
<path d="M10.1427 13.2744C9.95684 13.2744 9.77519 13.3295 9.62068 13.4328C9.46618 13.536 9.34575 13.6827 9.27464 13.8544C9.20353 14.0261 9.18493 14.215 9.22118 14.3972C9.25743 14.5795 9.34691 14.7469 9.47831 14.8783C9.60971 15.0097 9.77711 15.0992 9.95937 15.1354C10.1416 15.1717 10.3305 15.1531 10.5022 15.082C10.6739 15.0109 10.8206 14.8904 10.9239 14.7359C11.0271 14.5814 11.0822 14.3998 11.0822 14.2139C11.079 13.9658 10.9789 13.7287 10.8034 13.5532C10.6279 13.3777 10.3908 13.2777 10.1427 13.2744Z" fill="#595959"/>
</svg>
