<svg width="17" height="18" viewBox="0 0 17 18" fill="none" xmlns="http://www.w3.org/2000/svg">
<path d="M12.7498 4.625H15.3098C15.4646 4.62515 15.6139 4.68277 15.7287 4.78669C15.8435 4.89062 15.9156 5.03344 15.9311 5.1875L16.3123 9H15.0548L14.7423 5.875H12.7498V7.75C12.7498 7.91576 12.684 8.07473 12.5668 8.19194C12.4495 8.30915 12.2906 8.375 12.1248 8.375C11.9591 8.375 11.8001 8.30915 11.6829 8.19194C11.5657 8.07473 11.4998 7.91576 11.4998 7.75V5.875H6.49981V7.75C6.49981 7.91576 6.43396 8.07473 6.31675 8.19194C6.19954 8.30915 6.04057 8.375 5.87481 8.375C5.70905 8.375 5.55008 8.30915 5.43287 8.19194C5.31566 8.07473 5.24981 7.91576 5.24981 7.75V5.875H3.25606L2.25606 15.875H8.99981V17.125H1.56481C1.47752 17.1249 1.39121 17.1065 1.31145 17.0711C1.23168 17.0356 1.16024 16.9838 1.10171 16.919C1.04318 16.8543 0.998873 16.778 0.971634 16.695C0.944396 16.6121 0.934833 16.5244 0.943563 16.4375L2.06856 5.1875C2.08405 5.03344 2.15616 4.89062 2.27094 4.78669C2.38571 4.68277 2.53498 4.62515 2.68981 4.625H5.24981V4.18875C5.24981 2.02125 6.91981 0.25 8.99981 0.25C11.0798 0.25 12.7498 2.02125 12.7498 4.18875V4.62625V4.625ZM11.4998 4.625V4.18875C11.4998 2.69625 10.3723 1.5 8.99981 1.5C7.62731 1.5 6.49981 2.69625 6.49981 4.18875V4.62625H11.4998V4.625ZM15.4336 14.075L13.9998 12.6425V17.125C13.9998 17.2908 13.934 17.4497 13.8168 17.5669C13.6995 17.6842 13.5406 17.75 13.3748 17.75C13.2091 17.75 13.0501 17.6842 12.9329 17.5669C12.8157 17.4497 12.7498 17.2908 12.7498 17.125V12.6425L11.3173 14.075C11.2597 14.1347 11.1907 14.1823 11.1144 14.2151C11.0382 14.2478 10.9562 14.2651 10.8732 14.2658C10.7902 14.2665 10.7079 14.2507 10.6311 14.2193C10.5543 14.1878 10.4845 14.1414 10.4258 14.0827C10.3671 14.0241 10.3207 13.9543 10.2893 13.8775C10.2579 13.8007 10.2421 13.7184 10.2428 13.6354C10.2435 13.5524 10.2607 13.4704 10.2935 13.3941C10.3263 13.3179 10.3739 13.2489 10.4336 13.1912L12.9336 10.6912C13.0508 10.5741 13.2097 10.5083 13.3754 10.5083C13.5412 10.5083 13.7001 10.5741 13.8173 10.6912L16.3173 13.1912C16.377 13.2489 16.4246 13.3179 16.4574 13.3941C16.4901 13.4704 16.5074 13.5524 16.5081 13.6354C16.5088 13.7184 16.493 13.8007 16.4616 13.8775C16.4302 13.9543 16.3837 14.0241 16.3251 14.0827C16.2664 14.1414 16.1966 14.1878 16.1198 14.2193C16.043 14.2507 15.9607 14.2665 15.8777 14.2658C15.7947 14.2651 15.7127 14.2478 15.6364 14.2151C15.5602 14.1823 15.4912 14.1347 15.4336 14.075Z" fill="#595959"/>
</svg>
