<svg width="20" height="20" viewBox="0 0 20 20" fill="none" xmlns="http://www.w3.org/2000/svg">
<path d="M5.85066 17.0976C5.77059 17.155 5.67624 17.1892 5.57798 17.1965C5.47972 17.2037 5.38137 17.1837 5.29374 17.1387C5.20611 17.0937 5.1326 17.0253 5.08129 16.9412C5.02998 16.8571 5.00287 16.7605 5.00293 16.662V5.95281C5.00293 5.33722 5.24747 4.74684 5.68276 4.31155C6.11805 3.87626 6.70843 3.63172 7.32402 3.63172H12.679C13.2945 3.63172 13.8849 3.87626 14.3202 4.31155C14.7555 4.74684 15 5.33722 15 5.95281V16.6627C15.0001 16.7613 14.9729 16.8579 14.9215 16.9421C14.8701 17.0262 14.7965 17.0945 14.7087 17.1395C14.621 17.1844 14.5226 17.2043 14.4243 17.1969C14.326 17.1895 14.2316 17.1552 14.1516 17.0976L10.0022 14.1116L5.85138 17.0969L5.85066 17.0976ZM13.9295 5.95281C13.9295 5.62133 13.7978 5.30344 13.5634 5.06905C13.329 4.83467 13.0111 4.70299 12.6797 4.70299H7.32402C6.99255 4.70299 6.67465 4.83467 6.44026 5.06905C6.20588 5.30344 6.0742 5.62133 6.0742 5.95281V15.6171L9.68867 13.0168C9.7798 12.9512 9.88922 12.9159 10.0015 12.9159C10.1137 12.9159 10.2232 12.9512 10.3143 13.0168L13.9288 15.6171V5.95281H13.9295Z" fill="#595959"/>
</svg>
