<svg width="20" height="20" viewBox="0 0 20 20" fill="none" xmlns="http://www.w3.org/2000/svg">
<path d="M9.99967 2.99936C6.13952 2.99936 2.99902 6.13985 2.99902 10V12.9004C2.99902 13.6172 3.62698 14.2004 4.39915 14.2004H5.09922C5.28489 14.2004 5.46295 14.1266 5.59424 13.9954C5.72553 13.8641 5.79928 13.686 5.79928 13.5003V9.8999C5.79928 9.71423 5.72553 9.53617 5.59424 9.40488C5.46295 9.27359 5.28489 9.19984 5.09922 9.19984H4.46356C4.8528 6.49058 7.18401 4.39949 9.99967 4.39949C12.8153 4.39949 15.1466 6.49058 15.5358 9.19984H14.9001C14.7145 9.19984 14.5364 9.27359 14.4051 9.40488C14.2738 9.53617 14.2001 9.71423 14.2001 9.8999V14.2004C14.2001 14.9726 13.5721 15.6005 12.7999 15.6005H11.3998V14.9005H8.59954V17.0007H12.7999C14.3443 17.0007 15.6002 15.7447 15.6002 14.2004C16.3724 14.2004 17.0003 13.6172 17.0003 12.9004V10C17.0003 6.13985 13.8598 2.99936 9.99967 2.99936Z" fill="#595959"/>
</svg>
