<svg width="164" height="157" viewBox="0 0 164 157" fill="none" xmlns="http://www.w3.org/2000/svg">
<path d="M57.5756 96.3987V52.4319H78.8113V129H58.423V115.092H57.6255C55.8974 119.579 53.0227 123.184 49.0016 125.909C45.0137 128.634 40.1451 129.997 34.3958 129.997C29.278 129.997 24.775 128.834 20.8867 126.508C16.9985 124.181 13.9577 120.875 11.7644 116.588C9.60424 112.301 8.50756 107.166 8.47433 101.184V52.4319H29.71V97.3957C29.7432 101.915 30.9562 105.488 33.349 108.113C35.7417 110.739 38.9487 112.051 42.9698 112.051C45.5288 112.051 47.9215 111.47 50.1481 110.307C52.3747 109.11 54.1693 107.349 55.5318 105.023C56.9276 102.696 57.6088 99.8217 57.5756 96.3987Z" fill="#BCC000"/>
<path d="M77.9474 129V26.9092H99.1831V65.293H99.8311C100.762 63.2325 102.108 61.1389 103.869 59.012C105.663 56.8519 107.99 55.0573 110.848 53.6283C113.739 52.1661 117.328 51.4349 121.615 51.4349C127.198 51.4349 132.349 52.8972 137.068 55.8217C141.787 58.7129 145.559 63.083 148.384 68.9319C151.209 74.7477 152.621 82.0422 152.621 90.8157C152.621 99.3565 151.242 106.568 148.484 112.45C145.759 118.299 142.037 122.736 137.318 125.76C132.632 128.751 127.381 130.246 121.565 130.246C117.444 130.246 113.938 129.565 111.047 128.202C108.189 126.84 105.846 125.128 104.018 123.068C102.191 120.974 100.795 118.864 99.8311 116.737H98.884V129H77.9474ZM98.7344 90.716C98.7344 95.2688 99.3659 99.2401 100.629 102.63C101.892 106.02 103.719 108.662 106.112 110.556C108.505 112.417 111.413 113.347 114.836 113.347C118.292 113.347 121.216 112.4 123.609 110.506C126.002 108.579 127.813 105.92 129.043 102.53C130.305 99.1072 130.937 95.1691 130.937 90.716C130.937 86.296 130.322 82.4078 129.092 79.0513C127.863 75.6948 126.052 73.0694 123.659 71.1751C121.266 69.2809 118.325 68.3338 114.836 68.3338C111.379 68.3338 108.455 69.2476 106.062 71.0754C103.703 72.9032 101.892 75.4954 100.629 78.8519C99.3659 82.2084 98.7344 86.1631 98.7344 90.716Z" fill="#2D8304"/>
<path d="M103.75 10.0923V13.4564C103.75 16.5792 102.51 19.574 100.302 21.7821C98.0936 23.9903 95.0988 25.2308 91.976 25.2308H90.2939V26.9128H98.7042V38.6872C98.7042 39.5794 98.3498 40.4351 97.7189 41.066C97.088 41.6968 96.2323 42.0513 95.3401 42.0513H81.8837C80.9915 42.0513 80.1358 41.6968 79.5049 41.066C78.874 40.4351 78.5196 39.5794 78.5196 38.6872V26.9128H86.9298V21.8667C86.9298 18.7439 88.1704 15.7491 90.3785 13.5409C92.5866 11.3328 95.5814 10.0923 98.7042 10.0923H103.75ZM77.6786 8.41025C79.697 8.40862 81.6862 8.89196 83.4789 9.8196C85.2715 10.7472 86.815 12.092 87.9794 13.7407C86.2031 16.0769 85.2434 18.9319 85.2478 21.8667V23.5487H84.4068C81.061 23.5487 77.8522 22.2196 75.4863 19.8538C73.1205 17.4879 71.7914 14.2791 71.7914 10.9333V8.41025H77.6786Z" fill="#2D8304"/>
</svg>
