<svg width="328" height="50" viewBox="0 0 328 50" fill="none" xmlns="http://www.w3.org/2000/svg">
<path d="M87.8055 23.0415H87V23H78V27H83.6515C82.827 29.3285 80.6115 31 78 31C74.6865 31 72 28.3135 72 25C72 21.6865 74.6865 19 78 19C79.5295 19 80.921 19.577 81.9805 20.5195L84.809 17.691C83.023 16.0265 80.634 15 78 15C72.4775 15 68 19.4775 68 25C68 30.5225 72.4775 35 78 35C83.5225 35 88 30.5225 88 25C88 24.3295 87.931 23.675 87.8055 23.0415Z" fill="#FFC107"/>
<path d="M69.1523 20.3455L72.4378 22.755C73.3268 20.554 75.4798 19 77.9993 19C79.5288 19 80.9203 19.577 81.9798 20.5195L84.8083 17.691C83.0223 16.0265 80.6333 15 77.9993 15C74.1583 15 70.8273 17.1685 69.1523 20.3455Z" fill="#FF3D00"/>
<path d="M78.0002 35C80.5832 35 82.9302 34.0115 84.7047 32.404L81.6097 29.785C80.5719 30.5742 79.3039 31.001 78.0002 31C75.3992 31 73.1907 29.3415 72.3587 27.027L69.0977 29.5395C70.7527 32.778 74.1137 35 78.0002 35Z" fill="#4CAF50"/>
<path d="M87.8055 23.0415H87V23H78V27H83.6515C83.2571 28.1082 82.5467 29.0766 81.608 29.7855L81.6095 29.7845L84.7045 32.4035C84.4855 32.6025 88 30 88 25C88 24.3295 87.931 23.675 87.8055 23.0415Z" fill="#1976D2"/>
<path d="M107.51 30.16C106.529 30.16 105.713 29.9787 105.062 29.616C104.422 29.2533 103.937 28.7467 103.606 28.096C103.275 27.4453 103.094 26.688 103.062 25.824C103.051 25.3867 103.046 24.9173 103.046 24.416C103.046 23.9147 103.051 23.4347 103.062 22.976C103.094 22.112 103.275 21.3547 103.606 20.704C103.937 20.0533 104.422 19.5467 105.062 19.184C105.713 18.8213 106.529 18.64 107.51 18.64C108.246 18.64 108.891 18.7413 109.446 18.944C110.001 19.1467 110.459 19.4187 110.822 19.76C111.195 20.1013 111.478 20.4853 111.67 20.912C111.862 21.328 111.969 21.76 111.99 22.208C112.001 22.304 111.969 22.384 111.894 22.448C111.83 22.512 111.75 22.544 111.654 22.544H110.774C110.678 22.544 110.593 22.5173 110.518 22.464C110.454 22.4107 110.406 22.3147 110.374 22.176C110.193 21.344 109.851 20.7733 109.35 20.464C108.859 20.1547 108.241 20 107.494 20C106.641 20 105.963 20.2453 105.462 20.736C104.961 21.216 104.689 21.9893 104.646 23.056C104.614 23.9307 104.614 24.8267 104.646 25.744C104.689 26.8107 104.961 27.5893 105.462 28.08C105.963 28.56 106.641 28.8 107.494 28.8C108.241 28.8 108.859 28.6453 109.35 28.336C109.851 28.0267 110.193 27.456 110.374 26.624C110.406 26.4853 110.454 26.3893 110.518 26.336C110.593 26.2827 110.678 26.256 110.774 26.256H111.654C111.75 26.256 111.83 26.288 111.894 26.352C111.969 26.416 112.001 26.496 111.99 26.592C111.969 27.04 111.862 27.4773 111.67 27.904C111.478 28.32 111.195 28.6987 110.822 29.04C110.459 29.3813 110.001 29.6533 109.446 29.856C108.891 30.0587 108.246 30.16 107.51 30.16ZM117.334 30.16C116.524 30.16 115.846 30.0053 115.302 29.696C114.758 29.3867 114.342 28.96 114.054 28.416C113.766 27.8613 113.606 27.232 113.574 26.528C113.564 26.3467 113.558 26.1173 113.558 25.84C113.558 25.552 113.564 25.3227 113.574 25.152C113.606 24.4373 113.766 23.808 114.054 23.264C114.353 22.72 114.774 22.2933 115.318 21.984C115.862 21.6747 116.534 21.52 117.334 21.52C118.134 21.52 118.806 21.6747 119.35 21.984C119.894 22.2933 120.31 22.72 120.598 23.264C120.897 23.808 121.062 24.4373 121.094 25.152C121.105 25.3227 121.11 25.552 121.11 25.84C121.11 26.1173 121.105 26.3467 121.094 26.528C121.062 27.232 120.902 27.8613 120.614 28.416C120.326 28.96 119.91 29.3867 119.366 29.696C118.822 30.0053 118.145 30.16 117.334 30.16ZM117.334 28.928C117.996 28.928 118.524 28.72 118.918 28.304C119.313 27.8773 119.526 27.2587 119.558 26.448C119.569 26.288 119.574 26.0853 119.574 25.84C119.574 25.5947 119.569 25.392 119.558 25.232C119.526 24.4213 119.313 23.808 118.918 23.392C118.524 22.9653 117.996 22.752 117.334 22.752C116.673 22.752 116.14 22.9653 115.734 23.392C115.34 23.808 115.132 24.4213 115.11 25.232C115.1 25.392 115.094 25.5947 115.094 25.84C115.094 26.0853 115.1 26.288 115.11 26.448C115.132 27.2587 115.34 27.8773 115.734 28.304C116.14 28.72 116.673 28.928 117.334 28.928ZM123.482 30C123.375 30 123.284 29.968 123.21 29.904C123.146 29.8293 123.114 29.7387 123.114 29.632V22.048C123.114 21.9413 123.146 21.856 123.21 21.792C123.284 21.7173 123.375 21.68 123.482 21.68H124.234C124.34 21.68 124.426 21.7173 124.49 21.792C124.564 21.856 124.602 21.9413 124.602 22.048V22.752C124.879 22.3893 125.226 22.096 125.642 21.872C126.068 21.6373 126.612 21.52 127.274 21.52C127.967 21.52 128.554 21.6747 129.034 21.984C129.524 22.2827 129.892 22.704 130.138 23.248C130.383 23.7813 130.506 24.4053 130.506 25.12V29.632C130.506 29.7387 130.474 29.8293 130.41 29.904C130.346 29.968 130.26 30 130.154 30H129.354C129.247 30 129.156 29.968 129.082 29.904C129.018 29.8293 128.986 29.7387 128.986 29.632V25.2C128.986 24.4533 128.804 23.872 128.442 23.456C128.079 23.0293 127.546 22.816 126.842 22.816C126.18 22.816 125.647 23.0293 125.242 23.456C124.847 23.872 124.65 24.4533 124.65 25.2V29.632C124.65 29.7387 124.612 29.8293 124.538 29.904C124.474 29.968 124.388 30 124.282 30H123.482ZM135.955 30C135.358 30 134.873 29.888 134.499 29.664C134.126 29.4293 133.854 29.104 133.683 28.688C133.513 28.2613 133.427 27.76 133.427 27.184V22.96H132.179C132.073 22.96 131.982 22.928 131.907 22.864C131.843 22.7893 131.811 22.6987 131.811 22.592V22.048C131.811 21.9413 131.843 21.856 131.907 21.792C131.982 21.7173 132.073 21.68 132.179 21.68H133.427V19.008C133.427 18.9013 133.459 18.816 133.523 18.752C133.598 18.6773 133.689 18.64 133.795 18.64H134.547C134.654 18.64 134.739 18.6773 134.803 18.752C134.878 18.816 134.915 18.9013 134.915 19.008V21.68H136.899C137.006 21.68 137.091 21.7173 137.155 21.792C137.23 21.856 137.267 21.9413 137.267 22.048V22.592C137.267 22.6987 137.23 22.7893 137.155 22.864C137.091 22.928 137.006 22.96 136.899 22.96H134.915V27.072C134.915 27.5733 135.001 27.968 135.171 28.256C135.342 28.544 135.646 28.688 136.083 28.688H137.059C137.166 28.688 137.251 28.7253 137.315 28.8C137.39 28.864 137.427 28.9493 137.427 29.056V29.632C137.427 29.7387 137.39 29.8293 137.315 29.904C137.251 29.968 137.166 30 137.059 30H135.955ZM139.325 30C139.219 30 139.128 29.968 139.053 29.904C138.989 29.8293 138.957 29.7387 138.957 29.632V22.048C138.957 21.9413 138.989 21.856 139.053 21.792C139.128 21.7173 139.219 21.68 139.325 21.68H140.093C140.2 21.68 140.285 21.7173 140.349 21.792C140.413 21.856 140.445 21.9413 140.445 22.048V29.632C140.445 29.7387 140.413 29.8293 140.349 29.904C140.285 29.968 140.2 30 140.093 30H139.325ZM139.197 20.128C139.091 20.128 139 20.096 138.925 20.032C138.861 19.9573 138.829 19.8667 138.829 19.76V18.896C138.829 18.7893 138.861 18.704 138.925 18.64C139 18.5653 139.091 18.528 139.197 18.528H140.205C140.312 18.528 140.397 18.5653 140.461 18.64C140.536 18.704 140.573 18.7893 140.573 18.896V19.76C140.573 19.8667 140.536 19.9573 140.461 20.032C140.397 20.096 140.312 20.128 140.205 20.128H139.197ZM143.357 30C143.25 30 143.159 29.968 143.085 29.904C143.021 29.8293 142.989 29.7387 142.989 29.632V22.048C142.989 21.9413 143.021 21.856 143.085 21.792C143.159 21.7173 143.25 21.68 143.357 21.68H144.109C144.215 21.68 144.301 21.7173 144.365 21.792C144.439 21.856 144.477 21.9413 144.477 22.048V22.752C144.754 22.3893 145.101 22.096 145.517 21.872C145.943 21.6373 146.487 21.52 147.149 21.52C147.842 21.52 148.429 21.6747 148.909 21.984C149.399 22.2827 149.767 22.704 150.013 23.248C150.258 23.7813 150.381 24.4053 150.381 25.12V29.632C150.381 29.7387 150.349 29.8293 150.285 29.904C150.221 29.968 150.135 30 150.029 30H149.229C149.122 30 149.031 29.968 148.957 29.904C148.893 29.8293 148.861 29.7387 148.861 29.632V25.2C148.861 24.4533 148.679 23.872 148.317 23.456C147.954 23.0293 147.421 22.816 146.717 22.816C146.055 22.816 145.522 23.0293 145.117 23.456C144.722 23.872 144.525 24.4533 144.525 25.2V29.632C144.525 29.7387 144.487 29.8293 144.413 29.904C144.349 29.968 144.263 30 144.157 30H143.357ZM155.796 30.16C155.113 30.16 154.532 30.0107 154.052 29.712C153.582 29.4027 153.225 28.976 152.98 28.432C152.734 27.888 152.612 27.264 152.612 26.56V22.048C152.612 21.9413 152.644 21.856 152.708 21.792C152.782 21.7173 152.873 21.68 152.98 21.68H153.78C153.886 21.68 153.972 21.7173 154.036 21.792C154.11 21.856 154.148 21.9413 154.148 22.048V26.48C154.148 28.0693 154.841 28.864 156.228 28.864C156.889 28.864 157.417 28.656 157.812 28.24C158.217 27.8133 158.42 27.2267 158.42 26.48V22.048C158.42 21.9413 158.452 21.856 158.516 21.792C158.59 21.7173 158.681 21.68 158.788 21.68H159.572C159.689 21.68 159.78 21.7173 159.844 21.792C159.908 21.856 159.94 21.9413 159.94 22.048V29.632C159.94 29.7387 159.908 29.8293 159.844 29.904C159.78 29.968 159.689 30 159.572 30H158.836C158.729 30 158.638 29.968 158.564 29.904C158.5 29.8293 158.468 29.7387 158.468 29.632V28.928C158.18 29.3013 157.828 29.6 157.412 29.824C157.006 30.048 156.468 30.16 155.796 30.16ZM165.629 30.16C164.53 30.16 163.655 29.824 163.005 29.152C162.354 28.4693 161.997 27.5413 161.933 26.368C161.922 26.2293 161.917 26.0533 161.917 25.84C161.917 25.616 161.922 25.4347 161.933 25.296C161.975 24.5387 162.151 23.8773 162.461 23.312C162.77 22.736 163.191 22.2933 163.725 21.984C164.269 21.6747 164.903 21.52 165.629 21.52C166.439 21.52 167.117 21.6907 167.661 22.032C168.215 22.3733 168.637 22.8587 168.925 23.488C169.213 24.1173 169.357 24.8533 169.357 25.696V25.968C169.357 26.0853 169.319 26.176 169.245 26.24C169.181 26.304 169.095 26.336 168.989 26.336H163.453C163.453 26.3467 163.453 26.368 163.453 26.4C163.453 26.432 163.453 26.4587 163.453 26.48C163.474 26.9173 163.57 27.328 163.741 27.712C163.911 28.0853 164.157 28.3893 164.477 28.624C164.797 28.8587 165.181 28.976 165.629 28.976C166.013 28.976 166.333 28.9173 166.589 28.8C166.845 28.6827 167.053 28.5547 167.213 28.416C167.373 28.2667 167.479 28.1547 167.533 28.08C167.629 27.9413 167.703 27.8613 167.757 27.84C167.81 27.808 167.895 27.792 168.013 27.792H168.781C168.887 27.792 168.973 27.824 169.037 27.888C169.111 27.9413 169.143 28.0213 169.133 28.128C169.122 28.288 169.037 28.4853 168.877 28.72C168.717 28.944 168.487 29.168 168.189 29.392C167.89 29.616 167.527 29.8027 167.101 29.952C166.674 30.0907 166.183 30.16 165.629 30.16ZM163.453 25.232H167.837V25.184C167.837 24.704 167.746 24.2773 167.565 23.904C167.394 23.5307 167.143 23.2373 166.813 23.024C166.482 22.8 166.087 22.688 165.629 22.688C165.17 22.688 164.775 22.8 164.445 23.024C164.125 23.2373 163.879 23.5307 163.709 23.904C163.538 24.2773 163.453 24.704 163.453 25.184V25.232ZM177.025 30C176.886 30 176.779 29.968 176.705 29.904C176.63 29.8293 176.566 29.728 176.513 29.6L174.241 22.176C174.219 22.1227 174.209 22.0693 174.209 22.016C174.209 21.92 174.241 21.84 174.305 21.776C174.379 21.712 174.459 21.68 174.545 21.68H175.249C175.366 21.68 175.457 21.712 175.521 21.776C175.585 21.84 175.627 21.8987 175.649 21.952L177.425 27.984L179.329 22.016C179.35 21.9413 179.393 21.8667 179.457 21.792C179.531 21.7173 179.638 21.68 179.777 21.68H180.321C180.459 21.68 180.566 21.7173 180.641 21.792C180.715 21.8667 180.758 21.9413 180.769 22.016L182.673 27.984L184.449 21.952C184.459 21.8987 184.497 21.84 184.561 21.776C184.625 21.712 184.715 21.68 184.833 21.68H185.537C185.633 21.68 185.713 21.712 185.777 21.776C185.841 21.84 185.873 21.92 185.873 22.016C185.873 22.0693 185.862 22.1227 185.841 22.176L183.569 29.6C183.537 29.728 183.478 29.8293 183.393 29.904C183.318 29.968 183.206 30 183.057 30H182.433C182.294 30 182.177 29.968 182.081 29.904C181.995 29.8293 181.937 29.728 181.905 29.6L180.049 23.872L178.193 29.6C178.15 29.728 178.086 29.8293 178.001 29.904C177.915 29.968 177.798 30 177.649 30H177.025ZM188.013 30C187.906 30 187.816 29.968 187.741 29.904C187.677 29.8293 187.645 29.7387 187.645 29.632V22.048C187.645 21.9413 187.677 21.856 187.741 21.792C187.816 21.7173 187.906 21.68 188.013 21.68H188.781C188.888 21.68 188.973 21.7173 189.037 21.792C189.101 21.856 189.133 21.9413 189.133 22.048V29.632C189.133 29.7387 189.101 29.8293 189.037 29.904C188.973 29.968 188.888 30 188.781 30H188.013ZM187.885 20.128C187.778 20.128 187.688 20.096 187.613 20.032C187.549 19.9573 187.517 19.8667 187.517 19.76V18.896C187.517 18.7893 187.549 18.704 187.613 18.64C187.688 18.5653 187.778 18.528 187.885 18.528H188.893C189 18.528 189.085 18.5653 189.149 18.64C189.224 18.704 189.261 18.7893 189.261 18.896V19.76C189.261 19.8667 189.224 19.9573 189.149 20.032C189.085 20.096 189 20.128 188.893 20.128H187.885ZM194.768 30C194.171 30 193.685 29.888 193.312 29.664C192.939 29.4293 192.667 29.104 192.496 28.688C192.325 28.2613 192.24 27.76 192.24 27.184V22.96H190.992C190.885 22.96 190.795 22.928 190.72 22.864C190.656 22.7893 190.624 22.6987 190.624 22.592V22.048C190.624 21.9413 190.656 21.856 190.72 21.792C190.795 21.7173 190.885 21.68 190.992 21.68H192.24V19.008C192.24 18.9013 192.272 18.816 192.336 18.752C192.411 18.6773 192.501 18.64 192.608 18.64H193.36C193.467 18.64 193.552 18.6773 193.616 18.752C193.691 18.816 193.728 18.9013 193.728 19.008V21.68H195.712C195.819 21.68 195.904 21.7173 195.968 21.792C196.043 21.856 196.08 21.9413 196.08 22.048V22.592C196.08 22.6987 196.043 22.7893 195.968 22.864C195.904 22.928 195.819 22.96 195.712 22.96H193.728V27.072C193.728 27.5733 193.813 27.968 193.984 28.256C194.155 28.544 194.459 28.688 194.896 28.688H195.872C195.979 28.688 196.064 28.7253 196.128 28.8C196.203 28.864 196.24 28.9493 196.24 29.056V29.632C196.24 29.7387 196.203 29.8293 196.128 29.904C196.064 29.968 195.979 30 195.872 30H194.768ZM198.154 30C198.047 30 197.957 29.968 197.882 29.904C197.818 29.8293 197.786 29.7387 197.786 29.632V19.008C197.786 18.9013 197.818 18.816 197.882 18.752C197.957 18.6773 198.047 18.64 198.154 18.64H198.954C199.071 18.64 199.162 18.6773 199.226 18.752C199.29 18.816 199.322 18.9013 199.322 19.008V22.736C199.61 22.3733 199.962 22.08 200.378 21.856C200.794 21.632 201.322 21.52 201.962 21.52C202.655 21.52 203.242 21.6747 203.722 21.984C204.213 22.2827 204.581 22.704 204.826 23.248C205.082 23.7813 205.21 24.4053 205.21 25.12V29.632C205.21 29.7387 205.178 29.8293 205.114 29.904C205.05 29.968 204.959 30 204.842 30H204.042C203.935 30 203.845 29.968 203.77 29.904C203.706 29.8293 203.674 29.7387 203.674 29.632V25.2C203.674 24.4533 203.493 23.872 203.13 23.456C202.767 23.0293 202.234 22.816 201.53 22.816C200.869 22.816 200.335 23.0293 199.93 23.456C199.525 23.872 199.322 24.4533 199.322 25.2V29.632C199.322 29.7387 199.29 29.8293 199.226 29.904C199.162 29.968 199.071 30 198.954 30H198.154ZM215.714 30.16C214.775 30.16 213.975 29.984 213.314 29.632C212.663 29.28 212.162 28.784 211.81 28.144C211.468 27.504 211.276 26.752 211.234 25.888C211.223 25.4187 211.218 24.9227 211.218 24.4C211.218 23.8667 211.223 23.36 211.234 22.88C211.276 22.016 211.468 21.2693 211.81 20.64C212.162 20.0107 212.668 19.52 213.33 19.168C213.991 18.816 214.786 18.64 215.714 18.64C216.471 18.64 217.127 18.7467 217.682 18.96C218.236 19.1733 218.69 19.4453 219.042 19.776C219.404 20.096 219.671 20.432 219.842 20.784C220.023 21.136 220.119 21.4453 220.13 21.712C220.14 21.808 220.114 21.888 220.05 21.952C219.986 22.0053 219.9 22.032 219.794 22.032H218.85C218.743 22.032 218.663 22.0107 218.61 21.968C218.567 21.9253 218.524 21.8507 218.482 21.744C218.386 21.4667 218.226 21.1947 218.002 20.928C217.788 20.6613 217.495 20.4427 217.122 20.272C216.759 20.0907 216.29 20 215.714 20C214.871 20 214.188 20.2293 213.666 20.688C213.154 21.1467 212.876 21.904 212.834 22.96C212.802 23.9093 212.802 24.8587 212.834 25.808C212.876 26.8747 213.159 27.6427 213.682 28.112C214.204 28.5707 214.887 28.8 215.73 28.8C216.295 28.8 216.796 28.6987 217.234 28.496C217.682 28.2827 218.034 27.9573 218.29 27.52C218.546 27.0827 218.674 26.528 218.674 25.856V25.184H216.274C216.167 25.184 216.076 25.152 216.002 25.088C215.938 25.0133 215.906 24.9173 215.906 24.8V24.288C215.906 24.1707 215.938 24.08 216.002 24.016C216.076 23.9413 216.167 23.904 216.274 23.904H219.89C220.007 23.904 220.098 23.9413 220.162 24.016C220.226 24.08 220.258 24.1707 220.258 24.288V25.824C220.258 26.6987 220.076 27.4613 219.714 28.112C219.362 28.7627 218.844 29.2693 218.162 29.632C217.479 29.984 216.663 30.16 215.714 30.16ZM225.74 30.16C224.93 30.16 224.252 30.0053 223.708 29.696C223.164 29.3867 222.748 28.96 222.46 28.416C222.172 27.8613 222.012 27.232 221.98 26.528C221.97 26.3467 221.964 26.1173 221.964 25.84C221.964 25.552 221.97 25.3227 221.98 25.152C222.012 24.4373 222.172 23.808 222.46 23.264C222.759 22.72 223.18 22.2933 223.724 21.984C224.268 21.6747 224.94 21.52 225.74 21.52C226.54 21.52 227.212 21.6747 227.756 21.984C228.3 22.2933 228.716 22.72 229.004 23.264C229.303 23.808 229.468 24.4373 229.5 25.152C229.511 25.3227 229.516 25.552 229.516 25.84C229.516 26.1173 229.511 26.3467 229.5 26.528C229.468 27.232 229.308 27.8613 229.02 28.416C228.732 28.96 228.316 29.3867 227.772 29.696C227.228 30.0053 226.551 30.16 225.74 30.16ZM225.74 28.928C226.402 28.928 226.93 28.72 227.324 28.304C227.719 27.8773 227.932 27.2587 227.964 26.448C227.975 26.288 227.98 26.0853 227.98 25.84C227.98 25.5947 227.975 25.392 227.964 25.232C227.932 24.4213 227.719 23.808 227.324 23.392C226.93 22.9653 226.402 22.752 225.74 22.752C225.079 22.752 224.546 22.9653 224.14 23.392C223.746 23.808 223.538 24.4213 223.516 25.232C223.506 25.392 223.5 25.5947 223.5 25.84C223.5 26.0853 223.506 26.288 223.516 26.448C223.538 27.2587 223.746 27.8773 224.14 28.304C224.546 28.72 225.079 28.928 225.74 28.928ZM234.928 30.16C234.117 30.16 233.44 30.0053 232.896 29.696C232.352 29.3867 231.936 28.96 231.648 28.416C231.36 27.8613 231.2 27.232 231.168 26.528C231.157 26.3467 231.152 26.1173 231.152 25.84C231.152 25.552 231.157 25.3227 231.168 25.152C231.2 24.4373 231.36 23.808 231.648 23.264C231.947 22.72 232.368 22.2933 232.912 21.984C233.456 21.6747 234.128 21.52 234.928 21.52C235.728 21.52 236.4 21.6747 236.944 21.984C237.488 22.2933 237.904 22.72 238.192 23.264C238.491 23.808 238.656 24.4373 238.688 25.152C238.699 25.3227 238.704 25.552 238.704 25.84C238.704 26.1173 238.699 26.3467 238.688 26.528C238.656 27.232 238.496 27.8613 238.208 28.416C237.92 28.96 237.504 29.3867 236.96 29.696C236.416 30.0053 235.739 30.16 234.928 30.16ZM234.928 28.928C235.589 28.928 236.117 28.72 236.512 28.304C236.907 27.8773 237.12 27.2587 237.152 26.448C237.163 26.288 237.168 26.0853 237.168 25.84C237.168 25.5947 237.163 25.392 237.152 25.232C237.12 24.4213 236.907 23.808 236.512 23.392C236.117 22.9653 235.589 22.752 234.928 22.752C234.267 22.752 233.733 22.9653 233.328 23.392C232.933 23.808 232.725 24.4213 232.704 25.232C232.693 25.392 232.688 25.5947 232.688 25.84C232.688 26.0853 232.693 26.288 232.704 26.448C232.725 27.2587 232.933 27.8773 233.328 28.304C233.733 28.72 234.267 28.928 234.928 28.928ZM244.115 33.52C243.39 33.52 242.793 33.424 242.323 33.232C241.865 33.04 241.502 32.8053 241.235 32.528C240.979 32.2613 240.793 31.9893 240.675 31.712C240.569 31.4453 240.51 31.232 240.499 31.072C240.489 30.9653 240.521 30.8747 240.595 30.8C240.681 30.7253 240.771 30.688 240.867 30.688H241.635C241.731 30.688 241.811 30.7093 241.875 30.752C241.939 30.7947 241.993 30.8853 242.035 31.024C242.099 31.184 242.195 31.36 242.323 31.552C242.451 31.7547 242.649 31.9253 242.915 32.064C243.182 32.2133 243.555 32.288 244.035 32.288C244.537 32.288 244.958 32.2187 245.299 32.08C245.641 31.952 245.897 31.7173 246.067 31.376C246.249 31.0453 246.339 30.5867 246.339 30V28.912C246.083 29.2427 245.747 29.52 245.331 29.744C244.915 29.9573 244.393 30.064 243.763 30.064C243.166 30.064 242.654 29.9627 242.227 29.76C241.801 29.5467 241.449 29.264 241.171 28.912C240.905 28.5493 240.702 28.1387 240.563 27.68C240.435 27.2213 240.361 26.7413 240.339 26.24C240.329 25.9413 240.329 25.648 240.339 25.36C240.361 24.8587 240.435 24.3787 240.563 23.92C240.702 23.4613 240.905 23.0507 241.171 22.688C241.449 22.3253 241.801 22.0427 242.227 21.84C242.654 21.6267 243.166 21.52 243.763 21.52C244.403 21.52 244.931 21.6427 245.347 21.888C245.774 22.1227 246.121 22.4107 246.387 22.752V22.064C246.387 21.9573 246.419 21.8667 246.483 21.792C246.558 21.7173 246.649 21.68 246.755 21.68H247.491C247.598 21.68 247.689 21.7173 247.763 21.792C247.838 21.8667 247.875 21.9573 247.875 22.064V29.824C247.875 30.5387 247.753 31.1733 247.507 31.728C247.273 32.2827 246.878 32.72 246.323 33.04C245.779 33.36 245.043 33.52 244.115 33.52ZM244.083 28.784C244.617 28.784 245.043 28.6613 245.363 28.416C245.694 28.1707 245.934 27.8613 246.083 27.488C246.243 27.1147 246.329 26.736 246.339 26.352C246.35 26.2027 246.355 26.0213 246.355 25.808C246.355 25.584 246.35 25.3973 246.339 25.248C246.329 24.864 246.243 24.4853 246.083 24.112C245.934 23.7387 245.694 23.4293 245.363 23.184C245.043 22.9387 244.617 22.816 244.083 22.816C243.55 22.816 243.123 22.9387 242.803 23.184C242.483 23.4187 242.254 23.7333 242.115 24.128C241.977 24.512 241.897 24.928 241.875 25.376C241.865 25.6533 241.865 25.936 241.875 26.224C241.897 26.672 241.977 27.0933 242.115 27.488C242.254 27.872 242.483 28.1867 242.803 28.432C243.123 28.6667 243.55 28.784 244.083 28.784ZM250.638 30C250.532 30 250.441 29.968 250.366 29.904C250.302 29.8293 250.27 29.7387 250.27 29.632V19.008C250.27 18.9013 250.302 18.816 250.366 18.752C250.441 18.6773 250.532 18.64 250.638 18.64H251.39C251.508 18.64 251.598 18.6773 251.662 18.752C251.726 18.816 251.758 18.9013 251.758 19.008V29.632C251.758 29.7387 251.726 29.8293 251.662 29.904C251.598 29.968 251.508 30 251.39 30H250.638ZM257.457 30.16C256.358 30.16 255.484 29.824 254.833 29.152C254.182 28.4693 253.825 27.5413 253.761 26.368C253.75 26.2293 253.745 26.0533 253.745 25.84C253.745 25.616 253.75 25.4347 253.761 25.296C253.804 24.5387 253.98 23.8773 254.289 23.312C254.598 22.736 255.02 22.2933 255.553 21.984C256.097 21.6747 256.732 21.52 257.457 21.52C258.268 21.52 258.945 21.6907 259.489 22.032C260.044 22.3733 260.465 22.8587 260.753 23.488C261.041 24.1173 261.185 24.8533 261.185 25.696V25.968C261.185 26.0853 261.148 26.176 261.073 26.24C261.009 26.304 260.924 26.336 260.817 26.336H255.281C255.281 26.3467 255.281 26.368 255.281 26.4C255.281 26.432 255.281 26.4587 255.281 26.48C255.302 26.9173 255.398 27.328 255.569 27.712C255.74 28.0853 255.985 28.3893 256.305 28.624C256.625 28.8587 257.009 28.976 257.457 28.976C257.841 28.976 258.161 28.9173 258.417 28.8C258.673 28.6827 258.881 28.5547 259.041 28.416C259.201 28.2667 259.308 28.1547 259.361 28.08C259.457 27.9413 259.532 27.8613 259.585 27.84C259.638 27.808 259.724 27.792 259.841 27.792H260.609C260.716 27.792 260.801 27.824 260.865 27.888C260.94 27.9413 260.972 28.0213 260.961 28.128C260.95 28.288 260.865 28.4853 260.705 28.72C260.545 28.944 260.316 29.168 260.017 29.392C259.718 29.616 259.356 29.8027 258.929 29.952C258.502 30.0907 258.012 30.16 257.457 30.16ZM255.281 25.232H259.665V25.184C259.665 24.704 259.574 24.2773 259.393 23.904C259.222 23.5307 258.972 23.2373 258.641 23.024C258.31 22.8 257.916 22.688 257.457 22.688C256.998 22.688 256.604 22.8 256.273 23.024C255.953 23.2373 255.708 23.5307 255.537 23.904C255.366 24.2773 255.281 24.704 255.281 25.184V25.232Z" fill="black"/>
<rect x="0.5" y="0.5" width="327" height="49" rx="24.5" stroke="#DFDFDF"/>
</svg>
