<svg width="328" height="50" viewBox="0 0 328 50" fill="none" xmlns="http://www.w3.org/2000/svg">
<path d="M83.2467 29.11L84.9267 27.43C85.153 27.2065 85.4393 27.0535 85.7508 26.9896C86.0624 26.9257 86.3858 26.9536 86.6817 27.07L88.7292 27.8875C89.0283 28.0089 89.2848 28.2161 89.4663 28.483C89.6479 28.75 89.7463 29.0647 89.7492 29.3875V33.1375C89.7475 33.3571 89.7013 33.574 89.6135 33.7753C89.5257 33.9766 89.3981 34.158 89.2384 34.3086C89.0786 34.4593 88.89 34.5761 88.6839 34.6519C88.4778 34.7278 88.2586 34.7611 88.0392 34.75C73.6917 33.8575 70.7967 21.7075 70.2492 17.0575C70.2238 16.8291 70.2471 16.598 70.3174 16.3793C70.3877 16.1605 70.5036 15.9592 70.6573 15.7884C70.811 15.6177 70.9992 15.4814 71.2094 15.3886C71.4195 15.2958 71.647 15.2486 71.8767 15.25H75.4992C75.8225 15.2509 76.1381 15.3486 76.4054 15.5303C76.6727 15.7121 76.8795 15.9697 76.9992 16.27L77.8167 18.3175C77.9369 18.6123 77.9676 18.936 77.9049 19.2481C77.8422 19.5602 77.6889 19.8469 77.4642 20.0725L75.7842 21.7525C75.7842 21.7525 76.7517 28.3 83.2467 29.11Z" fill="black"/>
<path d="M109.908 30.16C108.927 30.16 108.111 29.9787 107.46 29.616C106.82 29.2533 106.335 28.7467 106.004 28.096C105.674 27.4453 105.492 26.688 105.46 25.824C105.45 25.3867 105.444 24.9173 105.444 24.416C105.444 23.9147 105.45 23.4347 105.46 22.976C105.492 22.112 105.674 21.3547 106.004 20.704C106.335 20.0533 106.82 19.5467 107.46 19.184C108.111 18.8213 108.927 18.64 109.908 18.64C110.644 18.64 111.29 18.7413 111.844 18.944C112.399 19.1467 112.858 19.4187 113.22 19.76C113.594 20.1013 113.876 20.4853 114.068 20.912C114.26 21.328 114.367 21.76 114.388 22.208C114.399 22.304 114.367 22.384 114.292 22.448C114.228 22.512 114.148 22.544 114.052 22.544H113.172C113.076 22.544 112.991 22.5173 112.916 22.464C112.852 22.4107 112.804 22.3147 112.772 22.176C112.591 21.344 112.25 20.7733 111.748 20.464C111.258 20.1547 110.639 20 109.892 20C109.039 20 108.362 20.2453 107.86 20.736C107.359 21.216 107.087 21.9893 107.044 23.056C107.012 23.9307 107.012 24.8267 107.044 25.744C107.087 26.8107 107.359 27.5893 107.86 28.08C108.362 28.56 109.039 28.8 109.892 28.8C110.639 28.8 111.258 28.6453 111.748 28.336C112.25 28.0267 112.591 27.456 112.772 26.624C112.804 26.4853 112.852 26.3893 112.916 26.336C112.991 26.2827 113.076 26.256 113.172 26.256H114.052C114.148 26.256 114.228 26.288 114.292 26.352C114.367 26.416 114.399 26.496 114.388 26.592C114.367 27.04 114.26 27.4773 114.068 27.904C113.876 28.32 113.594 28.6987 113.22 29.04C112.858 29.3813 112.399 29.6533 111.844 29.856C111.29 30.0587 110.644 30.16 109.908 30.16ZM119.733 30.16C118.922 30.16 118.245 30.0053 117.701 29.696C117.157 29.3867 116.741 28.96 116.453 28.416C116.165 27.8613 116.005 27.232 115.973 26.528C115.962 26.3467 115.957 26.1173 115.957 25.84C115.957 25.552 115.962 25.3227 115.973 25.152C116.005 24.4373 116.165 23.808 116.453 23.264C116.751 22.72 117.173 22.2933 117.717 21.984C118.261 21.6747 118.933 21.52 119.733 21.52C120.533 21.52 121.205 21.6747 121.749 21.984C122.293 22.2933 122.709 22.72 122.997 23.264C123.295 23.808 123.461 24.4373 123.493 25.152C123.503 25.3227 123.509 25.552 123.509 25.84C123.509 26.1173 123.503 26.3467 123.493 26.528C123.461 27.232 123.301 27.8613 123.013 28.416C122.725 28.96 122.309 29.3867 121.765 29.696C121.221 30.0053 120.543 30.16 119.733 30.16ZM119.733 28.928C120.394 28.928 120.922 28.72 121.317 28.304C121.711 27.8773 121.925 27.2587 121.957 26.448C121.967 26.288 121.973 26.0853 121.973 25.84C121.973 25.5947 121.967 25.392 121.957 25.232C121.925 24.4213 121.711 23.808 121.317 23.392C120.922 22.9653 120.394 22.752 119.733 22.752C119.071 22.752 118.538 22.9653 118.133 23.392C117.738 23.808 117.53 24.4213 117.509 25.232C117.498 25.392 117.493 25.5947 117.493 25.84C117.493 26.0853 117.498 26.288 117.509 26.448C117.53 27.2587 117.738 27.8773 118.133 28.304C118.538 28.72 119.071 28.928 119.733 28.928ZM125.88 30C125.773 30 125.683 29.968 125.608 29.904C125.544 29.8293 125.512 29.7387 125.512 29.632V22.048C125.512 21.9413 125.544 21.856 125.608 21.792C125.683 21.7173 125.773 21.68 125.88 21.68H126.632C126.739 21.68 126.824 21.7173 126.888 21.792C126.963 21.856 127 21.9413 127 22.048V22.752C127.277 22.3893 127.624 22.096 128.04 21.872C128.467 21.6373 129.011 21.52 129.672 21.52C130.365 21.52 130.952 21.6747 131.432 21.984C131.923 22.2827 132.291 22.704 132.536 23.248C132.781 23.7813 132.904 24.4053 132.904 25.12V29.632C132.904 29.7387 132.872 29.8293 132.808 29.904C132.744 29.968 132.659 30 132.552 30H131.752C131.645 30 131.555 29.968 131.48 29.904C131.416 29.8293 131.384 29.7387 131.384 29.632V25.2C131.384 24.4533 131.203 23.872 130.84 23.456C130.477 23.0293 129.944 22.816 129.24 22.816C128.579 22.816 128.045 23.0293 127.64 23.456C127.245 23.872 127.048 24.4533 127.048 25.2V29.632C127.048 29.7387 127.011 29.8293 126.936 29.904C126.872 29.968 126.787 30 126.68 30H125.88ZM138.354 30C137.757 30 137.271 29.888 136.898 29.664C136.525 29.4293 136.253 29.104 136.082 28.688C135.911 28.2613 135.826 27.76 135.826 27.184V22.96H134.578C134.471 22.96 134.381 22.928 134.306 22.864C134.242 22.7893 134.21 22.6987 134.21 22.592V22.048C134.21 21.9413 134.242 21.856 134.306 21.792C134.381 21.7173 134.471 21.68 134.578 21.68H135.826V19.008C135.826 18.9013 135.858 18.816 135.922 18.752C135.997 18.6773 136.087 18.64 136.194 18.64H136.946C137.053 18.64 137.138 18.6773 137.202 18.752C137.277 18.816 137.314 18.9013 137.314 19.008V21.68H139.298C139.405 21.68 139.49 21.7173 139.554 21.792C139.629 21.856 139.666 21.9413 139.666 22.048V22.592C139.666 22.6987 139.629 22.7893 139.554 22.864C139.49 22.928 139.405 22.96 139.298 22.96H137.314V27.072C137.314 27.5733 137.399 27.968 137.57 28.256C137.741 28.544 138.045 28.688 138.482 28.688H139.458C139.565 28.688 139.65 28.7253 139.714 28.8C139.789 28.864 139.826 28.9493 139.826 29.056V29.632C139.826 29.7387 139.789 29.8293 139.714 29.904C139.65 29.968 139.565 30 139.458 30H138.354ZM141.724 30C141.617 30 141.527 29.968 141.452 29.904C141.388 29.8293 141.356 29.7387 141.356 29.632V22.048C141.356 21.9413 141.388 21.856 141.452 21.792C141.527 21.7173 141.617 21.68 141.724 21.68H142.492C142.599 21.68 142.684 21.7173 142.748 21.792C142.812 21.856 142.844 21.9413 142.844 22.048V29.632C142.844 29.7387 142.812 29.8293 142.748 29.904C142.684 29.968 142.599 30 142.492 30H141.724ZM141.596 20.128C141.489 20.128 141.399 20.096 141.324 20.032C141.26 19.9573 141.228 19.8667 141.228 19.76V18.896C141.228 18.7893 141.26 18.704 141.324 18.64C141.399 18.5653 141.489 18.528 141.596 18.528H142.604C142.711 18.528 142.796 18.5653 142.86 18.64C142.935 18.704 142.972 18.7893 142.972 18.896V19.76C142.972 19.8667 142.935 19.9573 142.86 20.032C142.796 20.096 142.711 20.128 142.604 20.128H141.596ZM145.755 30C145.648 30 145.558 29.968 145.483 29.904C145.419 29.8293 145.387 29.7387 145.387 29.632V22.048C145.387 21.9413 145.419 21.856 145.483 21.792C145.558 21.7173 145.648 21.68 145.755 21.68H146.507C146.614 21.68 146.699 21.7173 146.763 21.792C146.838 21.856 146.875 21.9413 146.875 22.048V22.752C147.152 22.3893 147.499 22.096 147.915 21.872C148.342 21.6373 148.886 21.52 149.547 21.52C150.24 21.52 150.827 21.6747 151.307 21.984C151.798 22.2827 152.166 22.704 152.411 23.248C152.656 23.7813 152.779 24.4053 152.779 25.12V29.632C152.779 29.7387 152.747 29.8293 152.683 29.904C152.619 29.968 152.534 30 152.427 30H151.627C151.52 30 151.43 29.968 151.355 29.904C151.291 29.8293 151.259 29.7387 151.259 29.632V25.2C151.259 24.4533 151.078 23.872 150.715 23.456C150.352 23.0293 149.819 22.816 149.115 22.816C148.454 22.816 147.92 23.0293 147.515 23.456C147.12 23.872 146.923 24.4533 146.923 25.2V29.632C146.923 29.7387 146.886 29.8293 146.811 29.904C146.747 29.968 146.662 30 146.555 30H145.755ZM158.194 30.16C157.512 30.16 156.93 30.0107 156.45 29.712C155.981 29.4027 155.624 28.976 155.378 28.432C155.133 27.888 155.01 27.264 155.01 26.56V22.048C155.01 21.9413 155.042 21.856 155.106 21.792C155.181 21.7173 155.272 21.68 155.378 21.68H156.178C156.285 21.68 156.37 21.7173 156.434 21.792C156.509 21.856 156.546 21.9413 156.546 22.048V26.48C156.546 28.0693 157.24 28.864 158.626 28.864C159.288 28.864 159.816 28.656 160.21 28.24C160.616 27.8133 160.818 27.2267 160.818 26.48V22.048C160.818 21.9413 160.85 21.856 160.914 21.792C160.989 21.7173 161.08 21.68 161.186 21.68H161.97C162.088 21.68 162.178 21.7173 162.242 21.792C162.306 21.856 162.338 21.9413 162.338 22.048V29.632C162.338 29.7387 162.306 29.8293 162.242 29.904C162.178 29.968 162.088 30 161.97 30H161.234C161.128 30 161.037 29.968 160.962 29.904C160.898 29.8293 160.866 29.7387 160.866 29.632V28.928C160.578 29.3013 160.226 29.6 159.81 29.824C159.405 30.048 158.866 30.16 158.194 30.16ZM168.027 30.16C166.929 30.16 166.054 29.824 165.403 29.152C164.753 28.4693 164.395 27.5413 164.331 26.368C164.321 26.2293 164.315 26.0533 164.315 25.84C164.315 25.616 164.321 25.4347 164.331 25.296C164.374 24.5387 164.55 23.8773 164.859 23.312C165.169 22.736 165.59 22.2933 166.123 21.984C166.667 21.6747 167.302 21.52 168.027 21.52C168.838 21.52 169.515 21.6907 170.059 22.032C170.614 22.3733 171.035 22.8587 171.323 23.488C171.611 24.1173 171.755 24.8533 171.755 25.696V25.968C171.755 26.0853 171.718 26.176 171.643 26.24C171.579 26.304 171.494 26.336 171.387 26.336H165.851C165.851 26.3467 165.851 26.368 165.851 26.4C165.851 26.432 165.851 26.4587 165.851 26.48C165.873 26.9173 165.969 27.328 166.139 27.712C166.31 28.0853 166.555 28.3893 166.875 28.624C167.195 28.8587 167.579 28.976 168.027 28.976C168.411 28.976 168.731 28.9173 168.987 28.8C169.243 28.6827 169.451 28.5547 169.611 28.416C169.771 28.2667 169.878 28.1547 169.931 28.08C170.027 27.9413 170.102 27.8613 170.155 27.84C170.209 27.808 170.294 27.792 170.411 27.792H171.179C171.286 27.792 171.371 27.824 171.435 27.888C171.51 27.9413 171.542 28.0213 171.531 28.128C171.521 28.288 171.435 28.4853 171.275 28.72C171.115 28.944 170.886 29.168 170.587 29.392C170.289 29.616 169.926 29.8027 169.499 29.952C169.073 30.0907 168.582 30.16 168.027 30.16ZM165.851 25.232H170.235V25.184C170.235 24.704 170.145 24.2773 169.963 23.904C169.793 23.5307 169.542 23.2373 169.211 23.024C168.881 22.8 168.486 22.688 168.027 22.688C167.569 22.688 167.174 22.8 166.843 23.024C166.523 23.2373 166.278 23.5307 166.107 23.904C165.937 24.2773 165.851 24.704 165.851 25.184V25.232ZM179.423 30C179.285 30 179.178 29.968 179.103 29.904C179.029 29.8293 178.965 29.728 178.911 29.6L176.639 22.176C176.618 22.1227 176.607 22.0693 176.607 22.016C176.607 21.92 176.639 21.84 176.703 21.776C176.778 21.712 176.858 21.68 176.943 21.68H177.647C177.765 21.68 177.855 21.712 177.919 21.776C177.983 21.84 178.026 21.8987 178.047 21.952L179.823 27.984L181.727 22.016C181.749 21.9413 181.791 21.8667 181.855 21.792C181.93 21.7173 182.037 21.68 182.175 21.68H182.719C182.858 21.68 182.965 21.7173 183.039 21.792C183.114 21.8667 183.157 21.9413 183.167 22.016L185.071 27.984L186.847 21.952C186.858 21.8987 186.895 21.84 186.959 21.776C187.023 21.712 187.114 21.68 187.231 21.68H187.935C188.031 21.68 188.111 21.712 188.175 21.776C188.239 21.84 188.271 21.92 188.271 22.016C188.271 22.0693 188.261 22.1227 188.239 22.176L185.967 29.6C185.935 29.728 185.877 29.8293 185.791 29.904C185.717 29.968 185.605 30 185.455 30H184.831C184.693 30 184.575 29.968 184.479 29.904C184.394 29.8293 184.335 29.728 184.303 29.6L182.447 23.872L180.591 29.6C180.549 29.728 180.485 29.8293 180.399 29.904C180.314 29.968 180.197 30 180.047 30H179.423ZM190.411 30C190.305 30 190.214 29.968 190.139 29.904C190.075 29.8293 190.043 29.7387 190.043 29.632V22.048C190.043 21.9413 190.075 21.856 190.139 21.792C190.214 21.7173 190.305 21.68 190.411 21.68H191.179C191.286 21.68 191.371 21.7173 191.435 21.792C191.499 21.856 191.531 21.9413 191.531 22.048V29.632C191.531 29.7387 191.499 29.8293 191.435 29.904C191.371 29.968 191.286 30 191.179 30H190.411ZM190.283 20.128C190.177 20.128 190.086 20.096 190.011 20.032C189.947 19.9573 189.915 19.8667 189.915 19.76V18.896C189.915 18.7893 189.947 18.704 190.011 18.64C190.086 18.5653 190.177 18.528 190.283 18.528H191.291C191.398 18.528 191.483 18.5653 191.547 18.64C191.622 18.704 191.659 18.7893 191.659 18.896V19.76C191.659 19.8667 191.622 19.9573 191.547 20.032C191.483 20.096 191.398 20.128 191.291 20.128H190.283ZM197.166 30C196.569 30 196.084 29.888 195.71 29.664C195.337 29.4293 195.065 29.104 194.894 28.688C194.724 28.2613 194.638 27.76 194.638 27.184V22.96H193.39C193.284 22.96 193.193 22.928 193.118 22.864C193.054 22.7893 193.022 22.6987 193.022 22.592V22.048C193.022 21.9413 193.054 21.856 193.118 21.792C193.193 21.7173 193.284 21.68 193.39 21.68H194.638V19.008C194.638 18.9013 194.67 18.816 194.734 18.752C194.809 18.6773 194.9 18.64 195.006 18.64H195.758C195.865 18.64 195.95 18.6773 196.014 18.752C196.089 18.816 196.126 18.9013 196.126 19.008V21.68H198.11C198.217 21.68 198.302 21.7173 198.366 21.792C198.441 21.856 198.478 21.9413 198.478 22.048V22.592C198.478 22.6987 198.441 22.7893 198.366 22.864C198.302 22.928 198.217 22.96 198.11 22.96H196.126V27.072C196.126 27.5733 196.212 27.968 196.382 28.256C196.553 28.544 196.857 28.688 197.294 28.688H198.27C198.377 28.688 198.462 28.7253 198.526 28.8C198.601 28.864 198.638 28.9493 198.638 29.056V29.632C198.638 29.7387 198.601 29.8293 198.526 29.904C198.462 29.968 198.377 30 198.27 30H197.166ZM200.552 30C200.446 30 200.355 29.968 200.28 29.904C200.216 29.8293 200.184 29.7387 200.184 29.632V19.008C200.184 18.9013 200.216 18.816 200.28 18.752C200.355 18.6773 200.446 18.64 200.552 18.64H201.352C201.47 18.64 201.56 18.6773 201.624 18.752C201.688 18.816 201.72 18.9013 201.72 19.008V22.736C202.008 22.3733 202.36 22.08 202.776 21.856C203.192 21.632 203.72 21.52 204.36 21.52C205.054 21.52 205.64 21.6747 206.12 21.984C206.611 22.2827 206.979 22.704 207.224 23.248C207.48 23.7813 207.608 24.4053 207.608 25.12V29.632C207.608 29.7387 207.576 29.8293 207.512 29.904C207.448 29.968 207.358 30 207.24 30H206.44C206.334 30 206.243 29.968 206.168 29.904C206.104 29.8293 206.072 29.7387 206.072 29.632V25.2C206.072 24.4533 205.891 23.872 205.528 23.456C205.166 23.0293 204.632 22.816 203.928 22.816C203.267 22.816 202.734 23.0293 202.328 23.456C201.923 23.872 201.72 24.4533 201.72 25.2V29.632C201.72 29.7387 201.688 29.8293 201.624 29.904C201.56 29.968 201.47 30 201.352 30H200.552ZM214.416 30C214.299 30 214.208 29.968 214.144 29.904C214.08 29.8293 214.048 29.7387 214.048 29.632V19.184C214.048 19.0667 214.08 18.976 214.144 18.912C214.208 18.8373 214.299 18.8 214.416 18.8H218.48C219.27 18.8 219.952 18.928 220.528 19.184C221.115 19.44 221.568 19.824 221.888 20.336C222.208 20.8373 222.368 21.4667 222.368 22.224C222.368 22.9813 222.208 23.6107 221.888 24.112C221.568 24.6133 221.115 24.992 220.528 25.248C219.952 25.504 219.27 25.632 218.48 25.632H215.648V29.632C215.648 29.7387 215.611 29.8293 215.536 29.904C215.472 29.968 215.382 30 215.264 30H214.416ZM215.632 24.288H218.4C219.19 24.288 219.782 24.112 220.176 23.76C220.571 23.408 220.768 22.896 220.768 22.224C220.768 21.5627 220.576 21.0507 220.192 20.688C219.808 20.3253 219.211 20.144 218.4 20.144H215.632V24.288ZM224.49 30C224.383 30 224.293 29.968 224.218 29.904C224.154 29.8293 224.122 29.7387 224.122 29.632V19.008C224.122 18.9013 224.154 18.816 224.218 18.752C224.293 18.6773 224.383 18.64 224.49 18.64H225.29C225.407 18.64 225.498 18.6773 225.562 18.752C225.626 18.816 225.658 18.9013 225.658 19.008V22.736C225.946 22.3733 226.298 22.08 226.714 21.856C227.13 21.632 227.658 21.52 228.298 21.52C228.991 21.52 229.578 21.6747 230.058 21.984C230.549 22.2827 230.917 22.704 231.162 23.248C231.418 23.7813 231.546 24.4053 231.546 25.12V29.632C231.546 29.7387 231.514 29.8293 231.45 29.904C231.386 29.968 231.295 30 231.178 30H230.378C230.271 30 230.181 29.968 230.106 29.904C230.042 29.8293 230.01 29.7387 230.01 29.632V25.2C230.01 24.4533 229.829 23.872 229.466 23.456C229.103 23.0293 228.57 22.816 227.866 22.816C227.205 22.816 226.671 23.0293 226.266 23.456C225.861 23.872 225.658 24.4533 225.658 25.2V29.632C225.658 29.7387 225.626 29.8293 225.562 29.904C225.498 29.968 225.407 30 225.29 30H224.49ZM237.264 30.16C236.453 30.16 235.776 30.0053 235.232 29.696C234.688 29.3867 234.272 28.96 233.984 28.416C233.696 27.8613 233.536 27.232 233.504 26.528C233.493 26.3467 233.488 26.1173 233.488 25.84C233.488 25.552 233.493 25.3227 233.504 25.152C233.536 24.4373 233.696 23.808 233.984 23.264C234.283 22.72 234.704 22.2933 235.248 21.984C235.792 21.6747 236.464 21.52 237.264 21.52C238.064 21.52 238.736 21.6747 239.28 21.984C239.824 22.2933 240.24 22.72 240.528 23.264C240.827 23.808 240.992 24.4373 241.024 25.152C241.035 25.3227 241.04 25.552 241.04 25.84C241.04 26.1173 241.035 26.3467 241.024 26.528C240.992 27.232 240.832 27.8613 240.544 28.416C240.256 28.96 239.84 29.3867 239.296 29.696C238.752 30.0053 238.075 30.16 237.264 30.16ZM237.264 28.928C237.925 28.928 238.453 28.72 238.848 28.304C239.243 27.8773 239.456 27.2587 239.488 26.448C239.499 26.288 239.504 26.0853 239.504 25.84C239.504 25.5947 239.499 25.392 239.488 25.232C239.456 24.4213 239.243 23.808 238.848 23.392C238.453 22.9653 237.925 22.752 237.264 22.752C236.603 22.752 236.069 22.9653 235.664 23.392C235.269 23.808 235.061 24.4213 235.04 25.232C235.029 25.392 235.024 25.5947 235.024 25.84C235.024 26.0853 235.029 26.288 235.04 26.448C235.061 27.2587 235.269 27.8773 235.664 28.304C236.069 28.72 236.603 28.928 237.264 28.928ZM243.411 30C243.305 30 243.214 29.968 243.139 29.904C243.075 29.8293 243.043 29.7387 243.043 29.632V22.048C243.043 21.9413 243.075 21.856 243.139 21.792C243.214 21.7173 243.305 21.68 243.411 21.68H244.163C244.27 21.68 244.355 21.7173 244.419 21.792C244.494 21.856 244.531 21.9413 244.531 22.048V22.752C244.809 22.3893 245.155 22.096 245.571 21.872C245.998 21.6373 246.542 21.52 247.203 21.52C247.897 21.52 248.483 21.6747 248.963 21.984C249.454 22.2827 249.822 22.704 250.067 23.248C250.313 23.7813 250.435 24.4053 250.435 25.12V29.632C250.435 29.7387 250.403 29.8293 250.339 29.904C250.275 29.968 250.19 30 250.083 30H249.283C249.177 30 249.086 29.968 249.011 29.904C248.947 29.8293 248.915 29.7387 248.915 29.632V25.2C248.915 24.4533 248.734 23.872 248.371 23.456C248.009 23.0293 247.475 22.816 246.771 22.816C246.11 22.816 245.577 23.0293 245.171 23.456C244.777 23.872 244.579 24.4533 244.579 25.2V29.632C244.579 29.7387 244.542 29.8293 244.467 29.904C244.403 29.968 244.318 30 244.211 30H243.411ZM256.059 30.16C254.96 30.16 254.085 29.824 253.435 29.152C252.784 28.4693 252.427 27.5413 252.363 26.368C252.352 26.2293 252.347 26.0533 252.347 25.84C252.347 25.616 252.352 25.4347 252.363 25.296C252.405 24.5387 252.581 23.8773 252.891 23.312C253.2 22.736 253.621 22.2933 254.155 21.984C254.699 21.6747 255.333 21.52 256.059 21.52C256.869 21.52 257.547 21.6907 258.091 22.032C258.645 22.3733 259.067 22.8587 259.355 23.488C259.643 24.1173 259.786 24.8533 259.786 25.696V25.968C259.786 26.0853 259.749 26.176 259.675 26.24C259.611 26.304 259.525 26.336 259.419 26.336H253.883C253.883 26.3467 253.883 26.368 253.883 26.4C253.883 26.432 253.883 26.4587 253.883 26.48C253.904 26.9173 254 27.328 254.171 27.712C254.341 28.0853 254.587 28.3893 254.907 28.624C255.227 28.8587 255.611 28.976 256.059 28.976C256.443 28.976 256.763 28.9173 257.019 28.8C257.275 28.6827 257.483 28.5547 257.643 28.416C257.803 28.2667 257.909 28.1547 257.963 28.08C258.059 27.9413 258.133 27.8613 258.187 27.84C258.24 27.808 258.325 27.792 258.443 27.792H259.211C259.317 27.792 259.403 27.824 259.467 27.888C259.541 27.9413 259.573 28.0213 259.562 28.128C259.552 28.288 259.467 28.4853 259.307 28.72C259.147 28.944 258.917 29.168 258.619 29.392C258.32 29.616 257.957 29.8027 257.531 29.952C257.104 30.0907 256.613 30.16 256.059 30.16ZM253.883 25.232H258.267V25.184C258.267 24.704 258.176 24.2773 257.995 23.904C257.824 23.5307 257.573 23.2373 257.243 23.024C256.912 22.8 256.517 22.688 256.059 22.688C255.6 22.688 255.205 22.8 254.875 23.024C254.555 23.2373 254.309 23.5307 254.139 23.904C253.968 24.2773 253.883 24.704 253.883 25.184V25.232Z" fill="black"/>
<rect x="0.5" y="0.5" width="327" height="49" rx="24.5" stroke="#DFDFDF"/>
</svg>
