<svg width="167" height="165" viewBox="0 0 167 165" fill="none" xmlns="http://www.w3.org/2000/svg">
<g clip-path="url(#clip0_76_11596)">
<rect width="167" height="165" rx="10" fill="#FFFFF9"/>
<path d="M39.7201 33C39.6135 33 39.5228 32.9627 39.4481 32.888C39.3735 32.8133 39.3361 32.7227 39.3361 32.616V22.2C39.3361 22.0827 39.3735 21.9867 39.4481 21.912C39.5228 21.8373 39.6135 21.8 39.7201 21.8H44.0081C44.8401 21.8 45.5655 21.9333 46.1841 22.2C46.8028 22.456 47.2828 22.8507 47.6241 23.384C47.9655 23.9067 48.1361 24.5627 48.1361 25.352C48.1361 26.152 47.9655 26.8133 47.6241 27.336C47.2828 27.848 46.8028 28.232 46.1841 28.488C45.5655 28.744 44.8401 28.872 44.0081 28.872H41.6241V32.616C41.6241 32.7227 41.5868 32.8133 41.5121 32.888C41.4481 32.9627 41.3575 33 41.2401 33H39.7201ZM41.5921 27.096H43.9281C44.5468 27.096 45.0215 26.952 45.3521 26.664C45.6828 26.3653 45.8481 25.928 45.8481 25.352C45.8481 24.8187 45.6935 24.392 45.3841 24.072C45.0748 23.7413 44.5895 23.576 43.9281 23.576H41.5921V27.096ZM49.755 33C49.6483 33 49.5577 32.9627 49.483 32.888C49.4083 32.8133 49.371 32.7227 49.371 32.616V25.08C49.371 24.9627 49.4083 24.8667 49.483 24.792C49.5577 24.7173 49.6483 24.68 49.755 24.68H51.051C51.1577 24.68 51.2483 24.7173 51.323 24.792C51.4083 24.8667 51.451 24.9627 51.451 25.08V25.736C51.6963 25.3947 52.011 25.1333 52.395 24.952C52.7897 24.7707 53.243 24.68 53.755 24.68H54.411C54.5283 24.68 54.619 24.7173 54.683 24.792C54.7577 24.8667 54.795 24.9573 54.795 25.064V26.216C54.795 26.3227 54.7577 26.4133 54.683 26.488C54.619 26.5627 54.5283 26.6 54.411 26.6H53.163C52.651 26.6 52.251 26.744 51.963 27.032C51.6857 27.32 51.547 27.7147 51.547 28.216V32.616C51.547 32.7227 51.5097 32.8133 51.435 32.888C51.3603 32.9627 51.2643 33 51.147 33H49.755ZM59.2935 33.16C58.4402 33.16 57.7202 33.0107 57.1335 32.712C56.5575 32.4133 56.1148 31.992 55.8055 31.448C55.5068 30.904 55.3362 30.2693 55.2935 29.544C55.2828 29.352 55.2775 29.1173 55.2775 28.84C55.2775 28.5627 55.2828 28.328 55.2935 28.136C55.3362 27.4 55.5122 26.7653 55.8215 26.232C56.1415 25.688 56.5895 25.2667 57.1655 24.968C57.7522 24.6693 58.4615 24.52 59.2935 24.52C60.1255 24.52 60.8295 24.6693 61.4055 24.968C61.9922 25.2667 62.4402 25.688 62.7495 26.232C63.0695 26.7653 63.2508 27.4 63.2935 28.136C63.3042 28.328 63.3095 28.5627 63.3095 28.84C63.3095 29.1173 63.3042 29.352 63.2935 29.544C63.2508 30.2693 63.0748 30.904 62.7655 31.448C62.4668 31.992 62.0242 32.4133 61.4375 32.712C60.8615 33.0107 60.1468 33.16 59.2935 33.16ZM59.2935 31.576C59.8588 31.576 60.2962 31.4 60.6055 31.048C60.9148 30.6853 61.0855 30.1573 61.1175 29.464C61.1282 29.304 61.1335 29.096 61.1335 28.84C61.1335 28.584 61.1282 28.376 61.1175 28.216C61.0855 27.5333 60.9148 27.0107 60.6055 26.648C60.2962 26.2853 59.8588 26.104 59.2935 26.104C58.7282 26.104 58.2908 26.2853 57.9815 26.648C57.6722 27.0107 57.5015 27.5333 57.4695 28.216C57.4588 28.376 57.4535 28.584 57.4535 28.84C57.4535 29.096 57.4588 29.304 57.4695 29.464C57.5015 30.1573 57.6722 30.6853 57.9815 31.048C58.2908 31.4 58.7282 31.576 59.2935 31.576ZM65.9485 33C65.8418 33 65.7512 32.9627 65.6765 32.888C65.6018 32.8133 65.5645 32.7227 65.5645 32.616V26.376H64.2685C64.1618 26.376 64.0712 26.3387 63.9965 26.264C63.9218 26.1893 63.8845 26.0987 63.8845 25.992V25.064C63.8845 24.9573 63.9218 24.8667 63.9965 24.792C64.0712 24.7173 64.1618 24.68 64.2685 24.68H65.5645V24.024C65.5645 23.384 65.6818 22.856 65.9165 22.44C66.1512 22.0133 66.4978 21.6933 66.9565 21.48C67.4152 21.2667 67.9965 21.16 68.7005 21.16H69.7885C69.9058 21.16 69.9965 21.1973 70.0605 21.272C70.1352 21.3467 70.1725 21.4373 70.1725 21.544V22.472C70.1725 22.5787 70.1352 22.6693 70.0605 22.744C69.9965 22.8187 69.9058 22.856 69.7885 22.856H68.7645C68.3378 22.856 68.0445 22.9627 67.8845 23.176C67.7245 23.3893 67.6445 23.6987 67.6445 24.104V24.68H69.6285C69.7458 24.68 69.8365 24.7173 69.9005 24.792C69.9752 24.8667 70.0125 24.9573 70.0125 25.064V25.992C70.0125 26.0987 69.9752 26.1893 69.9005 26.264C69.8365 26.3387 69.7458 26.376 69.6285 26.376H67.6445V32.616C67.6445 32.7227 67.6072 32.8133 67.5325 32.888C67.4578 32.9627 67.3672 33 67.2605 33H65.9485ZM74.4325 33.16C73.2485 33.16 72.3098 32.8187 71.6165 32.136C70.9232 31.4533 70.5498 30.4827 70.4965 29.224C70.4858 29.1173 70.4805 28.984 70.4805 28.824C70.4805 28.6533 70.4858 28.52 70.4965 28.424C70.5392 27.624 70.7205 26.9307 71.0405 26.344C71.3712 25.7573 71.8245 25.3093 72.4005 25C72.9765 24.68 73.6538 24.52 74.4325 24.52C75.2965 24.52 76.0218 24.7013 76.6085 25.064C77.1952 25.416 77.6378 25.912 77.9365 26.552C78.2352 27.1813 78.3845 27.912 78.3845 28.744V29.08C78.3845 29.1867 78.3472 29.2773 78.2725 29.352C78.1978 29.4267 78.1018 29.464 77.9845 29.464H72.6725C72.6725 29.464 72.6725 29.48 72.6725 29.512C72.6725 29.544 72.6725 29.5707 72.6725 29.592C72.6832 29.9653 72.7525 30.312 72.8805 30.632C73.0192 30.9413 73.2165 31.192 73.4725 31.384C73.7392 31.576 74.0538 31.672 74.4165 31.672C74.7152 31.672 74.9658 31.6293 75.1685 31.544C75.3712 31.448 75.5365 31.3413 75.6645 31.224C75.7925 31.1067 75.8832 31.0107 75.9365 30.936C76.0325 30.808 76.1072 30.7333 76.1605 30.712C76.2245 30.68 76.3152 30.664 76.4325 30.664H77.8085C77.9152 30.664 78.0005 30.696 78.0645 30.76C78.1392 30.824 78.1712 30.904 78.1605 31C78.1498 31.1707 78.0592 31.3787 77.8885 31.624C77.7285 31.8693 77.4938 32.1093 77.1845 32.344C76.8752 32.5787 76.4858 32.776 76.0165 32.936C75.5578 33.0853 75.0298 33.16 74.4325 33.16ZM72.6725 28.12H76.2085V28.072C76.2085 27.656 76.1392 27.2933 76.0005 26.984C75.8618 26.6747 75.6592 26.4293 75.3925 26.248C75.1258 26.0667 74.8058 25.976 74.4325 25.976C74.0592 25.976 73.7392 26.0667 73.4725 26.248C73.2058 26.4293 73.0032 26.6747 72.8645 26.984C72.7365 27.2933 72.6725 27.656 72.6725 28.072V28.12ZM82.9149 33.16C82.2749 33.16 81.7255 33.0853 81.2669 32.936C80.8189 32.7867 80.4509 32.6 80.1629 32.376C79.8749 32.152 79.6615 31.928 79.5229 31.704C79.3842 31.48 79.3095 31.2933 79.2989 31.144C79.2882 31.0267 79.3202 30.936 79.3949 30.872C79.4802 30.7973 79.5709 30.76 79.6669 30.76H80.9309C80.9735 30.76 81.0109 30.7653 81.0429 30.776C81.0749 30.7867 81.1175 30.8187 81.1709 30.872C81.3095 30.9893 81.4535 31.112 81.6029 31.24C81.7629 31.368 81.9495 31.48 82.1629 31.576C82.3762 31.6613 82.6429 31.704 82.9629 31.704C83.3789 31.704 83.7255 31.624 84.0029 31.464C84.2909 31.2933 84.4349 31.0533 84.4349 30.744C84.4349 30.52 84.3709 30.3387 84.2429 30.2C84.1255 30.0613 83.9015 29.9387 83.5709 29.832C83.2402 29.7147 82.7709 29.592 82.1629 29.464C81.5655 29.3253 81.0695 29.1493 80.6749 28.936C80.2802 28.7227 79.9869 28.456 79.7949 28.136C79.6029 27.816 79.5069 27.4427 79.5069 27.016C79.5069 26.6 79.6295 26.2053 79.8749 25.832C80.1309 25.448 80.5042 25.1333 80.9949 24.888C81.4962 24.6427 82.1149 24.52 82.8509 24.52C83.4269 24.52 83.9282 24.5947 84.3549 24.744C84.7815 24.8827 85.1335 25.0587 85.4109 25.272C85.6989 25.4853 85.9175 25.704 86.0669 25.928C86.2162 26.1413 86.2962 26.328 86.3069 26.488C86.3175 26.6053 86.2855 26.7013 86.2109 26.776C86.1362 26.84 86.0509 26.872 85.9549 26.872H84.7709C84.7175 26.872 84.6695 26.8613 84.6269 26.84C84.5842 26.8187 84.5415 26.792 84.4989 26.76C84.3815 26.6533 84.2535 26.5413 84.1149 26.424C83.9762 26.3067 83.8055 26.2053 83.6029 26.12C83.4109 26.024 83.1549 25.976 82.8349 25.976C82.4295 25.976 82.1202 26.0667 81.9069 26.248C81.6935 26.4187 81.5869 26.6373 81.5869 26.904C81.5869 27.0853 81.6349 27.2453 81.7309 27.384C81.8375 27.512 82.0455 27.6347 82.3549 27.752C82.6642 27.8693 83.1335 27.992 83.7629 28.12C84.4775 28.248 85.0429 28.44 85.4589 28.696C85.8855 28.9413 86.1842 29.2293 86.3549 29.56C86.5362 29.88 86.6269 30.2373 86.6269 30.632C86.6269 31.112 86.4829 31.544 86.1949 31.928C85.9175 32.312 85.5015 32.616 84.9469 32.84C84.4029 33.0533 83.7255 33.16 82.9149 33.16ZM91.1105 33.16C90.4705 33.16 89.9212 33.0853 89.4625 32.936C89.0145 32.7867 88.6465 32.6 88.3585 32.376C88.0705 32.152 87.8572 31.928 87.7185 31.704C87.5798 31.48 87.5052 31.2933 87.4945 31.144C87.4838 31.0267 87.5158 30.936 87.5905 30.872C87.6758 30.7973 87.7665 30.76 87.8625 30.76H89.1265C89.1692 30.76 89.2065 30.7653 89.2385 30.776C89.2705 30.7867 89.3132 30.8187 89.3665 30.872C89.5052 30.9893 89.6492 31.112 89.7985 31.24C89.9585 31.368 90.1452 31.48 90.3585 31.576C90.5718 31.6613 90.8385 31.704 91.1585 31.704C91.5745 31.704 91.9212 31.624 92.1985 31.464C92.4865 31.2933 92.6305 31.0533 92.6305 30.744C92.6305 30.52 92.5665 30.3387 92.4385 30.2C92.3212 30.0613 92.0972 29.9387 91.7665 29.832C91.4358 29.7147 90.9665 29.592 90.3585 29.464C89.7612 29.3253 89.2652 29.1493 88.8705 28.936C88.4758 28.7227 88.1825 28.456 87.9905 28.136C87.7985 27.816 87.7025 27.4427 87.7025 27.016C87.7025 26.6 87.8252 26.2053 88.0705 25.832C88.3265 25.448 88.6998 25.1333 89.1905 24.888C89.6918 24.6427 90.3105 24.52 91.0465 24.52C91.6225 24.52 92.1238 24.5947 92.5505 24.744C92.9772 24.8827 93.3292 25.0587 93.6065 25.272C93.8945 25.4853 94.1132 25.704 94.2625 25.928C94.4118 26.1413 94.4918 26.328 94.5025 26.488C94.5132 26.6053 94.4812 26.7013 94.4065 26.776C94.3318 26.84 94.2465 26.872 94.1505 26.872H92.9665C92.9132 26.872 92.8652 26.8613 92.8225 26.84C92.7798 26.8187 92.7372 26.792 92.6945 26.76C92.5772 26.6533 92.4492 26.5413 92.3105 26.424C92.1718 26.3067 92.0012 26.2053 91.7985 26.12C91.6065 26.024 91.3505 25.976 91.0305 25.976C90.6252 25.976 90.3158 26.0667 90.1025 26.248C89.8892 26.4187 89.7825 26.6373 89.7825 26.904C89.7825 27.0853 89.8305 27.2453 89.9265 27.384C90.0332 27.512 90.2412 27.6347 90.5505 27.752C90.8598 27.8693 91.3292 27.992 91.9585 28.12C92.6732 28.248 93.2385 28.44 93.6545 28.696C94.0812 28.9413 94.3798 29.2293 94.5505 29.56C94.7318 29.88 94.8225 30.2373 94.8225 30.632C94.8225 31.112 94.6785 31.544 94.3905 31.928C94.1132 32.312 93.6972 32.616 93.1425 32.84C92.5985 33.0533 91.9212 33.16 91.1105 33.16ZM96.5381 33C96.4315 33 96.3408 32.9627 96.2661 32.888C96.1915 32.8133 96.1541 32.7227 96.1541 32.616V25.064C96.1541 24.9573 96.1915 24.8667 96.2661 24.792C96.3408 24.7173 96.4315 24.68 96.5381 24.68H97.8661C97.9835 24.68 98.0741 24.7173 98.1381 24.792C98.2128 24.8667 98.2501 24.9573 98.2501 25.064V32.616C98.2501 32.7227 98.2128 32.8133 98.1381 32.888C98.0741 32.9627 97.9835 33 97.8661 33H96.5381ZM96.4741 23.304C96.3568 23.304 96.2608 23.272 96.1861 23.208C96.1221 23.1333 96.0901 23.0373 96.0901 22.92V21.768C96.0901 21.6613 96.1221 21.5707 96.1861 21.496C96.2608 21.4213 96.3568 21.384 96.4741 21.384H97.9301C98.0475 21.384 98.1435 21.4213 98.2181 21.496C98.2928 21.5707 98.3301 21.6613 98.3301 21.768V22.92C98.3301 23.0373 98.2928 23.1333 98.2181 23.208C98.1435 23.272 98.0475 23.304 97.9301 23.304H96.4741ZM103.78 33.16C102.926 33.16 102.206 33.0107 101.62 32.712C101.044 32.4133 100.601 31.992 100.292 31.448C99.9931 30.904 99.8224 30.2693 99.7797 29.544C99.7691 29.352 99.7637 29.1173 99.7637 28.84C99.7637 28.5627 99.7691 28.328 99.7797 28.136C99.8224 27.4 99.9984 26.7653 100.308 26.232C100.628 25.688 101.076 25.2667 101.652 24.968C102.238 24.6693 102.948 24.52 103.78 24.52C104.612 24.52 105.316 24.6693 105.892 24.968C106.478 25.2667 106.926 25.688 107.236 26.232C107.556 26.7653 107.737 27.4 107.78 28.136C107.79 28.328 107.796 28.5627 107.796 28.84C107.796 29.1173 107.79 29.352 107.78 29.544C107.737 30.2693 107.561 30.904 107.252 31.448C106.953 31.992 106.51 32.4133 105.924 32.712C105.348 33.0107 104.633 33.16 103.78 33.16ZM103.78 31.576C104.345 31.576 104.782 31.4 105.092 31.048C105.401 30.6853 105.572 30.1573 105.604 29.464C105.614 29.304 105.62 29.096 105.62 28.84C105.62 28.584 105.614 28.376 105.604 28.216C105.572 27.5333 105.401 27.0107 105.092 26.648C104.782 26.2853 104.345 26.104 103.78 26.104C103.214 26.104 102.777 26.2853 102.468 26.648C102.158 27.0107 101.988 27.5333 101.956 28.216C101.945 28.376 101.94 28.584 101.94 28.84C101.94 29.096 101.945 29.304 101.956 29.464C101.988 30.1573 102.158 30.6853 102.468 31.048C102.777 31.4 103.214 31.576 103.78 31.576ZM109.633 33C109.526 33 109.435 32.9627 109.361 32.888C109.286 32.8133 109.249 32.7227 109.249 32.616V25.064C109.249 24.9573 109.286 24.8667 109.361 24.792C109.435 24.7173 109.526 24.68 109.633 24.68H110.945C111.051 24.68 111.142 24.7173 111.217 24.792C111.291 24.8667 111.329 24.9573 111.329 25.064V25.72C111.606 25.3787 111.958 25.096 112.385 24.872C112.822 24.6373 113.361 24.52 114.001 24.52C114.651 24.52 115.217 24.6693 115.697 24.968C116.177 25.256 116.545 25.6667 116.801 26.2C117.067 26.7333 117.201 27.3733 117.201 28.12V32.616C117.201 32.7227 117.163 32.8133 117.089 32.888C117.014 32.9627 116.923 33 116.817 33H115.409C115.302 33 115.211 32.9627 115.137 32.888C115.062 32.8133 115.025 32.7227 115.025 32.616V28.216C115.025 27.5973 114.87 27.112 114.561 26.76C114.262 26.408 113.825 26.232 113.249 26.232C112.694 26.232 112.251 26.408 111.921 26.76C111.59 27.112 111.425 27.5973 111.425 28.216V32.616C111.425 32.7227 111.387 32.8133 111.313 32.888C111.238 32.9627 111.147 33 111.041 33H109.633ZM121.329 33.16C120.774 33.16 120.273 33.0533 119.825 32.84C119.377 32.616 119.02 32.3227 118.753 31.96C118.497 31.5867 118.369 31.1707 118.369 30.712C118.369 29.9653 118.668 29.3733 119.265 28.936C119.873 28.488 120.673 28.1893 121.665 28.04L123.857 27.72V27.384C123.857 26.936 123.745 26.5893 123.521 26.344C123.297 26.0987 122.913 25.976 122.369 25.976C121.985 25.976 121.67 26.056 121.425 26.216C121.19 26.3653 121.014 26.568 120.897 26.824C120.812 26.9627 120.689 27.032 120.529 27.032H119.265C119.148 27.032 119.057 27 118.993 26.936C118.94 26.872 118.913 26.7867 118.913 26.68C118.924 26.5093 118.993 26.3013 119.121 26.056C119.249 25.8107 119.452 25.576 119.729 25.352C120.006 25.1173 120.364 24.92 120.801 24.76C121.238 24.6 121.766 24.52 122.385 24.52C123.057 24.52 123.622 24.6053 124.081 24.776C124.55 24.936 124.924 25.1547 125.201 25.432C125.478 25.7093 125.681 26.0347 125.809 26.408C125.937 26.7813 126.001 27.176 126.001 27.592V32.616C126.001 32.7227 125.964 32.8133 125.889 32.888C125.814 32.9627 125.724 33 125.617 33H124.321C124.204 33 124.108 32.9627 124.033 32.888C123.969 32.8133 123.937 32.7227 123.937 32.616V31.992C123.798 32.1947 123.612 32.3867 123.377 32.568C123.142 32.7387 122.854 32.8827 122.513 33C122.182 33.1067 121.788 33.16 121.329 33.16ZM121.873 31.64C122.246 31.64 122.582 31.56 122.881 31.4C123.19 31.24 123.43 30.9947 123.601 30.664C123.782 30.3227 123.873 29.896 123.873 29.384V29.048L122.273 29.304C121.644 29.4 121.174 29.5547 120.865 29.768C120.556 29.9813 120.401 30.2427 120.401 30.552C120.401 30.7867 120.47 30.9893 120.609 31.16C120.758 31.32 120.945 31.4427 121.169 31.528C121.393 31.6027 121.628 31.64 121.873 31.64ZM128.134 33C128.027 33 127.936 32.9627 127.862 32.888C127.787 32.8133 127.75 32.7227 127.75 32.616V22.024C127.75 21.9173 127.787 21.8267 127.862 21.752C127.936 21.6773 128.027 21.64 128.134 21.64H129.462C129.568 21.64 129.659 21.6773 129.734 21.752C129.808 21.8267 129.846 21.9173 129.846 22.024V32.616C129.846 32.7227 129.808 32.8133 129.734 32.888C129.659 32.9627 129.568 33 129.462 33H128.134Z" fill="#008DDD"/>
<path d="M35.6966 52C35.6086 52 35.5406 51.976 35.4926 51.928C35.4446 51.872 35.4206 51.804 35.4206 51.724V43.888C35.4206 43.8 35.4446 43.732 35.4926 43.684C35.5406 43.628 35.6086 43.6 35.6966 43.6H38.6246C39.5286 43.6 40.2446 43.812 40.7726 44.236C41.3006 44.66 41.5646 45.288 41.5646 46.12C41.5646 46.736 41.4086 47.24 41.0966 47.632C40.7926 48.016 40.3766 48.284 39.8486 48.436L41.6966 51.628C41.7206 51.676 41.7326 51.72 41.7326 51.76C41.7326 51.824 41.7046 51.88 41.6486 51.928C41.6006 51.976 41.5446 52 41.4806 52H40.9046C40.7686 52 40.6686 51.964 40.6046 51.892C40.5406 51.82 40.4846 51.748 40.4366 51.676L38.6966 48.628H36.5966V51.724C36.5966 51.804 36.5686 51.872 36.5126 51.928C36.4646 51.976 36.3966 52 36.3086 52H35.6966ZM36.5966 47.608H38.5766C39.1766 47.608 39.6246 47.484 39.9206 47.236C40.2166 46.98 40.3646 46.604 40.3646 46.108C40.3646 45.62 40.2166 45.248 39.9206 44.992C39.6326 44.736 39.1846 44.608 38.5766 44.608H36.5966V47.608ZM45.4215 52.12C44.5975 52.12 43.9415 51.868 43.4535 51.364C42.9655 50.852 42.6975 50.156 42.6495 49.276C42.6415 49.172 42.6375 49.04 42.6375 48.88C42.6375 48.712 42.6415 48.576 42.6495 48.472C42.6815 47.904 42.8135 47.408 43.0455 46.984C43.2775 46.552 43.5935 46.22 43.9935 45.988C44.4015 45.756 44.8775 45.64 45.4215 45.64C46.0295 45.64 46.5375 45.768 46.9455 46.024C47.3615 46.28 47.6775 46.644 47.8935 47.116C48.1095 47.588 48.2175 48.14 48.2175 48.772V48.976C48.2175 49.064 48.1895 49.132 48.1335 49.18C48.0855 49.228 48.0215 49.252 47.9415 49.252H43.7895C43.7895 49.26 43.7895 49.276 43.7895 49.3C43.7895 49.324 43.7895 49.344 43.7895 49.36C43.8055 49.688 43.8775 49.996 44.0055 50.284C44.1335 50.564 44.3175 50.792 44.5575 50.968C44.7975 51.144 45.0855 51.232 45.4215 51.232C45.7095 51.232 45.9495 51.188 46.1415 51.1C46.3335 51.012 46.4895 50.916 46.6095 50.812C46.7295 50.7 46.8095 50.616 46.8495 50.56C46.9215 50.456 46.9775 50.396 47.0175 50.38C47.0575 50.356 47.1215 50.344 47.2095 50.344H47.7855C47.8655 50.344 47.9295 50.368 47.9775 50.416C48.0335 50.456 48.0575 50.516 48.0495 50.596C48.0415 50.716 47.9775 50.864 47.8575 51.04C47.7375 51.208 47.5655 51.376 47.3415 51.544C47.1175 51.712 46.8455 51.852 46.5255 51.964C46.2055 52.068 45.8375 52.12 45.4215 52.12ZM43.7895 48.424H47.0775V48.388C47.0775 48.028 47.0095 47.708 46.8735 47.428C46.7455 47.148 46.5575 46.928 46.3095 46.768C46.0615 46.6 45.7655 46.516 45.4215 46.516C45.0775 46.516 44.7815 46.6 44.5335 46.768C44.2935 46.928 44.1095 47.148 43.9815 47.428C43.8535 47.708 43.7895 48.028 43.7895 48.388V48.424ZM49.8084 52C49.7284 52 49.6604 51.976 49.6044 51.928C49.5564 51.872 49.5324 51.804 49.5324 51.724V46.036C49.5324 45.956 49.5564 45.892 49.6044 45.844C49.6604 45.788 49.7284 45.76 49.8084 45.76H50.3724C50.4524 45.76 50.5164 45.788 50.5644 45.844C50.6204 45.892 50.6484 45.956 50.6484 46.036V46.564C50.8564 46.292 51.1164 46.072 51.4284 45.904C51.7484 45.728 52.1564 45.64 52.6524 45.64C53.1724 45.64 53.6124 45.756 53.9724 45.988C54.3404 46.212 54.6164 46.528 54.8004 46.936C54.9844 47.336 55.0764 47.804 55.0764 48.34V51.724C55.0764 51.804 55.0524 51.872 55.0044 51.928C54.9564 51.976 54.8924 52 54.8124 52H54.2124C54.1324 52 54.0644 51.976 54.0084 51.928C53.9604 51.872 53.9364 51.804 53.9364 51.724V48.4C53.9364 47.84 53.8004 47.404 53.5284 47.092C53.2564 46.772 52.8564 46.612 52.3284 46.612C51.8324 46.612 51.4324 46.772 51.1284 47.092C50.8324 47.404 50.6844 47.84 50.6844 48.4V51.724C50.6844 51.804 50.6564 51.872 50.6004 51.928C50.5524 51.976 50.4884 52 50.4084 52H49.8084ZM59.1737 52.12C58.3497 52.12 57.6937 51.868 57.2057 51.364C56.7177 50.852 56.4497 50.156 56.4017 49.276C56.3937 49.172 56.3897 49.04 56.3897 48.88C56.3897 48.712 56.3937 48.576 56.4017 48.472C56.4337 47.904 56.5657 47.408 56.7977 46.984C57.0297 46.552 57.3457 46.22 57.7457 45.988C58.1537 45.756 58.6297 45.64 59.1737 45.64C59.7817 45.64 60.2897 45.768 60.6977 46.024C61.1137 46.28 61.4297 46.644 61.6457 47.116C61.8617 47.588 61.9697 48.14 61.9697 48.772V48.976C61.9697 49.064 61.9417 49.132 61.8857 49.18C61.8377 49.228 61.7737 49.252 61.6937 49.252H57.5417C57.5417 49.26 57.5417 49.276 57.5417 49.3C57.5417 49.324 57.5417 49.344 57.5417 49.36C57.5577 49.688 57.6297 49.996 57.7577 50.284C57.8857 50.564 58.0697 50.792 58.3097 50.968C58.5497 51.144 58.8377 51.232 59.1737 51.232C59.4617 51.232 59.7017 51.188 59.8937 51.1C60.0857 51.012 60.2417 50.916 60.3617 50.812C60.4817 50.7 60.5617 50.616 60.6017 50.56C60.6737 50.456 60.7297 50.396 60.7697 50.38C60.8097 50.356 60.8737 50.344 60.9617 50.344H61.5377C61.6177 50.344 61.6817 50.368 61.7297 50.416C61.7857 50.456 61.8097 50.516 61.8017 50.596C61.7937 50.716 61.7297 50.864 61.6097 51.04C61.4897 51.208 61.3177 51.376 61.0937 51.544C60.8697 51.712 60.5977 51.852 60.2777 51.964C59.9577 52.068 59.5897 52.12 59.1737 52.12ZM57.5417 48.424H60.8297V48.388C60.8297 48.028 60.7617 47.708 60.6257 47.428C60.4977 47.148 60.3097 46.928 60.0617 46.768C59.8137 46.6 59.5177 46.516 59.1737 46.516C58.8297 46.516 58.5337 46.6 58.2857 46.768C58.0457 46.928 57.8617 47.148 57.7337 47.428C57.6057 47.708 57.5417 48.028 57.5417 48.388V48.424ZM64.7765 52C64.6725 52 64.5925 51.976 64.5365 51.928C64.4805 51.872 64.4325 51.796 64.3925 51.7L62.6885 46.132C62.6725 46.092 62.6645 46.052 62.6645 46.012C62.6645 45.94 62.6885 45.88 62.7365 45.832C62.7925 45.784 62.8525 45.76 62.9165 45.76H63.4445C63.5325 45.76 63.6005 45.784 63.6485 45.832C63.6965 45.88 63.7285 45.924 63.7445 45.964L65.0765 50.488L66.5045 46.012C66.5205 45.956 66.5525 45.9 66.6005 45.844C66.6565 45.788 66.7365 45.76 66.8405 45.76H67.2485C67.3525 45.76 67.4325 45.788 67.4885 45.844C67.5445 45.9 67.5765 45.956 67.5845 46.012L69.0125 50.488L70.3445 45.964C70.3525 45.924 70.3805 45.88 70.4285 45.832C70.4765 45.784 70.5445 45.76 70.6325 45.76H71.1605C71.2325 45.76 71.2925 45.784 71.3405 45.832C71.3885 45.88 71.4125 45.94 71.4125 46.012C71.4125 46.052 71.4045 46.092 71.3885 46.132L69.6845 51.7C69.6605 51.796 69.6165 51.872 69.5525 51.928C69.4965 51.976 69.4125 52 69.3005 52H68.8325C68.7285 52 68.6405 51.976 68.5685 51.928C68.5045 51.872 68.4605 51.796 68.4365 51.7L67.0445 47.404L65.6525 51.7C65.6205 51.796 65.5725 51.872 65.5085 51.928C65.4445 51.976 65.3565 52 65.2445 52H64.7765ZM74.9415 52.12C74.1175 52.12 73.4615 51.868 72.9735 51.364C72.4855 50.852 72.2175 50.156 72.1695 49.276C72.1615 49.172 72.1575 49.04 72.1575 48.88C72.1575 48.712 72.1615 48.576 72.1695 48.472C72.2015 47.904 72.3335 47.408 72.5655 46.984C72.7975 46.552 73.1135 46.22 73.5135 45.988C73.9215 45.756 74.3975 45.64 74.9415 45.64C75.5495 45.64 76.0575 45.768 76.4655 46.024C76.8815 46.28 77.1975 46.644 77.4135 47.116C77.6295 47.588 77.7375 48.14 77.7375 48.772V48.976C77.7375 49.064 77.7095 49.132 77.6535 49.18C77.6055 49.228 77.5415 49.252 77.4615 49.252H73.3095C73.3095 49.26 73.3095 49.276 73.3095 49.3C73.3095 49.324 73.3095 49.344 73.3095 49.36C73.3255 49.688 73.3975 49.996 73.5255 50.284C73.6535 50.564 73.8375 50.792 74.0775 50.968C74.3175 51.144 74.6055 51.232 74.9415 51.232C75.2295 51.232 75.4695 51.188 75.6615 51.1C75.8535 51.012 76.0095 50.916 76.1295 50.812C76.2495 50.7 76.3295 50.616 76.3695 50.56C76.4415 50.456 76.4975 50.396 76.5375 50.38C76.5775 50.356 76.6415 50.344 76.7295 50.344H77.3055C77.3855 50.344 77.4495 50.368 77.4975 50.416C77.5535 50.456 77.5775 50.516 77.5695 50.596C77.5615 50.716 77.4975 50.864 77.3775 51.04C77.2575 51.208 77.0855 51.376 76.8615 51.544C76.6375 51.712 76.3655 51.852 76.0455 51.964C75.7255 52.068 75.3575 52.12 74.9415 52.12ZM73.3095 48.424H76.5975V48.388C76.5975 48.028 76.5295 47.708 76.3935 47.428C76.2655 47.148 76.0775 46.928 75.8295 46.768C75.5815 46.6 75.2855 46.516 74.9415 46.516C74.5975 46.516 74.3015 46.6 74.0535 46.768C73.8135 46.928 73.6295 47.148 73.5015 47.428C73.3735 47.708 73.3095 48.028 73.3095 48.388V48.424ZM81.3324 52.12C80.8924 52.12 80.5124 52.044 80.1924 51.892C79.8724 51.732 79.6084 51.52 79.4004 51.256C79.2004 50.984 79.0484 50.676 78.9444 50.332C78.8484 49.988 78.7924 49.624 78.7764 49.24C78.7684 49.112 78.7644 48.992 78.7644 48.88C78.7644 48.768 78.7684 48.648 78.7764 48.52C78.7924 48.144 78.8484 47.784 78.9444 47.44C79.0484 47.096 79.2004 46.788 79.4004 46.516C79.6084 46.244 79.8724 46.032 80.1924 45.88C80.5124 45.72 80.8924 45.64 81.3324 45.64C81.8044 45.64 82.1964 45.724 82.5084 45.892C82.8204 46.06 83.0764 46.268 83.2764 46.516V43.756C83.2764 43.676 83.3004 43.612 83.3484 43.564C83.4044 43.508 83.4724 43.48 83.5524 43.48H84.1284C84.2084 43.48 84.2724 43.508 84.3204 43.564C84.3764 43.612 84.4044 43.676 84.4044 43.756V51.724C84.4044 51.804 84.3764 51.872 84.3204 51.928C84.2724 51.976 84.2084 52 84.1284 52H83.5884C83.5004 52 83.4324 51.976 83.3844 51.928C83.3364 51.872 83.3124 51.804 83.3124 51.724V51.22C83.1124 51.476 82.8524 51.692 82.5324 51.868C82.2124 52.036 81.8124 52.12 81.3324 52.12ZM81.5844 51.148C81.9844 51.148 82.3044 51.056 82.5444 50.872C82.7844 50.688 82.9644 50.456 83.0844 50.176C83.2044 49.888 83.2684 49.596 83.2764 49.3C83.2844 49.172 83.2884 49.02 83.2884 48.844C83.2884 48.66 83.2844 48.504 83.2764 48.376C83.2684 48.096 83.2004 47.82 83.0724 47.548C82.9524 47.276 82.7684 47.052 82.5204 46.876C82.2804 46.7 81.9684 46.612 81.5844 46.612C81.1764 46.612 80.8524 46.704 80.6124 46.888C80.3724 47.064 80.2004 47.3 80.0964 47.596C79.9924 47.884 79.9324 48.196 79.9164 48.532C79.9084 48.764 79.9084 48.996 79.9164 49.228C79.9324 49.564 79.9924 49.88 80.0964 50.176C80.2004 50.464 80.3724 50.7 80.6124 50.884C80.8524 51.06 81.1764 51.148 81.5844 51.148ZM90.6305 52.12C90.2305 52.12 89.8665 52.04 89.5385 51.88C89.2105 51.72 88.9465 51.504 88.7465 51.232C88.5465 50.96 88.4465 50.652 88.4465 50.308C88.4465 49.756 88.6705 49.316 89.1185 48.988C89.5665 48.66 90.1505 48.444 90.8705 48.34L92.6585 48.088V47.74C92.6585 47.356 92.5465 47.056 92.3225 46.84C92.1065 46.624 91.7505 46.516 91.2545 46.516C90.8945 46.516 90.6025 46.588 90.3785 46.732C90.1625 46.876 90.0105 47.06 89.9225 47.284C89.8745 47.404 89.7905 47.464 89.6705 47.464H89.1305C89.0425 47.464 88.9745 47.44 88.9265 47.392C88.8865 47.336 88.8665 47.272 88.8665 47.2C88.8665 47.08 88.9105 46.932 88.9985 46.756C89.0945 46.58 89.2385 46.408 89.4305 46.24C89.6225 46.072 89.8665 45.932 90.1625 45.82C90.4665 45.7 90.8345 45.64 91.2665 45.64C91.7465 45.64 92.1505 45.704 92.4785 45.832C92.8065 45.952 93.0625 46.116 93.2465 46.324C93.4385 46.532 93.5745 46.768 93.6545 47.032C93.7425 47.296 93.7865 47.564 93.7865 47.836V51.724C93.7865 51.804 93.7585 51.872 93.7025 51.928C93.6545 51.976 93.5905 52 93.5105 52H92.9585C92.8705 52 92.8025 51.976 92.7545 51.928C92.7065 51.872 92.6825 51.804 92.6825 51.724V51.208C92.5785 51.352 92.4385 51.496 92.2625 51.64C92.0865 51.776 91.8665 51.892 91.6025 51.988C91.3385 52.076 91.0145 52.12 90.6305 52.12ZM90.8825 51.22C91.2105 51.22 91.5105 51.152 91.7825 51.016C92.0545 50.872 92.2665 50.652 92.4185 50.356C92.5785 50.06 92.6585 49.688 92.6585 49.24V48.904L91.2665 49.108C90.6985 49.188 90.2705 49.324 89.9825 49.516C89.6945 49.7 89.5505 49.936 89.5505 50.224C89.5505 50.448 89.6145 50.636 89.7425 50.788C89.8785 50.932 90.0465 51.04 90.2465 51.112C90.4545 51.184 90.6665 51.22 90.8825 51.22ZM95.6676 52C95.5876 52 95.5196 51.976 95.4636 51.928C95.4156 51.872 95.3916 51.804 95.3916 51.724V46.036C95.3916 45.956 95.4156 45.892 95.4636 45.844C95.5196 45.788 95.5876 45.76 95.6676 45.76H96.2316C96.3116 45.76 96.3756 45.788 96.4236 45.844C96.4796 45.892 96.5076 45.956 96.5076 46.036V46.564C96.7156 46.292 96.9756 46.072 97.2876 45.904C97.6076 45.728 98.0156 45.64 98.5116 45.64C99.0316 45.64 99.4716 45.756 99.8316 45.988C100.2 46.212 100.476 46.528 100.66 46.936C100.844 47.336 100.936 47.804 100.936 48.34V51.724C100.936 51.804 100.912 51.872 100.864 51.928C100.816 51.976 100.752 52 100.672 52H100.072C99.9916 52 99.9236 51.976 99.8676 51.928C99.8196 51.872 99.7956 51.804 99.7956 51.724V48.4C99.7956 47.84 99.6596 47.404 99.3876 47.092C99.1156 46.772 98.7156 46.612 98.1876 46.612C97.6916 46.612 97.2916 46.772 96.9876 47.092C96.6916 47.404 96.5436 47.84 96.5436 48.4V51.724C96.5436 51.804 96.5156 51.872 96.4596 51.928C96.4116 51.976 96.3476 52 96.2676 52H95.6676ZM102.825 52C102.745 52 102.677 51.976 102.621 51.928C102.573 51.872 102.549 51.804 102.549 51.724V46.036C102.549 45.956 102.573 45.892 102.621 45.844C102.677 45.788 102.745 45.76 102.825 45.76H103.389C103.469 45.76 103.533 45.788 103.581 45.844C103.637 45.892 103.665 45.956 103.665 46.036V46.564C103.873 46.292 104.133 46.072 104.445 45.904C104.765 45.728 105.173 45.64 105.669 45.64C106.189 45.64 106.629 45.756 106.989 45.988C107.357 46.212 107.633 46.528 107.817 46.936C108.001 47.336 108.093 47.804 108.093 48.34V51.724C108.093 51.804 108.069 51.872 108.021 51.928C107.973 51.976 107.909 52 107.829 52H107.229C107.149 52 107.081 51.976 107.025 51.928C106.977 51.872 106.953 51.804 106.953 51.724V48.4C106.953 47.84 106.817 47.404 106.545 47.092C106.273 46.772 105.873 46.612 105.345 46.612C104.849 46.612 104.449 46.772 104.145 47.092C103.849 47.404 103.701 47.84 103.701 48.4V51.724C103.701 51.804 103.673 51.872 103.617 51.928C103.569 51.976 103.505 52 103.425 52H102.825ZM112.034 52.12C111.522 52.12 111.086 52.008 110.726 51.784C110.374 51.552 110.106 51.232 109.922 50.824C109.738 50.416 109.646 49.948 109.646 49.42V46.036C109.646 45.956 109.67 45.892 109.718 45.844C109.774 45.788 109.842 45.76 109.922 45.76H110.522C110.602 45.76 110.666 45.788 110.714 45.844C110.77 45.892 110.798 45.956 110.798 46.036V49.36C110.798 50.552 111.318 51.148 112.358 51.148C112.854 51.148 113.25 50.992 113.546 50.68C113.85 50.36 114.002 49.92 114.002 49.36V46.036C114.002 45.956 114.026 45.892 114.074 45.844C114.13 45.788 114.198 45.76 114.278 45.76H114.866C114.954 45.76 115.022 45.788 115.07 45.844C115.118 45.892 115.142 45.956 115.142 46.036V51.724C115.142 51.804 115.118 51.872 115.07 51.928C115.022 51.976 114.954 52 114.866 52H114.314C114.234 52 114.166 51.976 114.11 51.928C114.062 51.872 114.038 51.804 114.038 51.724V51.196C113.822 51.476 113.558 51.7 113.246 51.868C112.942 52.036 112.538 52.12 112.034 52.12ZM118.545 52.12C118.145 52.12 117.781 52.04 117.453 51.88C117.125 51.72 116.861 51.504 116.661 51.232C116.461 50.96 116.361 50.652 116.361 50.308C116.361 49.756 116.585 49.316 117.033 48.988C117.481 48.66 118.065 48.444 118.785 48.34L120.573 48.088V47.74C120.573 47.356 120.461 47.056 120.237 46.84C120.021 46.624 119.665 46.516 119.169 46.516C118.809 46.516 118.517 46.588 118.293 46.732C118.077 46.876 117.925 47.06 117.837 47.284C117.789 47.404 117.705 47.464 117.585 47.464H117.045C116.957 47.464 116.889 47.44 116.841 47.392C116.801 47.336 116.781 47.272 116.781 47.2C116.781 47.08 116.825 46.932 116.913 46.756C117.009 46.58 117.153 46.408 117.345 46.24C117.537 46.072 117.781 45.932 118.077 45.82C118.381 45.7 118.749 45.64 119.181 45.64C119.661 45.64 120.065 45.704 120.393 45.832C120.721 45.952 120.977 46.116 121.161 46.324C121.353 46.532 121.489 46.768 121.569 47.032C121.657 47.296 121.701 47.564 121.701 47.836V51.724C121.701 51.804 121.673 51.872 121.617 51.928C121.569 51.976 121.505 52 121.425 52H120.873C120.785 52 120.717 51.976 120.669 51.928C120.621 51.872 120.597 51.804 120.597 51.724V51.208C120.493 51.352 120.353 51.496 120.177 51.64C120.001 51.776 119.781 51.892 119.517 51.988C119.253 52.076 118.929 52.12 118.545 52.12ZM118.797 51.22C119.125 51.22 119.425 51.152 119.697 51.016C119.969 50.872 120.181 50.652 120.333 50.356C120.493 50.06 120.573 49.688 120.573 49.24V48.904L119.181 49.108C118.613 49.188 118.185 49.324 117.897 49.516C117.609 49.7 117.465 49.936 117.465 50.224C117.465 50.448 117.529 50.636 117.657 50.788C117.793 50.932 117.961 51.04 118.161 51.112C118.369 51.184 118.581 51.22 118.797 51.22ZM123.594 52C123.514 52 123.446 51.976 123.39 51.928C123.342 51.872 123.318 51.804 123.318 51.724V43.756C123.318 43.676 123.342 43.612 123.39 43.564C123.446 43.508 123.514 43.48 123.594 43.48H124.158C124.246 43.48 124.314 43.508 124.362 43.564C124.41 43.612 124.434 43.676 124.434 43.756V51.724C124.434 51.804 124.41 51.872 124.362 51.928C124.314 51.976 124.246 52 124.158 52H123.594ZM126.392 52C126.312 52 126.244 51.976 126.188 51.928C126.14 51.872 126.116 51.804 126.116 51.724V43.756C126.116 43.676 126.14 43.612 126.188 43.564C126.244 43.508 126.312 43.48 126.392 43.48H126.956C127.044 43.48 127.112 43.508 127.16 43.564C127.208 43.612 127.232 43.676 127.232 43.756V51.724C127.232 51.804 127.208 51.872 127.16 51.928C127.112 51.976 127.044 52 126.956 52H126.392ZM129.994 54.28C129.93 54.28 129.874 54.256 129.826 54.208C129.778 54.16 129.754 54.104 129.754 54.04C129.754 54.008 129.758 53.976 129.766 53.944C129.774 53.912 129.79 53.872 129.814 53.824L130.738 51.628L128.446 46.216C128.406 46.12 128.386 46.052 128.386 46.012C128.386 45.94 128.41 45.88 128.458 45.832C128.506 45.784 128.566 45.76 128.638 45.76H129.226C129.306 45.76 129.37 45.78 129.418 45.82C129.466 45.86 129.498 45.908 129.514 45.964L131.338 50.332L133.21 45.964C133.234 45.908 133.266 45.86 133.306 45.82C133.354 45.78 133.422 45.76 133.51 45.76H134.074C134.146 45.76 134.206 45.784 134.254 45.832C134.302 45.88 134.326 45.936 134.326 46C134.326 46.04 134.306 46.112 134.266 46.216L130.858 54.076C130.834 54.132 130.798 54.18 130.75 54.22C130.71 54.26 130.646 54.28 130.558 54.28H129.994Z" fill="#1D1D1D" fill-opacity="0.8"/>
<path d="M49.02 87C48.8333 87 48.6867 86.96 48.58 86.88C48.4867 86.7867 48.4 86.6933 48.32 86.6L44.02 81.82C43.9 81.6867 43.82 81.56 43.78 81.44C43.7533 81.32 43.74 81.1533 43.74 80.94V80.22C43.74 80.0867 43.78 79.9733 43.86 79.88C43.9533 79.7867 44.0733 79.74 44.22 79.74H45.16C46 79.74 46.6467 79.6333 47.1 79.42C47.5533 79.1933 47.86 78.8933 48.02 78.52C48.1933 78.1467 48.28 77.7133 48.28 77.22C48.28 76.7533 48.1933 76.3333 48.02 75.96C47.86 75.5867 47.5667 75.2867 47.14 75.06C46.7133 74.82 46.1133 74.7 45.34 74.7H44.08C43.9467 74.7 43.8333 74.66 43.74 74.58C43.6467 74.4867 43.6 74.3667 43.6 74.22V73.48C43.6 73.3467 43.6467 73.2333 43.74 73.14C43.8333 73.0467 43.9467 73 44.08 73H52.34C52.4733 73 52.5867 73.0467 52.68 73.14C52.7733 73.2333 52.82 73.3467 52.82 73.48V74.22C52.82 74.3667 52.7733 74.4867 52.68 74.58C52.5867 74.66 52.4733 74.7 52.34 74.7H49.16L49.2 74.22C49.9333 74.4467 50.44 74.8533 50.72 75.44C51 76.0133 51.14 76.66 51.14 77.38C51.14 78.1533 50.9733 78.8533 50.64 79.48C50.3067 80.1067 49.8 80.6067 49.12 80.98C48.4533 81.3533 47.6267 81.5667 46.64 81.62L45.94 81.68L46.16 80.54L51.3 86.34C51.4067 86.46 51.46 86.56 51.46 86.64C51.46 86.76 51.42 86.8533 51.34 86.92C51.26 86.9733 51.16 87 51.04 87H49.02ZM44.08 77.94C43.9333 77.94 43.8133 77.8933 43.72 77.8C43.64 77.7067 43.6 77.5933 43.6 77.46V76.72C43.6 76.5733 43.6467 76.46 43.74 76.38C43.8333 76.2867 43.9467 76.24 44.08 76.24H52.34C52.4733 76.24 52.5867 76.2867 52.68 76.38C52.7733 76.46 52.82 76.5733 52.82 76.72L52.8 77.46C52.8 77.5933 52.7533 77.7067 52.66 77.8C52.58 77.8933 52.4667 77.94 52.32 77.94H44.08ZM61.5555 87C61.4221 87 61.3088 86.9533 61.2155 86.86C61.1221 86.7667 61.0755 86.6533 61.0755 86.52V83.96H54.7355C54.5888 83.96 54.4688 83.9133 54.3755 83.82C54.2955 83.7267 54.2555 83.6133 54.2555 83.48V82.12C54.2555 82.04 54.2688 81.9467 54.2955 81.84C54.3355 81.72 54.3955 81.6133 54.4755 81.52L60.3755 73.34C60.5488 73.1133 60.7955 73 61.1155 73H63.2955C63.4288 73 63.5421 73.0467 63.6355 73.14C63.7288 73.2333 63.7755 73.3467 63.7755 73.48V81.6H65.5555C65.7155 81.6 65.8355 81.6467 65.9155 81.74C66.0088 81.82 66.0555 81.9333 66.0555 82.08V83.48C66.0555 83.6133 66.0088 83.7267 65.9155 83.82C65.8221 83.9133 65.7088 83.96 65.5755 83.96H63.7755V86.52C63.7755 86.6533 63.7288 86.7667 63.6355 86.86C63.5421 86.9533 63.4288 87 63.2955 87H61.5555ZM57.0355 81.68H61.1355V75.9L57.0355 81.68ZM73.0623 87.2C72.1157 87.2 71.309 87.06 70.6423 86.78C69.9757 86.5 69.429 86.1133 69.0023 85.62C68.5757 85.1267 68.2557 84.56 68.0423 83.92C67.829 83.2667 67.7023 82.5733 67.6623 81.84C67.649 81.48 67.6357 81.0867 67.6223 80.66C67.6223 80.22 67.6223 79.78 67.6223 79.34C67.6357 78.9 67.649 78.4933 67.6623 78.12C67.689 77.3867 67.8157 76.7 68.0423 76.06C68.269 75.4067 68.5957 74.84 69.0223 74.36C69.4623 73.88 70.0157 73.5 70.6823 73.22C71.349 72.94 72.1423 72.8 73.0623 72.8C73.9957 72.8 74.7957 72.94 75.4623 73.22C76.129 73.5 76.6757 73.88 77.1023 74.36C77.5423 74.84 77.869 75.4067 78.0823 76.06C78.309 76.7 78.4357 77.3867 78.4623 78.12C78.489 78.4933 78.5023 78.9 78.5023 79.34C78.5023 79.78 78.5023 80.22 78.5023 80.66C78.5023 81.0867 78.489 81.48 78.4623 81.84C78.4357 82.5733 78.3157 83.2667 78.1023 83.92C77.889 84.56 77.569 85.1267 77.1423 85.62C76.7157 86.1133 76.1623 86.5 75.4823 86.78C74.8157 87.06 74.009 87.2 73.0623 87.2ZM73.0623 84.9C73.929 84.9 74.5623 84.62 74.9623 84.06C75.3757 83.4867 75.589 82.7133 75.6023 81.74C75.629 81.3533 75.6423 80.9667 75.6423 80.58C75.6423 80.18 75.6423 79.78 75.6423 79.38C75.6423 78.98 75.629 78.6 75.6023 78.24C75.589 77.2933 75.3757 76.5333 74.9623 75.96C74.5623 75.3733 73.929 75.08 73.0623 75.08C72.209 75.08 71.5757 75.3733 71.1623 75.96C70.7623 76.5333 70.549 77.2933 70.5223 78.24C70.5223 78.6 70.5157 78.98 70.5023 79.38C70.5023 79.78 70.5023 80.18 70.5023 80.58C70.5157 80.9667 70.5223 81.3533 70.5223 81.74C70.549 82.7133 70.769 83.4867 71.1823 84.06C71.5957 84.62 72.2223 84.9 73.0623 84.9ZM82.3469 87C82.2269 87 82.1269 86.96 82.0469 86.88C81.9669 86.7867 81.9269 86.68 81.9269 86.56C81.9269 86.5067 81.9402 86.4467 81.9669 86.38L86.7869 75.38H80.5069C80.3602 75.38 80.2402 75.3333 80.1469 75.24C80.0669 75.1467 80.0269 75.0333 80.0269 74.9V73.5C80.0269 73.3533 80.0669 73.2333 80.1469 73.14C80.2402 73.0467 80.3602 73 80.5069 73H89.2869C89.4335 73 89.5469 73.0467 89.6269 73.14C89.7202 73.2333 89.7669 73.3533 89.7669 73.5V74.74C89.7669 74.9267 89.7469 75.0867 89.7069 75.22C89.6802 75.34 89.6402 75.4667 89.5869 75.6L84.8069 86.52C84.7669 86.6133 84.6935 86.72 84.5869 86.84C84.4935 86.9467 84.3535 87 84.1669 87H82.3469ZM96.6663 87.2C95.7196 87.2 94.9129 87.06 94.2463 86.78C93.5796 86.5 93.0329 86.1133 92.6063 85.62C92.1796 85.1267 91.8596 84.56 91.6463 83.92C91.4329 83.2667 91.3063 82.5733 91.2663 81.84C91.2529 81.48 91.2396 81.0867 91.2263 80.66C91.2263 80.22 91.2263 79.78 91.2263 79.34C91.2396 78.9 91.2529 78.4933 91.2663 78.12C91.2929 77.3867 91.4196 76.7 91.6463 76.06C91.8729 75.4067 92.1996 74.84 92.6263 74.36C93.0663 73.88 93.6196 73.5 94.2863 73.22C94.9529 72.94 95.7463 72.8 96.6663 72.8C97.5996 72.8 98.3996 72.94 99.0663 73.22C99.7329 73.5 100.28 73.88 100.706 74.36C101.146 74.84 101.473 75.4067 101.686 76.06C101.913 76.7 102.04 77.3867 102.066 78.12C102.093 78.4933 102.106 78.9 102.106 79.34C102.106 79.78 102.106 80.22 102.106 80.66C102.106 81.0867 102.093 81.48 102.066 81.84C102.04 82.5733 101.92 83.2667 101.706 83.92C101.493 84.56 101.173 85.1267 100.746 85.62C100.32 86.1133 99.7663 86.5 99.0863 86.78C98.4196 87.06 97.6129 87.2 96.6663 87.2ZM96.6663 84.9C97.5329 84.9 98.1663 84.62 98.5663 84.06C98.9796 83.4867 99.1929 82.7133 99.2063 81.74C99.2329 81.3533 99.2463 80.9667 99.2463 80.58C99.2463 80.18 99.2463 79.78 99.2463 79.38C99.2463 78.98 99.2329 78.6 99.2063 78.24C99.1929 77.2933 98.9796 76.5333 98.5663 75.96C98.1663 75.3733 97.5329 75.08 96.6663 75.08C95.8129 75.08 95.1796 75.3733 94.7663 75.96C94.3663 76.5333 94.1529 77.2933 94.1263 78.24C94.1263 78.6 94.1196 78.98 94.1063 79.38C94.1063 79.78 94.1063 80.18 94.1063 80.58C94.1196 80.9667 94.1263 81.3533 94.1263 81.74C94.1529 82.7133 94.3729 83.4867 94.7863 84.06C95.1996 84.62 95.8263 84.9 96.6663 84.9ZM103.502 88.68C103.395 88.68 103.302 88.64 103.222 88.56C103.142 88.48 103.102 88.38 103.102 88.26C103.102 88.2067 103.115 88.1333 103.142 88.04L109.942 71.7C109.995 71.6067 110.068 71.5133 110.162 71.42C110.255 71.3267 110.388 71.28 110.562 71.28H111.862C111.968 71.28 112.062 71.32 112.142 71.4C112.235 71.48 112.282 71.58 112.282 71.7C112.282 71.7533 112.262 71.8267 112.222 71.92L105.402 88.26C105.362 88.34 105.295 88.4267 105.202 88.52C105.108 88.6267 104.968 88.68 104.782 88.68H103.502ZM114.298 82.14C114.151 82.14 114.031 82.0933 113.938 82C113.858 81.9067 113.818 81.7933 113.818 81.66V80.34C113.818 80.2067 113.858 80.0933 113.938 80C114.031 79.9067 114.151 79.86 114.298 79.86H120.438C120.571 79.86 120.684 79.9067 120.778 80C120.871 80.0933 120.918 80.2067 120.918 80.34V81.66C120.918 81.7933 120.871 81.9067 120.778 82C120.684 82.0933 120.571 82.14 120.438 82.14H114.298Z" fill="#1D1D1D" fill-opacity="0.84"/>
<path d="M39.344 103.11C38.75 103.11 38.244 103.015 37.826 102.824C37.4153 102.633 37.1 102.388 36.88 102.087C36.66 101.786 36.5427 101.467 36.528 101.13C36.528 101.071 36.55 101.02 36.594 100.976C36.638 100.932 36.693 100.91 36.759 100.91H36.979C37.0523 100.91 37.1073 100.932 37.144 100.976C37.188 101.02 37.2137 101.071 37.221 101.13C37.2503 101.335 37.342 101.541 37.496 101.746C37.65 101.944 37.8773 102.113 38.178 102.252C38.4787 102.384 38.8673 102.45 39.344 102.45C40.0627 102.45 40.587 102.322 40.917 102.065C41.247 101.801 41.412 101.449 41.412 101.009C41.412 100.716 41.324 100.481 41.148 100.305C40.9793 100.122 40.719 99.9603 40.367 99.821C40.015 99.6743 39.564 99.513 39.014 99.337C38.4933 99.1683 38.0643 98.996 37.727 98.82C37.3897 98.6367 37.1403 98.4167 36.979 98.16C36.825 97.9033 36.748 97.5733 36.748 97.17C36.748 96.796 36.847 96.4623 37.045 96.169C37.243 95.8683 37.529 95.63 37.903 95.454C38.2843 95.278 38.7463 95.19 39.289 95.19C39.7217 95.19 40.0993 95.2487 40.422 95.366C40.7447 95.4833 41.0123 95.641 41.225 95.839C41.4377 96.0297 41.599 96.2387 41.709 96.466C41.819 96.686 41.8777 96.9023 41.885 97.115C41.885 97.1663 41.8667 97.2177 41.83 97.269C41.7933 97.313 41.7347 97.335 41.654 97.335H41.434C41.3973 97.335 41.3497 97.3203 41.291 97.291C41.2397 97.2617 41.2067 97.203 41.192 97.115C41.148 96.7483 40.9537 96.4477 40.609 96.213C40.2717 95.971 39.8317 95.85 39.289 95.85C38.7463 95.85 38.3027 95.9563 37.958 96.169C37.6133 96.3817 37.441 96.7153 37.441 97.17C37.441 97.4633 37.518 97.7053 37.672 97.896C37.826 98.0793 38.068 98.2443 38.398 98.391C38.728 98.5303 39.1533 98.6843 39.674 98.853C40.224 99.029 40.6787 99.205 41.038 99.381C41.3973 99.557 41.665 99.7733 41.841 100.03C42.017 100.279 42.105 100.606 42.105 101.009C42.105 101.456 41.9913 101.838 41.764 102.153C41.544 102.461 41.2287 102.699 40.818 102.868C40.4073 103.029 39.916 103.11 39.344 103.11ZM44.9812 103.11C44.6292 103.11 44.3028 103.037 44.0022 102.89C43.7088 102.743 43.4705 102.549 43.2872 102.307C43.1038 102.058 43.0122 101.779 43.0122 101.471C43.0122 100.972 43.2138 100.573 43.6172 100.272C44.0205 99.9713 44.5448 99.777 45.1902 99.689L46.9282 99.447V99.062C46.9282 98.6733 46.8072 98.369 46.5652 98.149C46.3305 97.9217 45.9528 97.808 45.4322 97.808C45.0508 97.808 44.7428 97.885 44.5082 98.039C44.2735 98.1857 44.1122 98.38 44.0242 98.622C43.9875 98.732 43.9178 98.787 43.8152 98.787H43.6392C43.5512 98.787 43.4888 98.765 43.4522 98.721C43.4155 98.6697 43.3972 98.611 43.3972 98.545C43.3972 98.4423 43.4338 98.314 43.5072 98.16C43.5878 98.006 43.7088 97.8557 43.8702 97.709C44.0315 97.555 44.2405 97.4267 44.4972 97.324C44.7538 97.2213 45.0655 97.17 45.4322 97.17C45.8648 97.17 46.2205 97.2287 46.4992 97.346C46.7852 97.4633 47.0052 97.6173 47.1592 97.808C47.3205 97.9913 47.4342 98.1967 47.5002 98.424C47.5662 98.6513 47.5992 98.875 47.5992 99.095V102.758C47.5992 102.831 47.5772 102.89 47.5332 102.934C47.4892 102.978 47.4305 103 47.3572 103H47.1702C47.0968 103 47.0382 102.978 46.9942 102.934C46.9502 102.89 46.9282 102.831 46.9282 102.758V102.241C46.8402 102.373 46.7155 102.505 46.5542 102.637C46.3928 102.769 46.1838 102.883 45.9272 102.978C45.6778 103.066 45.3625 103.11 44.9812 103.11ZM45.0912 102.472C45.4285 102.472 45.7365 102.399 46.0152 102.252C46.2938 102.105 46.5138 101.882 46.6752 101.581C46.8438 101.273 46.9282 100.888 46.9282 100.426V100.052L45.5092 100.25C44.9078 100.331 44.4532 100.47 44.1452 100.668C43.8372 100.866 43.6832 101.115 43.6832 101.416C43.6832 101.658 43.7528 101.856 43.8922 102.01C44.0315 102.164 44.2075 102.281 44.4202 102.362C44.6402 102.435 44.8638 102.472 45.0912 102.472ZM51.1117 103C50.9943 103 50.9027 102.974 50.8367 102.923C50.778 102.872 50.7303 102.806 50.6937 102.725L48.6697 97.621C48.655 97.577 48.6477 97.5367 48.6477 97.5C48.6477 97.4413 48.6697 97.39 48.7137 97.346C48.7577 97.302 48.809 97.28 48.8677 97.28H49.0987C49.172 97.28 49.227 97.302 49.2637 97.346C49.3077 97.3827 49.3333 97.4157 49.3407 97.445L51.1997 102.197L53.0587 97.445C53.0733 97.4157 53.099 97.3827 53.1357 97.346C53.1723 97.302 53.2273 97.28 53.3007 97.28H53.5317C53.5903 97.28 53.6417 97.302 53.6857 97.346C53.7297 97.39 53.7517 97.4413 53.7517 97.5C53.7517 97.5367 53.7443 97.577 53.7297 97.621L51.7057 102.725C51.6763 102.806 51.6287 102.872 51.5627 102.923C51.4967 102.974 51.405 103 51.2877 103H51.1117ZM56.8598 103.11C56.1484 103.11 55.5838 102.879 55.1658 102.417C54.7478 101.948 54.5094 101.335 54.4508 100.58C54.4434 100.47 54.4398 100.323 54.4398 100.14C54.4398 99.9567 54.4434 99.81 54.4508 99.7C54.4874 99.2013 54.6048 98.7613 54.8028 98.38C55.0008 97.9987 55.2721 97.7017 55.6168 97.489C55.9688 97.2763 56.3831 97.17 56.8598 97.17C57.3731 97.17 57.8094 97.2837 58.1688 97.511C58.5281 97.7383 58.8031 98.0647 58.9938 98.49C59.1918 98.9153 59.2908 99.4213 59.2908 100.008V100.173C59.2908 100.246 59.2651 100.305 59.2138 100.349C59.1698 100.393 59.1111 100.415 59.0378 100.415H55.1218C55.1218 100.415 55.1218 100.43 55.1218 100.459C55.1218 100.488 55.1218 100.51 55.1218 100.525C55.1364 100.855 55.2134 101.17 55.3528 101.471C55.4921 101.764 55.6901 102.006 55.9468 102.197C56.2034 102.38 56.5078 102.472 56.8598 102.472C57.1751 102.472 57.4354 102.424 57.6408 102.329C57.8534 102.234 58.0221 102.131 58.1468 102.021C58.2714 101.904 58.3521 101.816 58.3888 101.757C58.4548 101.662 58.5061 101.607 58.5428 101.592C58.5794 101.57 58.6381 101.559 58.7188 101.559H58.8948C58.9608 101.559 59.0158 101.581 59.0598 101.625C59.1111 101.662 59.1331 101.713 59.1258 101.779C59.1184 101.882 59.0598 102.01 58.9498 102.164C58.8471 102.311 58.6968 102.457 58.4988 102.604C58.3081 102.751 58.0734 102.872 57.7948 102.967C57.5161 103.062 57.2044 103.11 56.8598 103.11ZM55.1218 99.799H58.6198V99.755C58.6198 99.3883 58.5501 99.0583 58.4108 98.765C58.2714 98.4717 58.0698 98.2407 57.8058 98.072C57.5418 97.896 57.2264 97.808 56.8598 97.808C56.4931 97.808 56.1778 97.896 55.9138 98.072C55.6571 98.2407 55.4591 98.4717 55.3198 98.765C55.1878 99.0583 55.1218 99.3883 55.1218 99.755V99.799ZM64.8976 103.11C64.5456 103.11 64.2193 103.037 63.9186 102.89C63.6253 102.743 63.3869 102.549 63.2036 102.307C63.0203 102.058 62.9286 101.779 62.9286 101.471C62.9286 100.972 63.1303 100.573 63.5336 100.272C63.9369 99.9713 64.4613 99.777 65.1066 99.689L66.8446 99.447V99.062C66.8446 98.6733 66.7236 98.369 66.4816 98.149C66.2469 97.9217 65.8693 97.808 65.3486 97.808C64.9673 97.808 64.6593 97.885 64.4246 98.039C64.1899 98.1857 64.0286 98.38 63.9406 98.622C63.9039 98.732 63.8343 98.787 63.7316 98.787H63.5556C63.4676 98.787 63.4053 98.765 63.3686 98.721C63.3319 98.6697 63.3136 98.611 63.3136 98.545C63.3136 98.4423 63.3503 98.314 63.4236 98.16C63.5043 98.006 63.6253 97.8557 63.7866 97.709C63.9479 97.555 64.1569 97.4267 64.4136 97.324C64.6703 97.2213 64.9819 97.17 65.3486 97.17C65.7813 97.17 66.1369 97.2287 66.4156 97.346C66.7016 97.4633 66.9216 97.6173 67.0756 97.808C67.2369 97.9913 67.3506 98.1967 67.4166 98.424C67.4826 98.6513 67.5156 98.875 67.5156 99.095V102.758C67.5156 102.831 67.4936 102.89 67.4496 102.934C67.4056 102.978 67.3469 103 67.2736 103H67.0866C67.0133 103 66.9546 102.978 66.9106 102.934C66.8666 102.89 66.8446 102.831 66.8446 102.758V102.241C66.7566 102.373 66.6319 102.505 66.4706 102.637C66.3093 102.769 66.1003 102.883 65.8436 102.978C65.5943 103.066 65.2789 103.11 64.8976 103.11ZM65.0076 102.472C65.3449 102.472 65.6529 102.399 65.9316 102.252C66.2103 102.105 66.4303 101.882 66.5916 101.581C66.7603 101.273 66.8446 100.888 66.8446 100.426V100.052L65.4256 100.25C64.8243 100.331 64.3696 100.47 64.0616 100.668C63.7536 100.866 63.5996 101.115 63.5996 101.416C63.5996 101.658 63.6693 101.856 63.8086 102.01C63.9479 102.164 64.1239 102.281 64.3366 102.362C64.5566 102.435 64.7803 102.472 65.0076 102.472ZM71.2131 103.11C70.7877 103.11 70.4247 103.033 70.1241 102.879C69.8307 102.725 69.5924 102.52 69.4091 102.263C69.2257 102.006 69.0901 101.72 69.0021 101.405C68.9214 101.09 68.8737 100.771 68.8591 100.448C68.8517 100.338 68.8481 100.235 68.8481 100.14C68.8481 100.045 68.8517 99.942 68.8591 99.832C68.8737 99.5093 68.9214 99.1903 69.0021 98.875C69.0901 98.5597 69.2257 98.2737 69.4091 98.017C69.5924 97.7603 69.8307 97.555 70.1241 97.401C70.4247 97.247 70.7877 97.17 71.2131 97.17C71.6677 97.17 72.0417 97.2543 72.3351 97.423C72.6357 97.5917 72.8777 97.797 73.0611 98.039V95.432C73.0611 95.3587 73.0831 95.3 73.1271 95.256C73.1711 95.212 73.2297 95.19 73.3031 95.19H73.4901C73.5634 95.19 73.6221 95.212 73.6661 95.256C73.7101 95.3 73.7321 95.3587 73.7321 95.432V102.758C73.7321 102.831 73.7101 102.89 73.6661 102.934C73.6221 102.978 73.5634 103 73.4901 103H73.3031C73.2297 103 73.1711 102.978 73.1271 102.934C73.0831 102.89 73.0611 102.831 73.0611 102.758V102.241C72.8777 102.49 72.6357 102.699 72.3351 102.868C72.0417 103.029 71.6677 103.11 71.2131 103.11ZM71.2791 102.472C71.6971 102.472 72.0344 102.373 72.2911 102.175C72.5477 101.977 72.7384 101.731 72.8631 101.438C72.9877 101.137 73.0537 100.837 73.0611 100.536C73.0684 100.426 73.0721 100.283 73.0721 100.107C73.0721 99.931 73.0684 99.788 73.0611 99.678C73.0537 99.3847 72.9841 99.095 72.8521 98.809C72.7274 98.523 72.5367 98.2847 72.2801 98.094C72.0234 97.9033 71.6897 97.808 71.2791 97.808C70.8537 97.808 70.5127 97.9033 70.2561 98.094C70.0067 98.2847 69.8271 98.534 69.7171 98.842C69.6071 99.15 69.5447 99.48 69.5301 99.832C69.5227 100.037 69.5227 100.243 69.5301 100.448C69.5447 100.8 69.6071 101.13 69.7171 101.438C69.8271 101.746 70.0067 101.995 70.2561 102.186C70.5127 102.377 70.8537 102.472 71.2791 102.472ZM77.4839 103.11C77.0586 103.11 76.6956 103.033 76.3949 102.879C76.1016 102.725 75.8633 102.52 75.6799 102.263C75.4966 102.006 75.3609 101.72 75.2729 101.405C75.1923 101.09 75.1446 100.771 75.1299 100.448C75.1226 100.338 75.1189 100.235 75.1189 100.14C75.1189 100.045 75.1226 99.942 75.1299 99.832C75.1446 99.5093 75.1923 99.1903 75.2729 98.875C75.3609 98.5597 75.4966 98.2737 75.6799 98.017C75.8633 97.7603 76.1016 97.555 76.3949 97.401C76.6956 97.247 77.0586 97.17 77.4839 97.17C77.9386 97.17 78.3126 97.2543 78.6059 97.423C78.9066 97.5917 79.1486 97.797 79.3319 98.039V95.432C79.3319 95.3587 79.3539 95.3 79.3979 95.256C79.4419 95.212 79.5006 95.19 79.5739 95.19H79.7609C79.8343 95.19 79.8929 95.212 79.9369 95.256C79.9809 95.3 80.0029 95.3587 80.0029 95.432V102.758C80.0029 102.831 79.9809 102.89 79.9369 102.934C79.8929 102.978 79.8343 103 79.7609 103H79.5739C79.5006 103 79.4419 102.978 79.3979 102.934C79.3539 102.89 79.3319 102.831 79.3319 102.758V102.241C79.1486 102.49 78.9066 102.699 78.6059 102.868C78.3126 103.029 77.9386 103.11 77.4839 103.11ZM77.5499 102.472C77.9679 102.472 78.3053 102.373 78.5619 102.175C78.8186 101.977 79.0093 101.731 79.1339 101.438C79.2586 101.137 79.3246 100.837 79.3319 100.536C79.3393 100.426 79.3429 100.283 79.3429 100.107C79.3429 99.931 79.3393 99.788 79.3319 99.678C79.3246 99.3847 79.2549 99.095 79.1229 98.809C78.9983 98.523 78.8076 98.2847 78.5509 98.094C78.2943 97.9033 77.9606 97.808 77.5499 97.808C77.1246 97.808 76.7836 97.9033 76.5269 98.094C76.2776 98.2847 76.0979 98.534 75.9879 98.842C75.8779 99.15 75.8156 99.48 75.8009 99.832C75.7936 100.037 75.7936 100.243 75.8009 100.448C75.8156 100.8 75.8779 101.13 75.9879 101.438C76.0979 101.746 76.2776 101.995 76.5269 102.186C76.7836 102.377 77.1246 102.472 77.5499 102.472ZM81.9288 103C81.8554 103 81.7968 102.978 81.7528 102.934C81.7088 102.89 81.6868 102.831 81.6868 102.758V97.522C81.6868 97.4487 81.7088 97.39 81.7528 97.346C81.7968 97.302 81.8554 97.28 81.9288 97.28H82.1158C82.1891 97.28 82.2478 97.302 82.2918 97.346C82.3358 97.39 82.3578 97.4487 82.3578 97.522V102.758C82.3578 102.831 82.3358 102.89 82.2918 102.934C82.2478 102.978 82.1891 103 82.1158 103H81.9288ZM81.8078 96.103C81.7344 96.103 81.6758 96.081 81.6318 96.037C81.5878 95.993 81.5658 95.9343 81.5658 95.861V95.443C81.5658 95.3697 81.5878 95.311 81.6318 95.267C81.6758 95.2157 81.7344 95.19 81.8078 95.19H82.2258C82.2991 95.19 82.3578 95.2157 82.4018 95.267C82.4531 95.311 82.4788 95.3697 82.4788 95.443V95.861C82.4788 95.9343 82.4531 95.993 82.4018 96.037C82.3578 96.081 82.2991 96.103 82.2258 96.103H81.8078ZM85.951 103C85.5697 103 85.269 102.919 85.049 102.758C84.829 102.597 84.675 102.377 84.587 102.098C84.499 101.819 84.455 101.508 84.455 101.163V97.918H83.597C83.5237 97.918 83.465 97.896 83.421 97.852C83.377 97.808 83.355 97.7493 83.355 97.676V97.522C83.355 97.4487 83.377 97.39 83.421 97.346C83.465 97.302 83.5237 97.28 83.597 97.28H84.455V95.432C84.455 95.3587 84.477 95.3 84.521 95.256C84.565 95.212 84.6237 95.19 84.697 95.19H84.884C84.9573 95.19 85.016 95.212 85.06 95.256C85.104 95.3 85.126 95.3587 85.126 95.432V97.28H86.49C86.5633 97.28 86.622 97.302 86.666 97.346C86.71 97.39 86.732 97.4487 86.732 97.522V97.676C86.732 97.7493 86.71 97.808 86.666 97.852C86.622 97.896 86.5633 97.918 86.49 97.918H85.126V101.119C85.126 101.508 85.1883 101.812 85.313 102.032C85.445 102.252 85.676 102.362 86.006 102.362H86.6C86.6733 102.362 86.732 102.384 86.776 102.428C86.82 102.472 86.842 102.531 86.842 102.604V102.758C86.842 102.831 86.82 102.89 86.776 102.934C86.732 102.978 86.6733 103 86.6 103H85.951ZM88.1111 103C88.0378 103 87.9791 102.978 87.9351 102.934C87.8911 102.89 87.8691 102.831 87.8691 102.758V97.522C87.8691 97.4487 87.8911 97.39 87.9351 97.346C87.9791 97.302 88.0378 97.28 88.1111 97.28H88.2981C88.3715 97.28 88.4301 97.302 88.4741 97.346C88.5181 97.39 88.5401 97.4487 88.5401 97.522V102.758C88.5401 102.831 88.5181 102.89 88.4741 102.934C88.4301 102.978 88.3715 103 88.2981 103H88.1111ZM87.9901 96.103C87.9168 96.103 87.8581 96.081 87.8141 96.037C87.7701 95.993 87.7481 95.9343 87.7481 95.861V95.443C87.7481 95.3697 87.7701 95.311 87.8141 95.267C87.8581 95.2157 87.9168 95.19 87.9901 95.19H88.4081C88.4815 95.19 88.5401 95.2157 88.5841 95.267C88.6355 95.311 88.6611 95.3697 88.6611 95.443V95.861C88.6611 95.9343 88.6355 95.993 88.5841 96.037C88.5401 96.081 88.4815 96.103 88.4081 96.103H87.9901ZM92.3863 103.11C91.8583 103.11 91.4147 103 91.0553 102.78C90.7033 102.56 90.432 102.259 90.2413 101.878C90.058 101.497 89.959 101.071 89.9443 100.602C89.937 100.492 89.9333 100.338 89.9333 100.14C89.9333 99.942 89.937 99.788 89.9443 99.678C89.959 99.2013 90.058 98.776 90.2413 98.402C90.432 98.0207 90.7033 97.72 91.0553 97.5C91.4147 97.28 91.8583 97.17 92.3863 97.17C92.9143 97.17 93.3543 97.28 93.7063 97.5C94.0657 97.72 94.337 98.0207 94.5203 98.402C94.711 98.776 94.8137 99.2013 94.8283 99.678C94.8357 99.788 94.8393 99.942 94.8393 100.14C94.8393 100.338 94.8357 100.492 94.8283 100.602C94.8137 101.071 94.711 101.497 94.5203 101.878C94.337 102.259 94.0657 102.56 93.7063 102.78C93.3543 103 92.9143 103.11 92.3863 103.11ZM92.3863 102.472C92.8997 102.472 93.3177 102.307 93.6403 101.977C93.963 101.647 94.1353 101.17 94.1573 100.547C94.1647 100.437 94.1683 100.301 94.1683 100.14C94.1683 99.9787 94.1647 99.843 94.1573 99.733C94.1353 99.1023 93.963 98.6257 93.6403 98.303C93.3177 97.973 92.8997 97.808 92.3863 97.808C91.873 97.808 91.455 97.973 91.1323 98.303C90.8097 98.6257 90.6373 99.1023 90.6153 99.733C90.608 99.843 90.6043 99.9787 90.6043 100.14C90.6043 100.301 90.608 100.437 90.6153 100.547C90.6373 101.17 90.8097 101.647 91.1323 101.977C91.455 102.307 91.873 102.472 92.3863 102.472ZM96.4741 103C96.4008 103 96.3421 102.978 96.2981 102.934C96.2541 102.89 96.2321 102.831 96.2321 102.758V97.522C96.2321 97.4487 96.2541 97.39 96.2981 97.346C96.3421 97.302 96.4008 97.28 96.4741 97.28H96.6611C96.7345 97.28 96.7931 97.302 96.8371 97.346C96.8811 97.39 96.9031 97.4487 96.9031 97.522V98.039C97.1011 97.7823 97.3395 97.5733 97.6181 97.412C97.9041 97.2507 98.2818 97.17 98.7511 97.17C99.2498 97.17 99.6641 97.28 99.9941 97.5C100.331 97.7127 100.581 98.006 100.742 98.38C100.911 98.7467 100.995 99.1647 100.995 99.634V102.758C100.995 102.831 100.973 102.89 100.929 102.934C100.885 102.978 100.826 103 100.753 103H100.566C100.493 103 100.434 102.978 100.39 102.934C100.346 102.89 100.324 102.831 100.324 102.758V99.689C100.324 99.1023 100.181 98.644 99.8951 98.314C99.6091 97.9767 99.1911 97.808 98.6411 97.808C98.1205 97.808 97.6988 97.9767 97.3761 98.314C97.0608 98.644 96.9031 99.1023 96.9031 99.689V102.758C96.9031 102.831 96.8811 102.89 96.8371 102.934C96.7931 102.978 96.7345 103 96.6611 103H96.4741ZM104.15 103.11C103.798 103.11 103.472 103.037 103.171 102.89C102.878 102.743 102.64 102.549 102.456 102.307C102.273 102.058 102.181 101.779 102.181 101.471C102.181 100.972 102.383 100.573 102.786 100.272C103.19 99.9713 103.714 99.777 104.359 99.689L106.097 99.447V99.062C106.097 98.6733 105.976 98.369 105.734 98.149C105.5 97.9217 105.122 97.808 104.601 97.808C104.22 97.808 103.912 97.885 103.677 98.039C103.443 98.1857 103.281 98.38 103.193 98.622C103.157 98.732 103.087 98.787 102.984 98.787H102.808C102.72 98.787 102.658 98.765 102.621 98.721C102.585 98.6697 102.566 98.611 102.566 98.545C102.566 98.4423 102.603 98.314 102.676 98.16C102.757 98.006 102.878 97.8557 103.039 97.709C103.201 97.555 103.41 97.4267 103.666 97.324C103.923 97.2213 104.235 97.17 104.601 97.17C105.034 97.17 105.39 97.2287 105.668 97.346C105.954 97.4633 106.174 97.6173 106.328 97.808C106.49 97.9913 106.603 98.1967 106.669 98.424C106.735 98.6513 106.768 98.875 106.768 99.095V102.758C106.768 102.831 106.746 102.89 106.702 102.934C106.658 102.978 106.6 103 106.526 103H106.339C106.266 103 106.207 102.978 106.163 102.934C106.119 102.89 106.097 102.831 106.097 102.758V102.241C106.009 102.373 105.885 102.505 105.723 102.637C105.562 102.769 105.353 102.883 105.096 102.978C104.847 103.066 104.532 103.11 104.15 103.11ZM104.26 102.472C104.598 102.472 104.906 102.399 105.184 102.252C105.463 102.105 105.683 101.882 105.844 101.581C106.013 101.273 106.097 100.888 106.097 100.426V100.052L104.678 100.25C104.077 100.331 103.622 100.47 103.314 100.668C103.006 100.866 102.852 101.115 102.852 101.416C102.852 101.658 102.922 101.856 103.061 102.01C103.201 102.164 103.377 102.281 103.589 102.362C103.809 102.435 104.033 102.472 104.26 102.472ZM108.651 103C108.578 103 108.519 102.978 108.475 102.934C108.431 102.89 108.409 102.831 108.409 102.758V95.432C108.409 95.3587 108.431 95.3 108.475 95.256C108.519 95.212 108.578 95.19 108.651 95.19H108.838C108.911 95.19 108.97 95.212 109.014 95.256C109.058 95.3 109.08 95.3587 109.08 95.432V102.758C109.08 102.831 109.058 102.89 109.014 102.934C108.97 102.978 108.911 103 108.838 103H108.651ZM115.63 103C115.556 103 115.498 102.978 115.454 102.934C115.41 102.89 115.388 102.831 115.388 102.758V96.202L113.419 97.72C113.36 97.764 113.298 97.7823 113.232 97.775C113.173 97.7677 113.122 97.7347 113.078 97.676L112.957 97.522C112.913 97.4633 112.894 97.4047 112.902 97.346C112.909 97.28 112.942 97.225 113.001 97.181L115.344 95.377C115.395 95.3403 115.443 95.3183 115.487 95.311C115.531 95.3037 115.578 95.3 115.63 95.3H115.839C115.912 95.3 115.971 95.322 116.015 95.366C116.059 95.41 116.081 95.4687 116.081 95.542V102.758C116.081 102.831 116.059 102.89 116.015 102.934C115.971 102.978 115.912 103 115.839 103H115.63ZM119.946 103.11C119.411 103.11 118.956 103.011 118.582 102.813C118.216 102.615 117.933 102.362 117.735 102.054C117.537 101.739 117.431 101.412 117.416 101.075C117.409 101.009 117.427 100.958 117.471 100.921C117.515 100.884 117.57 100.866 117.636 100.866H117.845C117.904 100.866 117.955 100.881 117.999 100.91C118.051 100.939 118.091 101.009 118.12 101.119C118.201 101.434 118.333 101.691 118.516 101.889C118.707 102.087 118.927 102.23 119.176 102.318C119.426 102.406 119.682 102.45 119.946 102.45C120.306 102.45 120.632 102.377 120.925 102.23C121.226 102.083 121.464 101.867 121.64 101.581C121.816 101.295 121.904 100.947 121.904 100.536C121.904 100.155 121.816 99.832 121.64 99.568C121.464 99.2967 121.226 99.0913 120.925 98.952C120.632 98.8053 120.306 98.732 119.946 98.732C119.675 98.732 119.451 98.765 119.275 98.831C119.099 98.897 118.953 98.974 118.835 99.062C118.718 99.15 118.612 99.227 118.516 99.293C118.421 99.359 118.315 99.392 118.197 99.392H117.999C117.933 99.392 117.875 99.37 117.823 99.326C117.772 99.2747 117.75 99.216 117.757 99.15L118.087 95.553C118.095 95.4723 118.117 95.41 118.153 95.366C118.197 95.322 118.256 95.3 118.329 95.3H121.915C121.989 95.3 122.047 95.322 122.091 95.366C122.135 95.41 122.157 95.4687 122.157 95.542V95.718C122.157 95.7913 122.135 95.85 122.091 95.894C122.047 95.938 121.989 95.96 121.915 95.96H118.758L118.527 98.446C118.608 98.3947 118.762 98.3213 118.989 98.226C119.217 98.1233 119.536 98.072 119.946 98.072C120.313 98.072 120.654 98.127 120.969 98.237C121.292 98.3397 121.574 98.4973 121.816 98.71C122.066 98.9153 122.256 99.172 122.388 99.48C122.528 99.7807 122.597 100.133 122.597 100.536C122.597 101.108 122.476 101.585 122.234 101.966C122 102.347 121.681 102.633 121.277 102.824C120.881 103.015 120.438 103.11 119.946 103.11ZM124.239 103C124.093 103 124.019 102.927 124.019 102.78C124.019 102.736 124.034 102.696 124.063 102.659L129.486 95.509C129.538 95.443 129.585 95.3917 129.629 95.355C129.681 95.3183 129.754 95.3 129.849 95.3H130.036C130.183 95.3 130.256 95.3733 130.256 95.52C130.256 95.564 130.242 95.6043 130.212 95.641L124.789 102.791C124.738 102.857 124.69 102.908 124.646 102.945C124.602 102.982 124.529 103 124.426 103H124.239ZM129.068 103.066C128.592 103.066 128.221 102.93 127.957 102.659C127.693 102.38 127.55 102.021 127.528 101.581C127.521 101.39 127.517 101.233 127.517 101.108C127.517 100.976 127.521 100.807 127.528 100.602C127.55 100.162 127.686 99.8027 127.935 99.524C128.185 99.2453 128.562 99.106 129.068 99.106C129.574 99.106 129.952 99.2453 130.201 99.524C130.451 99.8027 130.586 100.162 130.608 100.602C130.623 100.807 130.63 100.976 130.63 101.108C130.63 101.233 130.623 101.39 130.608 101.581C130.586 102.021 130.443 102.38 130.179 102.659C129.915 102.93 129.545 103.066 129.068 103.066ZM129.068 102.45C129.288 102.45 129.461 102.406 129.585 102.318C129.717 102.223 129.813 102.105 129.871 101.966C129.93 101.827 129.963 101.687 129.97 101.548C129.985 101.343 129.992 101.189 129.992 101.086C129.992 100.976 129.985 100.826 129.97 100.635C129.963 100.415 129.89 100.21 129.75 100.019C129.618 99.821 129.391 99.722 129.068 99.722C128.746 99.722 128.518 99.821 128.386 100.019C128.254 100.21 128.181 100.415 128.166 100.635C128.159 100.826 128.155 100.976 128.155 101.086C128.155 101.189 128.159 101.343 128.166 101.548C128.181 101.687 128.214 101.827 128.265 101.966C128.324 102.105 128.416 102.223 128.54 102.318C128.672 102.406 128.848 102.45 129.068 102.45ZM125.185 99.15C124.709 99.15 124.338 99.0217 124.074 98.765C123.81 98.5083 123.667 98.16 123.645 97.72C123.638 97.5293 123.634 97.3717 123.634 97.247C123.634 97.115 123.638 96.9463 123.645 96.741C123.667 96.301 123.803 95.9417 124.052 95.663C124.302 95.3843 124.679 95.245 125.185 95.245C125.691 95.245 126.069 95.3843 126.318 95.663C126.568 95.9417 126.703 96.301 126.725 96.741C126.74 96.9463 126.747 97.115 126.747 97.247C126.747 97.3717 126.74 97.5293 126.725 97.72C126.703 98.16 126.56 98.5083 126.296 98.765C126.032 99.0217 125.662 99.15 125.185 99.15ZM125.185 98.589C125.405 98.589 125.578 98.545 125.702 98.457C125.834 98.3617 125.93 98.2443 125.988 98.105C126.047 97.9657 126.08 97.8263 126.087 97.687C126.102 97.4817 126.109 97.3277 126.109 97.225C126.109 97.115 126.102 96.9647 126.087 96.774C126.08 96.554 126.007 96.3487 125.867 96.158C125.735 95.96 125.508 95.861 125.185 95.861C124.863 95.861 124.635 95.96 124.503 96.158C124.371 96.3487 124.298 96.554 124.283 96.774C124.276 96.9647 124.272 97.115 124.272 97.225C124.272 97.3277 124.276 97.4817 124.283 97.687C124.298 97.8263 124.331 97.9657 124.382 98.105C124.441 98.2443 124.533 98.3617 124.657 98.457C124.789 98.545 124.965 98.589 125.185 98.589Z" fill="#2D8304"/>
<path d="M54.98 139C54.88 139 54.795 138.965 54.725 138.895C54.655 138.825 54.62 138.74 54.62 138.64V128.875C54.62 128.765 54.655 128.675 54.725 128.605C54.795 128.535 54.88 128.5 54.98 128.5H59C59.78 128.5 60.46 128.625 61.04 128.875C61.62 129.115 62.07 129.485 62.39 129.985C62.71 130.475 62.87 131.09 62.87 131.83C62.87 132.58 62.71 133.2 62.39 133.69C62.07 134.17 61.62 134.53 61.04 134.77C60.46 135.01 59.78 135.13 59 135.13H56.765V138.64C56.765 138.74 56.73 138.825 56.66 138.895C56.6 138.965 56.515 139 56.405 139H54.98ZM56.735 133.465H58.925C59.505 133.465 59.95 133.33 60.26 133.06C60.57 132.78 60.725 132.37 60.725 131.83C60.725 131.33 60.58 130.93 60.29 130.63C60 130.32 59.545 130.165 58.925 130.165H56.735V133.465ZM64.5377 139C64.4377 139 64.3527 138.965 64.2827 138.895C64.2127 138.825 64.1777 138.74 64.1777 138.64V131.575C64.1777 131.465 64.2127 131.375 64.2827 131.305C64.3527 131.235 64.4377 131.2 64.5377 131.2H65.7527C65.8527 131.2 65.9377 131.235 66.0077 131.305C66.0877 131.375 66.1277 131.465 66.1277 131.575V132.19C66.3577 131.87 66.6527 131.625 67.0127 131.455C67.3827 131.285 67.8077 131.2 68.2877 131.2H68.9027C69.0127 131.2 69.0977 131.235 69.1577 131.305C69.2277 131.375 69.2627 131.46 69.2627 131.56V132.64C69.2627 132.74 69.2277 132.825 69.1577 132.895C69.0977 132.965 69.0127 133 68.9027 133H67.7327C67.2527 133 66.8777 133.135 66.6077 133.405C66.3477 133.675 66.2177 134.045 66.2177 134.515V138.64C66.2177 138.74 66.1827 138.825 66.1127 138.895C66.0427 138.965 65.9527 139 65.8427 139H64.5377ZM73.63 139.15C72.83 139.15 72.155 139.01 71.605 138.73C71.065 138.45 70.65 138.055 70.36 137.545C70.08 137.035 69.92 136.44 69.88 135.76C69.87 135.58 69.865 135.36 69.865 135.1C69.865 134.84 69.87 134.62 69.88 134.44C69.92 133.75 70.085 133.155 70.375 132.655C70.675 132.145 71.095 131.75 71.635 131.47C72.185 131.19 72.85 131.05 73.63 131.05C74.41 131.05 75.07 131.19 75.61 131.47C76.16 131.75 76.58 132.145 76.87 132.655C77.17 133.155 77.34 133.75 77.38 134.44C77.39 134.62 77.395 134.84 77.395 135.1C77.395 135.36 77.39 135.58 77.38 135.76C77.34 136.44 77.175 137.035 76.885 137.545C76.605 138.055 76.19 138.45 75.64 138.73C75.1 139.01 74.43 139.15 73.63 139.15ZM73.63 137.665C74.16 137.665 74.57 137.5 74.86 137.17C75.15 136.83 75.31 136.335 75.34 135.685C75.35 135.535 75.355 135.34 75.355 135.1C75.355 134.86 75.35 134.665 75.34 134.515C75.31 133.875 75.15 133.385 74.86 133.045C74.57 132.705 74.16 132.535 73.63 132.535C73.1 132.535 72.69 132.705 72.4 133.045C72.11 133.385 71.95 133.875 71.92 134.515C71.91 134.665 71.905 134.86 71.905 135.1C71.905 135.34 71.91 135.535 71.92 135.685C71.95 136.335 72.11 136.83 72.4 137.17C72.69 137.5 73.1 137.665 73.63 137.665ZM82.282 139.15C81.562 139.15 80.927 139.015 80.377 138.745C79.837 138.475 79.412 138.085 79.102 137.575C78.802 137.055 78.637 136.43 78.607 135.7C78.597 135.55 78.592 135.355 78.592 135.115C78.592 134.865 78.597 134.66 78.607 134.5C78.637 133.77 78.802 133.15 79.102 132.64C79.412 132.12 79.837 131.725 80.377 131.455C80.927 131.185 81.562 131.05 82.282 131.05C82.922 131.05 83.467 131.14 83.917 131.32C84.367 131.5 84.737 131.725 85.027 131.995C85.317 132.265 85.532 132.55 85.672 132.85C85.822 133.14 85.902 133.405 85.912 133.645C85.922 133.755 85.887 133.845 85.807 133.915C85.737 133.975 85.652 134.005 85.552 134.005H84.232C84.132 134.005 84.052 133.98 83.992 133.93C83.942 133.88 83.892 133.805 83.842 133.705C83.692 133.305 83.492 133.025 83.242 132.865C83.002 132.695 82.692 132.61 82.312 132.61C81.812 132.61 81.412 132.77 81.112 133.09C80.822 133.4 80.667 133.895 80.647 134.575C80.627 134.955 80.627 135.305 80.647 135.625C80.667 136.315 80.822 136.815 81.112 137.125C81.412 137.435 81.812 137.59 82.312 137.59C82.702 137.59 83.017 137.51 83.257 137.35C83.497 137.18 83.692 136.895 83.842 136.495C83.892 136.395 83.942 136.32 83.992 136.27C84.052 136.22 84.132 136.195 84.232 136.195H85.552C85.652 136.195 85.737 136.23 85.807 136.3C85.887 136.36 85.922 136.445 85.912 136.555C85.902 136.735 85.852 136.94 85.762 137.17C85.682 137.39 85.547 137.62 85.357 137.86C85.177 138.09 84.947 138.305 84.667 138.505C84.387 138.695 84.047 138.85 83.647 138.97C83.257 139.09 82.802 139.15 82.282 139.15ZM90.6863 139.15C89.5763 139.15 88.6963 138.83 88.0463 138.19C87.3963 137.55 87.0463 136.64 86.9963 135.46C86.9863 135.36 86.9813 135.235 86.9813 135.085C86.9813 134.925 86.9863 134.8 86.9963 134.71C87.0363 133.96 87.2063 133.31 87.5063 132.76C87.8163 132.21 88.2413 131.79 88.7813 131.5C89.3213 131.2 89.9563 131.05 90.6863 131.05C91.4963 131.05 92.1763 131.22 92.7263 131.56C93.2763 131.89 93.6913 132.355 93.9713 132.955C94.2513 133.545 94.3913 134.23 94.3913 135.01V135.325C94.3913 135.425 94.3563 135.51 94.2863 135.58C94.2163 135.65 94.1263 135.685 94.0163 135.685H89.0363C89.0363 135.685 89.0363 135.7 89.0363 135.73C89.0363 135.76 89.0363 135.785 89.0363 135.805C89.0463 136.155 89.1113 136.48 89.2313 136.78C89.3613 137.07 89.5463 137.305 89.7863 137.485C90.0363 137.665 90.3313 137.755 90.6713 137.755C90.9513 137.755 91.1863 137.715 91.3763 137.635C91.5663 137.545 91.7213 137.445 91.8413 137.335C91.9613 137.225 92.0463 137.135 92.0963 137.065C92.1863 136.945 92.2563 136.875 92.3063 136.855C92.3663 136.825 92.4513 136.81 92.5613 136.81H93.8513C93.9513 136.81 94.0313 136.84 94.0913 136.9C94.1613 136.96 94.1913 137.035 94.1813 137.125C94.1713 137.285 94.0863 137.48 93.9263 137.71C93.7763 137.94 93.5563 138.165 93.2663 138.385C92.9763 138.605 92.6113 138.79 92.1713 138.94C91.7413 139.08 91.2463 139.15 90.6863 139.15ZM89.0363 134.425H92.3513V134.38C92.3513 133.99 92.2863 133.65 92.1563 133.36C92.0263 133.07 91.8363 132.84 91.5863 132.67C91.3363 132.5 91.0363 132.415 90.6863 132.415C90.3363 132.415 90.0363 132.5 89.7863 132.67C89.5363 132.84 89.3463 133.07 89.2163 133.36C89.0963 133.65 89.0363 133.99 89.0363 134.38V134.425ZM99.1936 139.15C98.0836 139.15 97.2036 138.83 96.5536 138.19C95.9036 137.55 95.5536 136.64 95.5036 135.46C95.4936 135.36 95.4886 135.235 95.4886 135.085C95.4886 134.925 95.4936 134.8 95.5036 134.71C95.5436 133.96 95.7136 133.31 96.0136 132.76C96.3236 132.21 96.7486 131.79 97.2886 131.5C97.8286 131.2 98.4636 131.05 99.1936 131.05C100.004 131.05 100.684 131.22 101.234 131.56C101.784 131.89 102.199 132.355 102.479 132.955C102.759 133.545 102.899 134.23 102.899 135.01V135.325C102.899 135.425 102.864 135.51 102.794 135.58C102.724 135.65 102.634 135.685 102.524 135.685H97.5436C97.5436 135.685 97.5436 135.7 97.5436 135.73C97.5436 135.76 97.5436 135.785 97.5436 135.805C97.5536 136.155 97.6186 136.48 97.7386 136.78C97.8686 137.07 98.0536 137.305 98.2936 137.485C98.5436 137.665 98.8386 137.755 99.1786 137.755C99.4586 137.755 99.6936 137.715 99.8836 137.635C100.074 137.545 100.229 137.445 100.349 137.335C100.469 137.225 100.554 137.135 100.604 137.065C100.694 136.945 100.764 136.875 100.814 136.855C100.874 136.825 100.959 136.81 101.069 136.81H102.359C102.459 136.81 102.539 136.84 102.599 136.9C102.669 136.96 102.699 137.035 102.689 137.125C102.679 137.285 102.594 137.48 102.434 137.71C102.284 137.94 102.064 138.165 101.774 138.385C101.484 138.605 101.119 138.79 100.679 138.94C100.249 139.08 99.7536 139.15 99.1936 139.15ZM97.5436 134.425H100.859V134.38C100.859 133.99 100.794 133.65 100.664 133.36C100.534 133.07 100.344 132.84 100.094 132.67C99.8436 132.5 99.5436 132.415 99.1936 132.415C98.8436 132.415 98.5436 132.5 98.2936 132.67C98.0436 132.84 97.8536 133.07 97.7236 133.36C97.6036 133.65 97.5436 133.99 97.5436 134.38V134.425ZM107.236 139.15C106.716 139.15 106.256 139.065 105.856 138.895C105.466 138.715 105.141 138.465 104.881 138.145C104.621 137.825 104.421 137.45 104.281 137.02C104.141 136.58 104.061 136.1 104.041 135.58C104.031 135.4 104.026 135.24 104.026 135.1C104.026 134.95 104.031 134.785 104.041 134.605C104.061 134.105 104.136 133.64 104.266 133.21C104.406 132.78 104.606 132.405 104.866 132.085C105.136 131.755 105.466 131.5 105.856 131.32C106.256 131.14 106.716 131.05 107.236 131.05C107.776 131.05 108.231 131.145 108.601 131.335C108.981 131.515 109.296 131.75 109.546 132.04V128.71C109.546 128.61 109.576 128.525 109.636 128.455C109.706 128.385 109.796 128.35 109.906 128.35H111.181C111.281 128.35 111.366 128.385 111.436 128.455C111.506 128.525 111.541 128.61 111.541 128.71V138.64C111.541 138.74 111.506 138.825 111.436 138.895C111.366 138.965 111.281 139 111.181 139H109.996C109.886 139 109.796 138.965 109.726 138.895C109.666 138.825 109.636 138.74 109.636 138.64V138.085C109.386 138.395 109.066 138.65 108.676 138.85C108.296 139.05 107.816 139.15 107.236 139.15ZM107.791 137.545C108.211 137.545 108.546 137.45 108.796 137.26C109.046 137.07 109.231 136.83 109.351 136.54C109.471 136.24 109.536 135.935 109.546 135.625C109.556 135.445 109.561 135.255 109.561 135.055C109.561 134.845 109.556 134.65 109.546 134.47C109.536 134.17 109.466 133.885 109.336 133.615C109.206 133.335 109.016 133.105 108.766 132.925C108.516 132.745 108.191 132.655 107.791 132.655C107.371 132.655 107.036 132.75 106.786 132.94C106.546 133.12 106.371 133.36 106.261 133.66C106.151 133.96 106.086 134.29 106.066 134.65C106.056 134.95 106.056 135.25 106.066 135.55C106.086 135.91 106.151 136.24 106.261 136.54C106.371 136.84 106.546 137.085 106.786 137.275C107.036 137.455 107.371 137.545 107.791 137.545Z" fill="#2D8304"/>
<rect x="15.5" y="118.5" width="135" height="31" rx="15.5" stroke="#2D8304" stroke-opacity="0.07"/>
<rect x="77.9258" y="-66.9316" width="163.833" height="14.9762" transform="rotate(48.3459 77.9258 -66.9316)" fill="#04AE7B"/>
<path d="M127.433 5.24621C127.394 5.20238 127.376 5.15787 127.379 5.1127C127.386 5.06397 127.409 5.02189 127.449 4.98644L131.352 1.5144C131.396 1.47541 131.44 1.45724 131.485 1.45988C131.535 1.45898 131.579 1.48044 131.618 1.52427L132.915 2.98275C133.316 3.43305 133.527 3.88363 133.55 4.3345C133.573 4.78538 133.377 5.19514 132.962 5.56379C132.656 5.83673 132.335 5.98234 132.002 6.00062C131.676 6.01934 131.358 5.93087 131.048 5.73522L130.277 8.07007C130.264 8.10329 130.247 8.12877 130.228 8.14649C130.196 8.17485 130.155 8.18571 130.107 8.17909C130.061 8.17644 130.025 8.15918 129.996 8.1273L129.741 7.84039C129.681 7.77265 129.654 7.70689 129.662 7.6431C129.669 7.57932 129.681 7.51953 129.695 7.46371L130.442 5.24646L129.512 4.20042L127.97 5.57222C127.93 5.60767 127.884 5.62385 127.831 5.62077C127.786 5.61813 127.744 5.59489 127.705 5.55106L127.433 5.24621ZM130.02 3.74847L130.897 4.73474C131.163 5.03361 131.423 5.20182 131.678 5.23938C131.937 5.27339 132.19 5.18051 132.437 4.96073C132.68 4.74451 132.8 4.50596 132.796 4.24509C132.796 3.9882 132.661 3.70833 132.392 3.40547L131.514 2.41921L130.02 3.74847ZM131.417 9.84466C131.052 9.43421 130.887 8.99579 130.921 8.5294C130.96 8.05945 131.188 7.61757 131.605 7.20374C131.654 7.15368 131.718 7.0932 131.797 7.0223C131.881 6.94786 131.95 6.8896 132.006 6.8475C132.303 6.61177 132.608 6.45775 132.922 6.38544C133.24 6.30959 133.546 6.31989 133.839 6.41634C134.135 6.51677 134.404 6.70247 134.645 6.97345C134.914 7.2763 135.075 7.58606 135.129 7.90272C135.185 8.22336 135.144 8.54205 135.005 8.85878C134.865 9.17551 134.638 9.47389 134.323 9.75393L134.222 9.84432C134.178 9.88331 134.132 9.89949 134.083 9.89286C134.038 9.89022 133.997 9.86898 133.962 9.82913L132.122 7.76096C132.118 7.7645 132.11 7.77159 132.098 7.78223C132.086 7.79286 132.077 7.80172 132.069 7.80881C131.912 7.96212 131.791 8.13445 131.704 8.32582C131.621 8.51364 131.589 8.70632 131.608 8.90385C131.627 9.10138 131.71 9.28383 131.859 9.4512C131.987 9.59465 132.115 9.6947 132.244 9.75135C132.373 9.808 132.49 9.84317 132.595 9.85686C132.704 9.86701 132.781 9.86964 132.827 9.86475C132.91 9.85453 132.965 9.85584 132.991 9.86867C133.02 9.87797 133.055 9.90453 133.094 9.94836L133.349 10.2353C133.384 10.2751 133.401 10.3176 133.398 10.3628C133.403 10.4084 133.384 10.447 133.34 10.4784C133.277 10.5276 133.175 10.5613 133.034 10.5795C132.897 10.5942 132.737 10.583 132.555 10.5458C132.372 10.5087 132.181 10.4352 131.984 10.3255C131.79 10.2121 131.601 10.0519 131.417 9.84466ZM132.535 7.39408L133.992 9.03188L134.01 9.01593C134.189 8.85642 134.318 8.68076 134.397 8.48895C134.48 8.30113 134.506 8.11 134.476 7.91558C134.45 7.7176 134.361 7.53294 134.208 7.36159C134.056 7.19024 133.883 7.08002 133.689 7.03093C133.503 6.98227 133.312 6.9881 133.116 7.0484C132.92 7.10871 132.732 7.21862 132.553 7.37813L132.535 7.39408ZM134.089 12.8487C133.837 12.5658 133.673 12.2729 133.596 11.9699C133.527 11.6674 133.545 11.37 133.649 11.0777C133.757 10.7818 133.95 10.5022 134.23 10.239C134.287 10.1819 134.364 10.109 134.464 10.0204C134.564 9.93176 134.645 9.86285 134.708 9.81367C135.002 9.56642 135.301 9.40819 135.603 9.33899C135.91 9.26624 136.207 9.28363 136.495 9.39116C136.791 9.49912 137.065 9.69457 137.317 9.97749C137.522 10.2086 137.666 10.4342 137.748 10.6543C137.833 10.8784 137.873 11.0886 137.869 11.2848C137.865 11.481 137.829 11.6564 137.759 11.811C137.693 11.9696 137.61 12.0969 137.51 12.1931C137.474 12.2325 137.431 12.2489 137.383 12.2423C137.334 12.2357 137.292 12.2124 137.257 12.1726L137.001 11.8857C136.966 11.8458 136.947 11.8088 136.945 11.7747C136.948 11.7371 136.962 11.6888 136.988 11.6299C137.119 11.3845 137.17 11.1645 137.14 10.9701C137.11 10.7757 137.013 10.5868 136.85 10.4035C136.637 10.1644 136.39 10.0347 136.108 10.0145C135.829 9.99818 135.521 10.1294 135.184 10.4081C135.037 10.5317 134.897 10.6558 134.765 10.7803C134.445 11.0865 134.277 11.3788 134.261 11.6574C134.252 11.9365 134.354 12.1955 134.567 12.4346C134.73 12.6179 134.906 12.7359 135.096 12.7886C135.285 12.8412 135.509 12.8165 135.769 12.7146C135.83 12.6955 135.878 12.6888 135.911 12.6946C135.949 12.6968 135.986 12.7178 136.021 12.7577L136.276 13.0446C136.312 13.0844 136.33 13.1289 136.331 13.1781C136.332 13.2273 136.31 13.2676 136.267 13.299C136.18 13.3695 136.078 13.4278 135.962 13.4739C135.846 13.52 135.71 13.5479 135.555 13.5577C135.407 13.568 135.251 13.5532 135.087 13.5134C134.927 13.47 134.76 13.3941 134.585 13.2857C134.417 13.1777 134.252 13.032 134.089 12.8487ZM136.72 15.8061C136.45 15.5032 136.283 15.1988 136.218 14.8927C136.153 14.5867 136.174 14.2895 136.281 14.0011C136.393 13.7092 136.575 13.4403 136.827 13.1944C136.891 13.1302 136.975 13.052 137.079 12.9598C137.186 12.8641 137.274 12.7899 137.341 12.7371C137.619 12.5116 137.907 12.3622 138.206 12.289C138.508 12.2198 138.808 12.2355 139.104 12.3359C139.401 12.4363 139.682 12.636 139.948 12.9348C140.213 13.2337 140.379 13.5362 140.444 13.8422C140.509 14.1482 140.488 14.4454 140.381 14.7338C140.277 15.0261 140.097 15.297 139.84 15.5465C139.78 15.6072 139.696 15.6854 139.588 15.7811C139.485 15.8733 139.397 15.9475 139.326 16.0038C139.052 16.2258 138.764 16.3751 138.461 16.4519C138.162 16.525 137.865 16.5114 137.568 16.411C137.272 16.3106 136.989 16.1089 136.72 15.8061ZM137.18 15.3966C137.4 15.6437 137.653 15.7718 137.939 15.781C138.23 15.7867 138.532 15.6608 138.846 15.4034C138.909 15.3542 138.986 15.2888 139.078 15.2073C139.17 15.1258 139.244 15.0564 139.3 14.9993C139.592 14.7179 139.75 14.4344 139.775 14.1487C139.803 13.8595 139.707 13.5913 139.487 13.3443C139.267 13.0972 139.011 12.9688 138.716 12.9592C138.43 12.95 138.132 13.0761 137.822 13.3375C137.758 13.3867 137.681 13.4521 137.589 13.5336C137.498 13.6151 137.424 13.6845 137.367 13.7416C137.072 14.019 136.91 14.3023 136.881 14.5915C136.861 14.8812 136.96 15.1496 137.18 15.3966ZM138.503 17.6909C138.468 17.651 138.45 17.6065 138.449 17.5573C138.455 17.5086 138.479 17.4665 138.519 17.4311L141.352 14.9108C141.392 14.8754 141.434 14.859 141.479 14.8616C141.532 14.8647 141.576 14.8861 141.612 14.926L141.851 15.195C141.886 15.2348 141.901 15.2791 141.894 15.3278C141.895 15.377 141.876 15.4193 141.836 15.4547L141.626 15.6408C141.832 15.6226 142.032 15.6513 142.228 15.727C142.428 15.7991 142.614 15.9328 142.788 16.1281C143.193 16.5748 143.293 17.0567 143.089 17.5736C143.338 17.5164 143.59 17.5311 143.846 17.6179C144.101 17.7046 144.328 17.8595 144.527 18.0827C144.711 18.2899 144.83 18.5197 144.883 18.7721C144.94 19.0286 144.913 19.2914 144.803 19.5608C144.7 19.8305 144.503 20.0948 144.213 20.3536L142.485 21.8902C142.445 21.9256 142.399 21.9418 142.346 21.9387C142.301 21.9361 142.261 21.9149 142.225 21.875L141.975 21.5941C141.94 21.5542 141.922 21.5097 141.921 21.4606C141.928 21.4118 141.951 21.3698 141.991 21.3343L143.664 19.8455C143.887 19.647 144.034 19.4592 144.105 19.282C144.176 19.1048 144.189 18.9394 144.146 18.7857C144.102 18.632 144.023 18.4914 143.91 18.3639C143.817 18.2603 143.698 18.1777 143.55 18.1162C143.403 18.0547 143.233 18.0448 143.042 18.0865C142.854 18.1322 142.649 18.2543 142.425 18.4528L140.752 19.9416C140.712 19.977 140.666 19.9932 140.613 19.9901C140.568 19.9875 140.527 19.9662 140.492 19.9264L140.242 19.6455C140.207 19.6056 140.188 19.5611 140.188 19.5119C140.194 19.4632 140.217 19.4211 140.257 19.3857L141.931 17.8969C142.154 17.6984 142.299 17.5086 142.367 17.3274C142.434 17.1462 142.445 16.9788 142.402 16.8251C142.358 16.6714 142.283 16.5348 142.176 16.4153C142.084 16.3117 141.964 16.2291 141.817 16.1676C141.669 16.1061 141.5 16.0962 141.308 16.1379C141.121 16.1836 140.917 16.3039 140.698 16.4989L139.018 17.993C138.979 18.0284 138.932 18.0446 138.88 18.0415C138.834 18.0389 138.794 18.0176 138.759 17.9778L138.503 17.6909ZM142.909 22.6441C142.874 22.6043 142.856 22.5598 142.855 22.5106C142.862 22.4619 142.885 22.4198 142.925 22.3844L145.758 19.8641C145.798 19.8286 145.84 19.8122 145.885 19.8149C145.938 19.8179 145.982 19.8394 146.018 19.8793L146.257 20.1482C146.292 20.1881 146.307 20.2324 146.3 20.2811C146.301 20.3303 146.282 20.3726 146.242 20.408L146.033 20.5941C146.238 20.5759 146.438 20.6046 146.634 20.6803C146.834 20.7524 147.02 20.8861 147.194 21.0813C147.599 21.5281 147.699 22.0099 147.495 22.5269C147.744 22.4697 147.996 22.4844 148.252 22.5711C148.507 22.6578 148.734 22.8128 148.933 23.0359C149.117 23.2432 149.236 23.473 149.289 23.7254C149.346 23.9818 149.319 24.2447 149.209 24.514C149.106 24.7838 148.91 25.0481 148.619 25.3068L146.891 26.8435C146.851 26.8789 146.805 26.8951 146.752 26.892C146.707 26.8894 146.667 26.8681 146.631 26.8283L146.382 26.5474C146.346 26.5075 146.328 26.463 146.327 26.4138C146.334 26.3651 146.357 26.323 146.397 26.2876L148.07 24.7988C148.294 24.6003 148.441 24.4125 148.511 24.2353C148.582 24.0581 148.596 23.8926 148.552 23.739C148.508 23.5853 148.429 23.4447 148.316 23.3172C148.223 23.2136 148.104 23.131 147.956 23.0695C147.809 23.008 147.639 22.9981 147.448 23.0398C147.26 23.0855 147.055 23.2076 146.831 23.4061L145.158 24.8949C145.118 24.9303 145.072 24.9465 145.019 24.9434C144.974 24.9408 144.934 24.9195 144.898 24.8797L144.648 24.5987C144.613 24.5589 144.595 24.5144 144.594 24.4652C144.6 24.4165 144.623 24.3744 144.663 24.339L146.337 22.8502C146.56 22.6517 146.705 22.4618 146.773 22.2807C146.84 22.0995 146.852 21.9321 146.808 21.7784C146.764 21.6247 146.689 21.4881 146.582 21.3686C146.49 21.265 146.37 21.1824 146.223 21.1209C146.075 21.0594 145.906 21.0495 145.715 21.0912C145.527 21.1369 145.323 21.2572 145.104 21.4521L143.424 22.9462C143.385 22.9817 143.338 22.9979 143.286 22.9948C143.24 22.9921 143.2 22.9709 143.165 22.931L142.909 22.6441ZM148.234 28.7504C147.869 28.34 147.704 27.9015 147.739 27.4352C147.778 26.9652 148.005 26.5233 148.423 26.1095C148.471 26.0594 148.535 25.999 148.614 25.9281C148.698 25.8536 148.768 25.7954 148.823 25.7533C149.12 25.5175 149.426 25.3635 149.74 25.2912C150.058 25.2153 150.363 25.2256 150.656 25.3221C150.952 25.4225 151.221 25.6082 151.462 25.8792C151.731 26.1821 151.893 26.4918 151.946 26.8085C152.003 27.1291 151.961 27.4478 151.822 27.7645C151.683 28.0813 151.456 28.3796 151.141 28.6597L151.039 28.7501C150.995 28.7891 150.949 28.8052 150.9 28.7986C150.855 28.796 150.815 28.7747 150.779 28.7349L148.94 26.6667C148.936 26.6703 148.928 26.6773 148.916 26.688C148.904 26.6986 148.894 26.7075 148.886 26.7146C148.73 26.8679 148.608 27.0402 148.521 27.2316C148.439 27.4194 148.406 27.6121 148.425 27.8096C148.444 28.0071 148.528 28.1896 148.676 28.357C148.804 28.5004 148.932 28.6005 149.061 28.6571C149.19 28.7138 149.307 28.7489 149.412 28.7626C149.521 28.7728 149.598 28.7754 149.644 28.7705C149.728 28.7603 149.782 28.7616 149.808 28.7744C149.838 28.7837 149.872 28.8103 149.911 28.8541L150.166 29.141C150.202 29.1809 150.218 29.2234 150.215 29.2686C150.22 29.3142 150.201 29.3527 150.158 29.3842C150.094 29.4334 149.992 29.4671 149.851 29.4853C149.715 29.4999 149.555 29.4887 149.372 29.4516C149.189 29.4144 148.999 29.341 148.801 29.2312C148.607 29.1179 148.418 28.9576 148.234 28.7504ZM149.352 26.2998L150.809 27.9376L150.827 27.9217C151.006 27.7622 151.135 27.5865 151.215 27.3947C151.297 27.2069 151.324 27.0158 151.294 26.8213C151.267 26.6234 151.178 26.4387 151.026 26.2673C150.873 26.096 150.7 25.9858 150.507 25.9367C150.321 25.888 150.129 25.8939 149.933 25.9542C149.737 26.0145 149.549 26.1244 149.37 26.2839L149.352 26.2998ZM149.972 30.5835C149.936 30.5437 149.918 30.4992 149.917 30.45C149.924 30.4013 149.947 30.3592 149.987 30.3237L152.82 27.8035C152.86 27.768 152.903 27.7516 152.948 27.7543C153.001 27.7573 153.045 27.7788 153.08 27.8187L153.33 28.0996C153.365 28.1394 153.38 28.1837 153.373 28.2324C153.374 28.2816 153.355 28.3239 153.315 28.3594L153.052 28.5933C153.279 28.5764 153.504 28.6084 153.726 28.6894C153.956 28.7708 154.18 28.9351 154.4 29.1821C154.63 29.4411 154.768 29.7117 154.812 29.9938C154.863 30.2764 154.828 30.5539 154.706 30.8263C154.588 31.0952 154.396 31.3484 154.129 31.5859L152.443 33.0853C152.404 33.1207 152.359 33.1389 152.31 33.1398C152.265 33.1372 152.224 33.1159 152.189 33.0761L151.923 32.7772C151.888 32.7374 151.87 32.6929 151.869 32.6437C151.875 32.595 151.899 32.5529 151.938 32.5174L153.594 31.0446C153.873 30.7965 154.03 30.5356 154.065 30.2618C154.104 29.9846 154.006 29.7144 153.772 29.4514C153.552 29.2043 153.296 29.076 153.001 29.0664C152.715 29.0572 152.432 29.1766 152.153 29.4248L150.497 30.8976C150.458 30.933 150.411 30.9492 150.359 30.9461C150.313 30.9435 150.273 30.9222 150.238 30.8824L149.972 30.5835ZM153.705 34.9012C153.511 34.682 153.38 34.4591 153.314 34.2323C153.252 34.0021 153.24 33.7766 153.28 33.556C153.327 33.3359 153.413 33.1237 153.538 32.9195C153.667 32.7192 153.823 32.5301 154.008 32.3519C154.068 32.2912 154.126 32.2361 154.182 32.1865C154.237 32.1368 154.299 32.0857 154.366 32.0329C154.561 31.8743 154.765 31.7427 154.979 31.6381C155.196 31.5374 155.417 31.4767 155.641 31.4558C155.869 31.4389 156.091 31.4764 156.309 31.5685C156.53 31.657 156.738 31.8108 156.933 32.03C157.142 32.2651 157.274 32.4976 157.329 32.7274C157.383 32.9573 157.393 33.177 157.358 33.3865L158.733 32.1636C158.773 32.1281 158.815 32.1117 158.861 32.1144C158.913 32.1174 158.957 32.1389 158.993 32.1787L159.248 32.4657C159.284 32.5055 159.298 32.5498 159.291 32.5985C159.292 32.6477 159.273 32.69 159.233 32.7254L155.264 36.256C155.224 36.2914 155.178 36.3076 155.125 36.3045C155.08 36.3019 155.04 36.2806 155.004 36.2408L154.765 35.9718C154.726 35.928 154.708 35.8835 154.71 35.8383C154.717 35.7896 154.74 35.7475 154.78 35.712L155.031 35.4887C154.815 35.5025 154.592 35.4687 154.363 35.3873C154.137 35.3023 153.918 35.1403 153.705 34.9012ZM154.301 34.5961C154.479 34.7953 154.666 34.9139 154.864 34.952C155.062 34.99 155.257 34.9768 155.45 34.9125C155.647 34.8447 155.821 34.7472 155.972 34.62C156.039 34.5673 156.116 34.502 156.204 34.424C156.296 34.3424 156.372 34.2713 156.432 34.2106C156.568 34.0826 156.675 33.9264 156.754 33.7421C156.836 33.5618 156.866 33.3709 156.844 33.1694C156.825 32.9719 156.731 32.7775 156.561 32.5862C156.38 32.383 156.191 32.2624 155.993 32.2243C155.799 32.1828 155.605 32.2017 155.411 32.281C155.222 32.3568 155.04 32.4652 154.865 32.6061C154.746 32.7049 154.631 32.8077 154.519 32.9145C154.358 33.0713 154.228 33.2412 154.126 33.4242C154.029 33.6036 153.987 33.7938 154.002 33.9949C154.021 34.1924 154.121 34.3928 154.301 34.5961ZM156.639 38.1991C156.274 37.7886 156.109 37.3502 156.144 36.8838C156.182 36.4139 156.41 35.972 156.827 35.5582C156.876 35.5081 156.94 35.4476 157.019 35.3767C157.103 35.3023 157.173 35.244 157.228 35.2019C157.525 34.9662 157.831 34.8122 158.145 34.7399C158.463 34.664 158.768 34.6743 159.061 34.7708C159.357 34.8712 159.626 35.0569 159.867 35.3279C160.136 35.6307 160.298 35.9405 160.351 36.2571C160.408 36.5778 160.366 36.8965 160.227 37.2132C160.088 37.5299 159.86 37.8283 159.546 38.1084L159.444 38.1987C159.4 38.2377 159.354 38.2539 159.305 38.2473C159.26 38.2447 159.22 38.2234 159.184 38.1836L157.345 36.1154C157.341 36.1189 157.333 36.126 157.321 36.1367C157.309 36.1473 157.299 36.1562 157.291 36.1632C157.134 36.3165 157.013 36.4889 156.926 36.6802C156.843 36.8681 156.811 37.0607 156.83 37.2583C156.849 37.4558 156.932 37.6383 157.081 37.8056C157.209 37.9491 157.337 38.0491 157.466 38.1058C157.595 38.1624 157.712 38.1976 157.817 38.2113C157.926 38.2214 158.003 38.2241 158.049 38.2192C158.133 38.209 158.187 38.2103 158.213 38.2231C158.243 38.2324 158.277 38.259 158.316 38.3028L158.571 38.5897C158.607 38.6296 158.623 38.6721 158.62 38.7172C158.625 38.7629 158.606 38.8014 158.563 38.8329C158.499 38.8821 158.397 38.9157 158.256 38.934C158.12 38.9486 157.96 38.9374 157.777 38.9002C157.594 38.8631 157.403 38.7897 157.206 38.6799C157.012 38.5666 156.823 38.4063 156.639 38.1991ZM157.757 35.7485L159.214 37.3863L159.232 37.3704C159.411 37.2108 159.54 37.0352 159.62 36.8434C159.702 36.6556 159.729 36.4644 159.698 36.27C159.672 36.072 159.583 35.8874 159.43 35.716C159.278 35.5447 159.105 35.4344 158.911 35.3854C158.725 35.3367 158.534 35.3425 158.338 35.4028C158.142 35.4631 157.954 35.573 157.775 35.7326L157.757 35.7485ZM159.205 41.0836C159.01 40.8644 158.879 40.6415 158.813 40.4147C158.751 40.1844 158.74 39.959 158.779 39.7384C158.826 39.5183 158.912 39.3061 159.037 39.1019C159.166 38.9016 159.323 38.7124 159.507 38.5343C159.567 38.4736 159.625 38.4185 159.681 38.3688C159.737 38.3192 159.798 38.268 159.866 38.2153C160.06 38.0567 160.264 37.925 160.478 37.8204C160.695 37.7198 160.916 37.6591 161.14 37.6382C161.368 37.6213 161.591 37.6588 161.808 37.7509C162.029 37.8394 162.238 37.9932 162.433 38.2124C162.642 38.4475 162.774 38.68 162.828 38.9098C162.883 39.1397 162.893 39.3593 162.858 39.5689L164.232 38.3459C164.272 38.3105 164.315 38.2941 164.36 38.2967C164.413 38.2998 164.457 38.3213 164.492 38.3611L164.747 38.648C164.783 38.6879 164.797 38.7322 164.791 38.7809C164.792 38.8301 164.772 38.8724 164.732 38.9078L160.763 42.4383C160.723 42.4738 160.677 42.49 160.624 42.4869C160.579 42.4842 160.539 42.463 160.504 42.4231L160.264 42.1542C160.225 42.1103 160.207 42.0658 160.21 42.0206C160.216 41.9719 160.24 41.9298 160.279 41.8944L160.531 41.6711C160.314 41.6849 160.092 41.6511 159.862 41.5697C159.637 41.4847 159.418 41.3227 159.205 41.0836ZM159.801 40.7784C159.978 40.9777 160.166 41.0963 160.364 41.1343C160.562 41.1723 160.757 41.1592 160.95 41.0949C161.146 41.0271 161.32 40.9296 161.471 40.8024C161.538 40.7497 161.616 40.6843 161.703 40.6063C161.795 40.5248 161.871 40.4537 161.931 40.393C162.067 40.2649 162.174 40.1088 162.253 39.9245C162.336 39.7442 162.366 39.5533 162.343 39.3518C162.325 39.1543 162.23 38.9599 162.06 38.7686C161.879 38.5654 161.69 38.4447 161.492 38.4067C161.298 38.3651 161.104 38.384 160.911 38.4634C160.721 38.5392 160.539 38.6476 160.365 38.7885C160.246 38.8873 160.13 38.9901 160.018 39.0968C159.858 39.2537 159.727 39.4236 159.626 39.6066C159.528 39.786 159.487 39.9762 159.502 40.1773C159.52 40.3748 159.62 40.5752 159.801 40.7784Z" fill="white"/>
</g>
<rect x="0.5" y="0.5" width="166" height="164" rx="9.5" stroke="#FFF6DE"/>
<defs>
<clipPath id="clip0_76_11596">
<rect width="167" height="165" rx="10" fill="white"/>
</clipPath>
</defs>
</svg>
