<svg width="14" height="14" viewBox="0 0 14 14" fill="none" xmlns="http://www.w3.org/2000/svg">
<g clip-path="url(#clip0_76_11624)">
<path d="M4.80816 4.28166L1.08649 4.82124L1.02057 4.83466C0.920789 4.86115 0.829822 4.91364 0.756962 4.98679C0.684102 5.05994 0.63196 5.15111 0.605861 5.251C0.579762 5.35088 0.580641 5.45591 0.608407 5.55535C0.636174 5.65479 0.689834 5.74507 0.763908 5.81699L3.46007 8.44141L2.82424 12.1485L2.81666 12.2127C2.81055 12.3159 2.83198 12.4188 2.87875 12.511C2.92553 12.6032 2.99597 12.6813 3.08285 12.7374C3.16974 12.7934 3.26996 12.8253 3.37324 12.8299C3.47653 12.8344 3.57917 12.8115 3.67066 12.7633L6.99916 11.0133L10.3201 12.7633L10.3784 12.7902C10.4747 12.8281 10.5793 12.8397 10.6816 12.8238C10.7839 12.808 10.8801 12.7652 10.9603 12.6999C11.0406 12.6346 11.1021 12.5491 11.1384 12.4522C11.1747 12.3553 11.1846 12.2505 11.1671 12.1485L10.5307 8.44141L13.228 5.81641L13.2735 5.76682C13.3385 5.68677 13.3811 5.59092 13.397 5.48904C13.4129 5.38715 13.4015 5.28288 13.364 5.18683C13.3264 5.09079 13.2641 5.00641 13.1834 4.94229C13.1026 4.87817 13.0063 4.8366 12.9042 4.82182L9.18257 4.28166L7.51891 0.909989C7.47077 0.812301 7.39624 0.73004 7.30377 0.672517C7.21129 0.614994 7.10456 0.584507 6.99566 0.584507C6.88675 0.584507 6.78002 0.614994 6.68755 0.672517C6.59507 0.73004 6.52055 0.812301 6.47241 0.909989L4.80816 4.28166Z" fill="#EEAD05"/>
</g>
<defs>
<clipPath id="clip0_76_11624">
<rect width="14" height="14" fill="white"/>
</clipPath>
</defs>
</svg>
