<svg width="167" height="165" viewBox="0 0 167 165" fill="none" xmlns="http://www.w3.org/2000/svg">
<rect x="0.5" y="0.5" width="166" height="164" rx="9.5" fill="#FFFFF9"/>
<path d="M62.136 33.16C61.144 33.16 60.312 33.016 59.64 32.728C58.9787 32.4293 58.472 32.0453 58.12 31.576C57.7787 31.096 57.5973 30.5947 57.576 30.072C57.576 29.976 57.608 29.896 57.672 29.832C57.736 29.768 57.816 29.736 57.912 29.736H59.336C59.4747 29.736 59.576 29.768 59.64 29.832C59.7147 29.8853 59.7787 29.9547 59.832 30.04C59.896 30.2427 60.0187 30.4453 60.2 30.648C60.3813 30.84 60.6267 31 60.936 31.128C61.256 31.256 61.656 31.32 62.136 31.32C62.904 31.32 63.4747 31.192 63.848 30.936C64.232 30.68 64.424 30.3333 64.424 29.896C64.424 29.5867 64.3227 29.3413 64.12 29.16C63.9173 28.968 63.6027 28.7973 63.176 28.648C62.76 28.488 62.2053 28.3227 61.512 28.152C60.712 27.96 60.04 27.7307 59.496 27.464C58.9627 27.1867 58.5573 26.84 58.28 26.424C58.0133 26.008 57.88 25.48 57.88 24.84C57.88 24.2213 58.0453 23.672 58.376 23.192C58.7173 22.712 59.1973 22.3333 59.816 22.056C60.4453 21.7787 61.192 21.64 62.056 21.64C62.7493 21.64 63.3627 21.736 63.896 21.928C64.4293 22.1093 64.872 22.3547 65.224 22.664C65.576 22.9627 65.8427 23.288 66.024 23.64C66.216 23.9813 66.3173 24.3173 66.328 24.648C66.328 24.7333 66.296 24.8133 66.232 24.888C66.1787 24.952 66.0987 24.984 65.992 24.984H64.504C64.4187 24.984 64.3333 24.9627 64.248 24.92C64.1627 24.8773 64.0933 24.7973 64.04 24.68C63.976 24.3493 63.768 24.0667 63.416 23.832C63.064 23.5973 62.6107 23.48 62.056 23.48C61.48 23.48 61.016 23.5867 60.664 23.8C60.312 24.0133 60.136 24.344 60.136 24.792C60.136 25.0907 60.2213 25.3413 60.392 25.544C60.5733 25.736 60.856 25.9067 61.24 26.056C61.6347 26.2053 62.152 26.3653 62.792 26.536C63.6987 26.7387 64.44 26.9733 65.016 27.24C65.592 27.5067 66.0133 27.848 66.28 28.264C66.5467 28.6693 66.68 29.1867 66.68 29.816C66.68 30.52 66.488 31.1227 66.104 31.624C65.7307 32.1147 65.2027 32.4933 64.52 32.76C63.8373 33.0267 63.0427 33.16 62.136 33.16ZM71.7616 33C71.1216 33 70.583 32.888 70.1456 32.664C69.7083 32.44 69.383 32.1093 69.1696 31.672C68.9563 31.224 68.8496 30.6693 68.8496 30.008V26.376H67.5856C67.479 26.376 67.3883 26.3387 67.3136 26.264C67.239 26.1893 67.2016 26.0987 67.2016 25.992V25.064C67.2016 24.9573 67.239 24.8667 67.3136 24.792C67.3883 24.7173 67.479 24.68 67.5856 24.68H68.8496V22.024C68.8496 21.9173 68.8816 21.8267 68.9456 21.752C69.0203 21.6773 69.1163 21.64 69.2336 21.64H70.5296C70.6363 21.64 70.727 21.6773 70.8016 21.752C70.8763 21.8267 70.9136 21.9173 70.9136 22.024V24.68H72.9136C73.0203 24.68 73.111 24.7173 73.1856 24.792C73.2603 24.8667 73.2976 24.9573 73.2976 25.064V25.992C73.2976 26.0987 73.2603 26.1893 73.1856 26.264C73.111 26.3387 73.0203 26.376 72.9136 26.376H70.9136V29.848C70.9136 30.2853 70.9883 30.6267 71.1376 30.872C71.2976 31.1173 71.5696 31.24 71.9536 31.24H73.0576C73.1643 31.24 73.255 31.2773 73.3296 31.352C73.4043 31.4267 73.4416 31.5173 73.4416 31.624V32.616C73.4416 32.7227 73.4043 32.8133 73.3296 32.888C73.255 32.9627 73.1643 33 73.0576 33H71.7616ZM76.957 33.16C76.4023 33.16 75.901 33.0533 75.453 32.84C75.005 32.616 74.6477 32.3227 74.381 31.96C74.125 31.5867 73.997 31.1707 73.997 30.712C73.997 29.9653 74.2957 29.3733 74.893 28.936C75.501 28.488 76.301 28.1893 77.293 28.04L79.485 27.72V27.384C79.485 26.936 79.373 26.5893 79.149 26.344C78.925 26.0987 78.541 25.976 77.997 25.976C77.613 25.976 77.2983 26.056 77.053 26.216C76.8183 26.3653 76.6423 26.568 76.525 26.824C76.4397 26.9627 76.317 27.032 76.157 27.032H74.893C74.7757 27.032 74.685 27 74.621 26.936C74.5677 26.872 74.541 26.7867 74.541 26.68C74.5517 26.5093 74.621 26.3013 74.749 26.056C74.877 25.8107 75.0797 25.576 75.357 25.352C75.6343 25.1173 75.9917 24.92 76.429 24.76C76.8663 24.6 77.3943 24.52 78.013 24.52C78.685 24.52 79.2503 24.6053 79.709 24.776C80.1783 24.936 80.5517 25.1547 80.829 25.432C81.1063 25.7093 81.309 26.0347 81.437 26.408C81.565 26.7813 81.629 27.176 81.629 27.592V32.616C81.629 32.7227 81.5917 32.8133 81.517 32.888C81.4423 32.9627 81.3517 33 81.245 33H79.949C79.8317 33 79.7357 32.9627 79.661 32.888C79.597 32.8133 79.565 32.7227 79.565 32.616V31.992C79.4263 32.1947 79.2397 32.3867 79.005 32.568C78.7703 32.7387 78.4823 32.8827 78.141 33C77.8103 33.1067 77.4157 33.16 76.957 33.16ZM77.501 31.64C77.8743 31.64 78.2103 31.56 78.509 31.4C78.8183 31.24 79.0583 30.9947 79.229 30.664C79.4103 30.3227 79.501 29.896 79.501 29.384V29.048L77.901 29.304C77.2717 29.4 76.8023 29.5547 76.493 29.768C76.1837 29.9813 76.029 30.2427 76.029 30.552C76.029 30.7867 76.0983 30.9893 76.237 31.16C76.3863 31.32 76.573 31.4427 76.797 31.528C77.021 31.6027 77.2557 31.64 77.501 31.64ZM83.7456 33C83.639 33 83.5483 32.9627 83.4736 32.888C83.399 32.8133 83.3616 32.7227 83.3616 32.616V25.08C83.3616 24.9627 83.399 24.8667 83.4736 24.792C83.5483 24.7173 83.639 24.68 83.7456 24.68H85.0416C85.1483 24.68 85.239 24.7173 85.3136 24.792C85.399 24.8667 85.4416 24.9627 85.4416 25.08V25.736C85.687 25.3947 86.0016 25.1333 86.3856 24.952C86.7803 24.7707 87.2336 24.68 87.7456 24.68H88.4016C88.519 24.68 88.6096 24.7173 88.6736 24.792C88.7483 24.8667 88.7856 24.9573 88.7856 25.064V26.216C88.7856 26.3227 88.7483 26.4133 88.6736 26.488C88.6096 26.5627 88.519 26.6 88.4016 26.6H87.1536C86.6416 26.6 86.2416 26.744 85.9536 27.032C85.6763 27.32 85.5376 27.7147 85.5376 28.216V32.616C85.5376 32.7227 85.5003 32.8133 85.4256 32.888C85.351 32.9627 85.255 33 85.1376 33H83.7456ZM93.4735 33C92.8335 33 92.2948 32.888 91.8575 32.664C91.4202 32.44 91.0948 32.1093 90.8815 31.672C90.6682 31.224 90.5615 30.6693 90.5615 30.008V26.376H89.2975C89.1908 26.376 89.1002 26.3387 89.0255 26.264C88.9508 26.1893 88.9135 26.0987 88.9135 25.992V25.064C88.9135 24.9573 88.9508 24.8667 89.0255 24.792C89.1002 24.7173 89.1908 24.68 89.2975 24.68H90.5615V22.024C90.5615 21.9173 90.5935 21.8267 90.6575 21.752C90.7322 21.6773 90.8282 21.64 90.9455 21.64H92.2415C92.3482 21.64 92.4388 21.6773 92.5135 21.752C92.5882 21.8267 92.6255 21.9173 92.6255 22.024V24.68H94.6255C94.7322 24.68 94.8228 24.7173 94.8975 24.792C94.9722 24.8667 95.0095 24.9573 95.0095 25.064V25.992C95.0095 26.0987 94.9722 26.1893 94.8975 26.264C94.8228 26.3387 94.7322 26.376 94.6255 26.376H92.6255V29.848C92.6255 30.2853 92.7002 30.6267 92.8495 30.872C93.0095 31.1173 93.2815 31.24 93.6655 31.24H94.7695C94.8762 31.24 94.9668 31.2773 95.0415 31.352C95.1162 31.4267 95.1535 31.5173 95.1535 31.624V32.616C95.1535 32.7227 95.1162 32.8133 95.0415 32.888C94.9668 32.9627 94.8762 33 94.7695 33H93.4735ZM99.8369 33.16C98.6529 33.16 97.7142 32.8187 97.0209 32.136C96.3275 31.4533 95.9542 30.4827 95.9009 29.224C95.8902 29.1173 95.8849 28.984 95.8849 28.824C95.8849 28.6533 95.8902 28.52 95.9009 28.424C95.9435 27.624 96.1249 26.9307 96.4449 26.344C96.7755 25.7573 97.2289 25.3093 97.8049 25C98.3809 24.68 99.0582 24.52 99.8369 24.52C100.701 24.52 101.426 24.7013 102.013 25.064C102.6 25.416 103.042 25.912 103.341 26.552C103.64 27.1813 103.789 27.912 103.789 28.744V29.08C103.789 29.1867 103.752 29.2773 103.677 29.352C103.602 29.4267 103.506 29.464 103.389 29.464H98.0769C98.0769 29.464 98.0769 29.48 98.0769 29.512C98.0769 29.544 98.0769 29.5707 98.0769 29.592C98.0875 29.9653 98.1569 30.312 98.2849 30.632C98.4235 30.9413 98.6209 31.192 98.8769 31.384C99.1435 31.576 99.4582 31.672 99.8209 31.672C100.12 31.672 100.37 31.6293 100.573 31.544C100.776 31.448 100.941 31.3413 101.069 31.224C101.197 31.1067 101.288 31.0107 101.341 30.936C101.437 30.808 101.512 30.7333 101.565 30.712C101.629 30.68 101.72 30.664 101.837 30.664H103.213C103.32 30.664 103.405 30.696 103.469 30.76C103.544 30.824 103.576 30.904 103.565 31C103.554 31.1707 103.464 31.3787 103.293 31.624C103.133 31.8693 102.898 32.1093 102.589 32.344C102.28 32.5787 101.89 32.776 101.421 32.936C100.962 33.0853 100.434 33.16 99.8369 33.16ZM98.0769 28.12H101.613V28.072C101.613 27.656 101.544 27.2933 101.405 26.984C101.266 26.6747 101.064 26.4293 100.797 26.248C100.53 26.0667 100.21 25.976 99.8369 25.976C99.4635 25.976 99.1435 26.0667 98.8769 26.248C98.6102 26.4293 98.4075 26.6747 98.2689 26.984C98.1409 27.2933 98.0769 27.656 98.0769 28.072V28.12ZM105.551 33C105.445 33 105.354 32.9627 105.279 32.888C105.205 32.8133 105.167 32.7227 105.167 32.616V25.08C105.167 24.9627 105.205 24.8667 105.279 24.792C105.354 24.7173 105.445 24.68 105.551 24.68H106.847C106.954 24.68 107.045 24.7173 107.119 24.792C107.205 24.8667 107.247 24.9627 107.247 25.08V25.736C107.493 25.3947 107.807 25.1333 108.191 24.952C108.586 24.7707 109.039 24.68 109.551 24.68H110.207C110.325 24.68 110.415 24.7173 110.479 24.792C110.554 24.8667 110.591 24.9573 110.591 25.064V26.216C110.591 26.3227 110.554 26.4133 110.479 26.488C110.415 26.5627 110.325 26.6 110.207 26.6H108.959C108.447 26.6 108.047 26.744 107.759 27.032C107.482 27.32 107.343 27.7147 107.343 28.216V32.616C107.343 32.7227 107.306 32.8133 107.231 32.888C107.157 32.9627 107.061 33 106.943 33H105.551Z" fill="#EEAD05"/>
<path d="M35.32 52C35.232 52 35.164 51.976 35.116 51.928C35.068 51.872 35.044 51.804 35.044 51.724V43.888C35.044 43.8 35.068 43.732 35.116 43.684C35.164 43.628 35.232 43.6 35.32 43.6H38.248C39.152 43.6 39.868 43.812 40.396 44.236C40.924 44.66 41.188 45.288 41.188 46.12C41.188 46.736 41.032 47.24 40.72 47.632C40.416 48.016 40 48.284 39.472 48.436L41.32 51.628C41.344 51.676 41.356 51.72 41.356 51.76C41.356 51.824 41.328 51.88 41.272 51.928C41.224 51.976 41.168 52 41.104 52H40.528C40.392 52 40.292 51.964 40.228 51.892C40.164 51.82 40.108 51.748 40.06 51.676L38.32 48.628H36.22V51.724C36.22 51.804 36.192 51.872 36.136 51.928C36.088 51.976 36.02 52 35.932 52H35.32ZM36.22 47.608H38.2C38.8 47.608 39.248 47.484 39.544 47.236C39.84 46.98 39.988 46.604 39.988 46.108C39.988 45.62 39.84 45.248 39.544 44.992C39.256 44.736 38.808 44.608 38.2 44.608H36.22V47.608ZM45.045 52.12C44.221 52.12 43.565 51.868 43.077 51.364C42.589 50.852 42.321 50.156 42.273 49.276C42.265 49.172 42.261 49.04 42.261 48.88C42.261 48.712 42.265 48.576 42.273 48.472C42.305 47.904 42.437 47.408 42.669 46.984C42.901 46.552 43.217 46.22 43.617 45.988C44.025 45.756 44.501 45.64 45.045 45.64C45.653 45.64 46.161 45.768 46.569 46.024C46.985 46.28 47.301 46.644 47.517 47.116C47.733 47.588 47.841 48.14 47.841 48.772V48.976C47.841 49.064 47.813 49.132 47.757 49.18C47.709 49.228 47.645 49.252 47.565 49.252H43.413C43.413 49.26 43.413 49.276 43.413 49.3C43.413 49.324 43.413 49.344 43.413 49.36C43.429 49.688 43.501 49.996 43.629 50.284C43.757 50.564 43.941 50.792 44.181 50.968C44.421 51.144 44.709 51.232 45.045 51.232C45.333 51.232 45.573 51.188 45.765 51.1C45.957 51.012 46.113 50.916 46.233 50.812C46.353 50.7 46.433 50.616 46.473 50.56C46.545 50.456 46.601 50.396 46.641 50.38C46.681 50.356 46.745 50.344 46.833 50.344H47.409C47.489 50.344 47.553 50.368 47.601 50.416C47.657 50.456 47.681 50.516 47.673 50.596C47.665 50.716 47.601 50.864 47.481 51.04C47.361 51.208 47.189 51.376 46.965 51.544C46.741 51.712 46.469 51.852 46.149 51.964C45.829 52.068 45.461 52.12 45.045 52.12ZM43.413 48.424H46.701V48.388C46.701 48.028 46.633 47.708 46.497 47.428C46.369 47.148 46.181 46.928 45.933 46.768C45.685 46.6 45.389 46.516 45.045 46.516C44.701 46.516 44.405 46.6 44.157 46.768C43.917 46.928 43.733 47.148 43.605 47.428C43.477 47.708 43.413 48.028 43.413 48.388V48.424ZM49.4318 52C49.3518 52 49.2838 51.976 49.2278 51.928C49.1798 51.872 49.1558 51.804 49.1558 51.724V46.036C49.1558 45.956 49.1798 45.892 49.2278 45.844C49.2838 45.788 49.3518 45.76 49.4318 45.76H49.9958C50.0758 45.76 50.1398 45.788 50.1878 45.844C50.2438 45.892 50.2718 45.956 50.2718 46.036V46.564C50.4798 46.292 50.7398 46.072 51.0518 45.904C51.3718 45.728 51.7798 45.64 52.2758 45.64C52.7958 45.64 53.2358 45.756 53.5958 45.988C53.9638 46.212 54.2398 46.528 54.4238 46.936C54.6078 47.336 54.6998 47.804 54.6998 48.34V51.724C54.6998 51.804 54.6758 51.872 54.6278 51.928C54.5798 51.976 54.5158 52 54.4358 52H53.8358C53.7558 52 53.6878 51.976 53.6318 51.928C53.5838 51.872 53.5598 51.804 53.5598 51.724V48.4C53.5598 47.84 53.4238 47.404 53.1518 47.092C52.8798 46.772 52.4798 46.612 51.9518 46.612C51.4558 46.612 51.0558 46.772 50.7518 47.092C50.4558 47.404 50.3078 47.84 50.3078 48.4V51.724C50.3078 51.804 50.2798 51.872 50.2238 51.928C50.1758 51.976 50.1118 52 50.0318 52H49.4318ZM58.7972 52.12C57.9732 52.12 57.3172 51.868 56.8292 51.364C56.3412 50.852 56.0732 50.156 56.0252 49.276C56.0172 49.172 56.0132 49.04 56.0132 48.88C56.0132 48.712 56.0172 48.576 56.0252 48.472C56.0572 47.904 56.1892 47.408 56.4212 46.984C56.6532 46.552 56.9692 46.22 57.3692 45.988C57.7772 45.756 58.2532 45.64 58.7972 45.64C59.4052 45.64 59.9132 45.768 60.3212 46.024C60.7372 46.28 61.0532 46.644 61.2692 47.116C61.4852 47.588 61.5932 48.14 61.5932 48.772V48.976C61.5932 49.064 61.5652 49.132 61.5092 49.18C61.4612 49.228 61.3972 49.252 61.3172 49.252H57.1652C57.1652 49.26 57.1652 49.276 57.1652 49.3C57.1652 49.324 57.1652 49.344 57.1652 49.36C57.1812 49.688 57.2532 49.996 57.3812 50.284C57.5092 50.564 57.6932 50.792 57.9332 50.968C58.1732 51.144 58.4612 51.232 58.7972 51.232C59.0852 51.232 59.3252 51.188 59.5172 51.1C59.7092 51.012 59.8652 50.916 59.9852 50.812C60.1052 50.7 60.1852 50.616 60.2252 50.56C60.2972 50.456 60.3532 50.396 60.3932 50.38C60.4332 50.356 60.4972 50.344 60.5852 50.344H61.1612C61.2412 50.344 61.3052 50.368 61.3532 50.416C61.4092 50.456 61.4332 50.516 61.4252 50.596C61.4172 50.716 61.3532 50.864 61.2332 51.04C61.1132 51.208 60.9412 51.376 60.7172 51.544C60.4932 51.712 60.2212 51.852 59.9012 51.964C59.5812 52.068 59.2132 52.12 58.7972 52.12ZM57.1652 48.424H60.4532V48.388C60.4532 48.028 60.3852 47.708 60.2492 47.428C60.1212 47.148 59.9332 46.928 59.6852 46.768C59.4372 46.6 59.1412 46.516 58.7972 46.516C58.4532 46.516 58.1572 46.6 57.9092 46.768C57.6692 46.928 57.4852 47.148 57.3572 47.428C57.2292 47.708 57.1652 48.028 57.1652 48.388V48.424ZM64.3999 52C64.2959 52 64.2159 51.976 64.1599 51.928C64.1039 51.872 64.0559 51.796 64.0159 51.7L62.3119 46.132C62.2959 46.092 62.2879 46.052 62.2879 46.012C62.2879 45.94 62.3119 45.88 62.3599 45.832C62.4159 45.784 62.4759 45.76 62.5399 45.76H63.0679C63.1559 45.76 63.2239 45.784 63.2719 45.832C63.3199 45.88 63.3519 45.924 63.3679 45.964L64.6999 50.488L66.1279 46.012C66.1439 45.956 66.1759 45.9 66.2239 45.844C66.2799 45.788 66.3599 45.76 66.4639 45.76H66.8719C66.9759 45.76 67.0559 45.788 67.1119 45.844C67.1679 45.9 67.1999 45.956 67.2079 46.012L68.6359 50.488L69.9679 45.964C69.9759 45.924 70.0039 45.88 70.0519 45.832C70.0999 45.784 70.1679 45.76 70.2559 45.76H70.7839C70.8559 45.76 70.9159 45.784 70.9639 45.832C71.0119 45.88 71.0359 45.94 71.0359 46.012C71.0359 46.052 71.0279 46.092 71.0119 46.132L69.3079 51.7C69.2839 51.796 69.2399 51.872 69.1759 51.928C69.1199 51.976 69.0359 52 68.9239 52H68.4559C68.3519 52 68.2639 51.976 68.1919 51.928C68.1279 51.872 68.0839 51.796 68.0599 51.7L66.6679 47.404L65.2759 51.7C65.2439 51.796 65.1959 51.872 65.1319 51.928C65.0679 51.976 64.9799 52 64.8679 52H64.3999ZM74.565 52.12C73.741 52.12 73.085 51.868 72.597 51.364C72.109 50.852 71.841 50.156 71.793 49.276C71.785 49.172 71.781 49.04 71.781 48.88C71.781 48.712 71.785 48.576 71.793 48.472C71.825 47.904 71.957 47.408 72.189 46.984C72.421 46.552 72.737 46.22 73.137 45.988C73.545 45.756 74.021 45.64 74.565 45.64C75.173 45.64 75.681 45.768 76.089 46.024C76.505 46.28 76.821 46.644 77.037 47.116C77.253 47.588 77.361 48.14 77.361 48.772V48.976C77.361 49.064 77.333 49.132 77.277 49.18C77.229 49.228 77.165 49.252 77.085 49.252H72.933C72.933 49.26 72.933 49.276 72.933 49.3C72.933 49.324 72.933 49.344 72.933 49.36C72.949 49.688 73.021 49.996 73.149 50.284C73.277 50.564 73.461 50.792 73.701 50.968C73.941 51.144 74.229 51.232 74.565 51.232C74.853 51.232 75.093 51.188 75.285 51.1C75.477 51.012 75.633 50.916 75.753 50.812C75.873 50.7 75.953 50.616 75.993 50.56C76.065 50.456 76.121 50.396 76.161 50.38C76.201 50.356 76.265 50.344 76.353 50.344H76.929C77.009 50.344 77.073 50.368 77.121 50.416C77.177 50.456 77.201 50.516 77.193 50.596C77.185 50.716 77.121 50.864 77.001 51.04C76.881 51.208 76.709 51.376 76.485 51.544C76.261 51.712 75.989 51.852 75.669 51.964C75.349 52.068 74.981 52.12 74.565 52.12ZM72.933 48.424H76.221V48.388C76.221 48.028 76.153 47.708 76.017 47.428C75.889 47.148 75.701 46.928 75.453 46.768C75.205 46.6 74.909 46.516 74.565 46.516C74.221 46.516 73.925 46.6 73.677 46.768C73.437 46.928 73.253 47.148 73.125 47.428C72.997 47.708 72.933 48.028 72.933 48.388V48.424ZM80.9558 52.12C80.5158 52.12 80.1358 52.044 79.8158 51.892C79.4958 51.732 79.2318 51.52 79.0238 51.256C78.8238 50.984 78.6718 50.676 78.5678 50.332C78.4718 49.988 78.4158 49.624 78.3998 49.24C78.3918 49.112 78.3878 48.992 78.3878 48.88C78.3878 48.768 78.3918 48.648 78.3998 48.52C78.4158 48.144 78.4718 47.784 78.5678 47.44C78.6718 47.096 78.8238 46.788 79.0238 46.516C79.2318 46.244 79.4958 46.032 79.8158 45.88C80.1358 45.72 80.5158 45.64 80.9558 45.64C81.4278 45.64 81.8198 45.724 82.1318 45.892C82.4438 46.06 82.6998 46.268 82.8998 46.516V43.756C82.8998 43.676 82.9238 43.612 82.9718 43.564C83.0278 43.508 83.0958 43.48 83.1758 43.48H83.7518C83.8318 43.48 83.8958 43.508 83.9438 43.564C83.9998 43.612 84.0278 43.676 84.0278 43.756V51.724C84.0278 51.804 83.9998 51.872 83.9438 51.928C83.8958 51.976 83.8318 52 83.7518 52H83.2118C83.1238 52 83.0558 51.976 83.0078 51.928C82.9598 51.872 82.9358 51.804 82.9358 51.724V51.22C82.7358 51.476 82.4758 51.692 82.1558 51.868C81.8358 52.036 81.4358 52.12 80.9558 52.12ZM81.2078 51.148C81.6078 51.148 81.9278 51.056 82.1678 50.872C82.4078 50.688 82.5878 50.456 82.7078 50.176C82.8278 49.888 82.8918 49.596 82.8998 49.3C82.9078 49.172 82.9118 49.02 82.9118 48.844C82.9118 48.66 82.9078 48.504 82.8998 48.376C82.8918 48.096 82.8238 47.82 82.6958 47.548C82.5758 47.276 82.3918 47.052 82.1438 46.876C81.9038 46.7 81.5918 46.612 81.2078 46.612C80.7998 46.612 80.4758 46.704 80.2358 46.888C79.9958 47.064 79.8238 47.3 79.7198 47.596C79.6158 47.884 79.5558 48.196 79.5398 48.532C79.5318 48.764 79.5318 48.996 79.5398 49.228C79.5558 49.564 79.6158 49.88 79.7198 50.176C79.8238 50.464 79.9958 50.7 80.2358 50.884C80.4758 51.06 80.7998 51.148 81.2078 51.148ZM88.7899 52C88.7099 52 88.6419 51.976 88.5859 51.928C88.5379 51.872 88.5139 51.804 88.5139 51.724V46.036C88.5139 45.956 88.5379 45.892 88.5859 45.844C88.6419 45.788 88.7099 45.76 88.7899 45.76H89.3299C89.4099 45.76 89.4739 45.788 89.5219 45.844C89.5779 45.892 89.6059 45.956 89.6059 46.036V46.456C89.7899 46.208 90.0219 46.012 90.3019 45.868C90.5819 45.716 90.9179 45.64 91.3099 45.64C92.2139 45.632 92.8539 46 93.2299 46.744C93.4139 46.408 93.6819 46.14 94.0339 45.94C94.3859 45.74 94.7859 45.64 95.2339 45.64C95.6499 45.64 96.0259 45.736 96.3619 45.928C96.7059 46.12 96.9739 46.412 97.1659 46.804C97.3659 47.188 97.4659 47.672 97.4659 48.256V51.724C97.4659 51.804 97.4379 51.872 97.3819 51.928C97.3339 51.976 97.2699 52 97.1899 52H96.6259C96.5459 52 96.4779 51.976 96.4219 51.928C96.3739 51.872 96.3499 51.804 96.3499 51.724V48.364C96.3499 47.916 96.2859 47.564 96.1579 47.308C96.0299 47.052 95.8579 46.872 95.6419 46.768C95.4259 46.664 95.1899 46.612 94.9339 46.612C94.7259 46.612 94.5139 46.664 94.2979 46.768C94.0819 46.872 93.9019 47.052 93.7579 47.308C93.6219 47.564 93.5539 47.916 93.5539 48.364V51.724C93.5539 51.804 93.5259 51.872 93.4699 51.928C93.4219 51.976 93.3579 52 93.2779 52H92.7139C92.6339 52 92.5659 51.976 92.5099 51.928C92.4619 51.872 92.4379 51.804 92.4379 51.724V48.364C92.4379 47.916 92.3699 47.564 92.2339 47.308C92.0979 47.052 91.9219 46.872 91.7059 46.768C91.4899 46.664 91.2619 46.612 91.0219 46.612C90.8139 46.612 90.6019 46.664 90.3859 46.768C90.1699 46.872 89.9899 47.052 89.8459 47.308C89.7099 47.564 89.6419 47.912 89.6419 48.352V51.724C89.6419 51.804 89.6139 51.872 89.5579 51.928C89.5099 51.976 89.4459 52 89.3659 52H88.7899ZM101.614 52.12C101.006 52.12 100.498 52.004 100.09 51.772C99.682 51.54 99.37 51.22 99.154 50.812C98.938 50.396 98.818 49.924 98.794 49.396C98.786 49.26 98.782 49.088 98.782 48.88C98.782 48.664 98.786 48.492 98.794 48.364C98.818 47.828 98.938 47.356 99.154 46.948C99.378 46.54 99.694 46.22 100.102 45.988C100.51 45.756 101.014 45.64 101.614 45.64C102.214 45.64 102.718 45.756 103.126 45.988C103.534 46.22 103.846 46.54 104.062 46.948C104.286 47.356 104.41 47.828 104.434 48.364C104.442 48.492 104.446 48.664 104.446 48.88C104.446 49.088 104.442 49.26 104.434 49.396C104.41 49.924 104.29 50.396 104.074 50.812C103.858 51.22 103.546 51.54 103.138 51.772C102.73 52.004 102.222 52.12 101.614 52.12ZM101.614 51.196C102.11 51.196 102.506 51.04 102.802 50.728C103.098 50.408 103.258 49.944 103.282 49.336C103.29 49.216 103.294 49.064 103.294 48.88C103.294 48.696 103.29 48.544 103.282 48.424C103.258 47.816 103.098 47.356 102.802 47.044C102.506 46.724 102.11 46.564 101.614 46.564C101.118 46.564 100.718 46.724 100.414 47.044C100.118 47.356 99.962 47.816 99.946 48.424C99.938 48.544 99.934 48.696 99.934 48.88C99.934 49.064 99.938 49.216 99.946 49.336C99.962 49.944 100.118 50.408 100.414 50.728C100.718 51.04 101.118 51.196 101.614 51.196ZM106.105 52C106.025 52 105.957 51.976 105.901 51.928C105.853 51.872 105.829 51.804 105.829 51.724V46.036C105.829 45.956 105.853 45.892 105.901 45.844C105.957 45.788 106.025 45.76 106.105 45.76H106.669C106.749 45.76 106.813 45.788 106.861 45.844C106.917 45.892 106.945 45.956 106.945 46.036V46.564C107.153 46.292 107.413 46.072 107.725 45.904C108.045 45.728 108.453 45.64 108.949 45.64C109.469 45.64 109.909 45.756 110.269 45.988C110.637 46.212 110.913 46.528 111.097 46.936C111.281 47.336 111.373 47.804 111.373 48.34V51.724C111.373 51.804 111.349 51.872 111.301 51.928C111.253 51.976 111.189 52 111.109 52H110.509C110.429 52 110.361 51.976 110.305 51.928C110.257 51.872 110.233 51.804 110.233 51.724V48.4C110.233 47.84 110.097 47.404 109.825 47.092C109.553 46.772 109.153 46.612 108.625 46.612C108.129 46.612 107.729 46.772 107.425 47.092C107.129 47.404 106.981 47.84 106.981 48.4V51.724C106.981 51.804 106.953 51.872 106.897 51.928C106.849 51.976 106.785 52 106.705 52H106.105ZM115.34 52C114.892 52 114.528 51.916 114.248 51.748C113.968 51.572 113.764 51.328 113.636 51.016C113.508 50.696 113.444 50.32 113.444 49.888V46.72H112.508C112.428 46.72 112.36 46.696 112.304 46.648C112.256 46.592 112.232 46.524 112.232 46.444V46.036C112.232 45.956 112.256 45.892 112.304 45.844C112.36 45.788 112.428 45.76 112.508 45.76H113.444V43.756C113.444 43.676 113.468 43.612 113.516 43.564C113.572 43.508 113.64 43.48 113.72 43.48H114.284C114.364 43.48 114.428 43.508 114.476 43.564C114.532 43.612 114.56 43.676 114.56 43.756V45.76H116.048C116.128 45.76 116.192 45.788 116.24 45.844C116.296 45.892 116.324 45.956 116.324 46.036V46.444C116.324 46.524 116.296 46.592 116.24 46.648C116.192 46.696 116.128 46.72 116.048 46.72H114.56V49.804C114.56 50.18 114.624 50.476 114.752 50.692C114.88 50.908 115.108 51.016 115.436 51.016H116.168C116.248 51.016 116.312 51.044 116.36 51.1C116.416 51.148 116.444 51.212 116.444 51.292V51.724C116.444 51.804 116.416 51.872 116.36 51.928C116.312 51.976 116.248 52 116.168 52H115.34ZM117.759 52C117.679 52 117.611 51.976 117.555 51.928C117.507 51.872 117.483 51.804 117.483 51.724V43.756C117.483 43.676 117.507 43.612 117.555 43.564C117.611 43.508 117.679 43.48 117.759 43.48H118.359C118.447 43.48 118.515 43.508 118.563 43.564C118.611 43.612 118.635 43.676 118.635 43.756V46.552C118.851 46.28 119.115 46.06 119.427 45.892C119.739 45.724 120.135 45.64 120.615 45.64C121.135 45.64 121.575 45.756 121.935 45.988C122.303 46.212 122.579 46.528 122.763 46.936C122.955 47.336 123.051 47.804 123.051 48.34V51.724C123.051 51.804 123.027 51.872 122.979 51.928C122.931 51.976 122.863 52 122.775 52H122.175C122.095 52 122.027 51.976 121.971 51.928C121.923 51.872 121.899 51.804 121.899 51.724V48.4C121.899 47.84 121.763 47.404 121.491 47.092C121.219 46.772 120.819 46.612 120.291 46.612C119.795 46.612 119.395 46.772 119.091 47.092C118.787 47.404 118.635 47.84 118.635 48.4V51.724C118.635 51.804 118.611 51.872 118.563 51.928C118.515 51.976 118.447 52 118.359 52H117.759ZM124.952 52C124.872 52 124.804 51.976 124.748 51.928C124.7 51.872 124.676 51.804 124.676 51.724V43.756C124.676 43.676 124.7 43.612 124.748 43.564C124.804 43.508 124.872 43.48 124.952 43.48H125.516C125.604 43.48 125.672 43.508 125.72 43.564C125.768 43.612 125.792 43.676 125.792 43.756V51.724C125.792 51.804 125.768 51.872 125.72 51.928C125.672 51.976 125.604 52 125.516 52H124.952ZM128.554 54.28C128.49 54.28 128.434 54.256 128.386 54.208C128.338 54.16 128.314 54.104 128.314 54.04C128.314 54.008 128.318 53.976 128.326 53.944C128.334 53.912 128.35 53.872 128.374 53.824L129.298 51.628L127.006 46.216C126.966 46.12 126.946 46.052 126.946 46.012C126.946 45.94 126.97 45.88 127.018 45.832C127.066 45.784 127.126 45.76 127.198 45.76H127.786C127.866 45.76 127.93 45.78 127.978 45.82C128.026 45.86 128.058 45.908 128.074 45.964L129.898 50.332L131.77 45.964C131.794 45.908 131.826 45.86 131.866 45.82C131.914 45.78 131.982 45.76 132.07 45.76H132.634C132.706 45.76 132.766 45.784 132.814 45.832C132.862 45.88 132.886 45.936 132.886 46C132.886 46.04 132.866 46.112 132.826 46.216L129.418 54.076C129.394 54.132 129.358 54.18 129.31 54.22C129.27 54.26 129.206 54.28 129.118 54.28H128.554Z" fill="#1D1D1D" fill-opacity="0.8"/>
<path d="M57.02 87C56.8333 87 56.6867 86.96 56.58 86.88C56.4867 86.7867 56.4 86.6933 56.32 86.6L52.02 81.82C51.9 81.6867 51.82 81.56 51.78 81.44C51.7533 81.32 51.74 81.1533 51.74 80.94V80.22C51.74 80.0867 51.78 79.9733 51.86 79.88C51.9533 79.7867 52.0733 79.74 52.22 79.74H53.16C54 79.74 54.6467 79.6333 55.1 79.42C55.5533 79.1933 55.86 78.8933 56.02 78.52C56.1933 78.1467 56.28 77.7133 56.28 77.22C56.28 76.7533 56.1933 76.3333 56.02 75.96C55.86 75.5867 55.5667 75.2867 55.14 75.06C54.7133 74.82 54.1133 74.7 53.34 74.7H52.08C51.9467 74.7 51.8333 74.66 51.74 74.58C51.6467 74.4867 51.6 74.3667 51.6 74.22V73.48C51.6 73.3467 51.6467 73.2333 51.74 73.14C51.8333 73.0467 51.9467 73 52.08 73H60.34C60.4733 73 60.5867 73.0467 60.68 73.14C60.7733 73.2333 60.82 73.3467 60.82 73.48V74.22C60.82 74.3667 60.7733 74.4867 60.68 74.58C60.5867 74.66 60.4733 74.7 60.34 74.7H57.16L57.2 74.22C57.9333 74.4467 58.44 74.8533 58.72 75.44C59 76.0133 59.14 76.66 59.14 77.38C59.14 78.1533 58.9733 78.8533 58.64 79.48C58.3067 80.1067 57.8 80.6067 57.12 80.98C56.4533 81.3533 55.6267 81.5667 54.64 81.62L53.94 81.68L54.16 80.54L59.3 86.34C59.4067 86.46 59.46 86.56 59.46 86.64C59.46 86.76 59.42 86.8533 59.34 86.92C59.26 86.9733 59.16 87 59.04 87H57.02ZM52.08 77.94C51.9333 77.94 51.8133 77.8933 51.72 77.8C51.64 77.7067 51.6 77.5933 51.6 77.46V76.72C51.6 76.5733 51.6467 76.46 51.74 76.38C51.8333 76.2867 51.9467 76.24 52.08 76.24H60.34C60.4733 76.24 60.5867 76.2867 60.68 76.38C60.7733 76.46 60.82 76.5733 60.82 76.72L60.8 77.46C60.8 77.5933 60.7533 77.7067 60.66 77.8C60.58 77.8933 60.4667 77.94 60.32 77.94H52.08ZM67.8755 87.2C66.9421 87.2 66.1355 87.0867 65.4555 86.86C64.7755 86.6333 64.2088 86.34 63.7555 85.98C63.3155 85.6067 62.9821 85.2067 62.7555 84.78C62.5288 84.34 62.4088 83.9067 62.3955 83.48C62.3955 83.36 62.4355 83.2667 62.5155 83.2C62.6088 83.12 62.7155 83.08 62.8355 83.08H64.6355C64.7688 83.08 64.8821 83.1067 64.9755 83.16C65.0688 83.2133 65.1488 83.32 65.2155 83.48C65.3355 83.84 65.5288 84.1267 65.7955 84.34C66.0755 84.5533 66.3955 84.7067 66.7555 84.8C67.1155 84.88 67.4955 84.92 67.8955 84.92C68.6955 84.92 69.3288 84.7333 69.7955 84.36C70.2755 83.9733 70.5155 83.4267 70.5155 82.72C70.5155 82.0133 70.2955 81.5067 69.8555 81.2C69.4155 80.88 68.8021 80.72 68.0155 80.72H65.9555C65.8088 80.72 65.6888 80.68 65.5955 80.6C65.5021 80.5067 65.4555 80.3867 65.4555 80.24V79.4C65.4555 79.2667 65.4821 79.1533 65.5355 79.06C65.6021 78.9533 65.6688 78.8667 65.7355 78.8L69.3155 75.3H63.5955C63.4488 75.3 63.3288 75.2533 63.2355 75.16C63.1555 75.0667 63.1155 74.9533 63.1155 74.82V73.5C63.1155 73.3533 63.1555 73.2333 63.2355 73.14C63.3288 73.0467 63.4488 73 63.5955 73H72.1755C72.3221 73 72.4421 73.0467 72.5355 73.14C72.6288 73.2333 72.6755 73.3533 72.6755 73.5V74.7C72.6755 74.82 72.6488 74.9267 72.5955 75.02C72.5421 75.1133 72.4821 75.1933 72.4155 75.26L68.9555 78.82L69.1955 78.84C70.0088 78.9067 70.7288 79.0933 71.3555 79.4C71.9955 79.6933 72.4888 80.1267 72.8355 80.7C73.1955 81.2733 73.3755 81.9933 73.3755 82.86C73.3755 83.7667 73.1355 84.5467 72.6555 85.2C72.1888 85.84 71.5421 86.3333 70.7155 86.68C69.8888 87.0267 68.9421 87.2 67.8755 87.2ZM77.7331 87C77.6131 87 77.5131 86.96 77.4331 86.88C77.3531 86.7867 77.3131 86.68 77.3131 86.56C77.3131 86.4933 77.3198 86.44 77.3331 86.4C77.3598 86.36 77.3798 86.3267 77.3931 86.3L80.3331 82.24C80.0665 82.3067 79.7865 82.3333 79.4931 82.32C78.8265 82.3067 78.1998 82.18 77.6131 81.94C77.0398 81.6867 76.5331 81.3533 76.0931 80.94C75.6665 80.5133 75.3265 80.0267 75.0731 79.48C74.8331 78.92 74.7131 78.3133 74.7131 77.66C74.7131 77.06 74.8265 76.4733 75.0531 75.9C75.2798 75.3133 75.6131 74.7867 76.0531 74.32C76.5065 73.8533 77.0665 73.4867 77.7331 73.22C78.4131 72.94 79.2065 72.8 80.1131 72.8C81.0065 72.8 81.7931 72.9267 82.4731 73.18C83.1531 73.4333 83.7198 73.7867 84.1731 74.24C84.6398 74.68 84.9865 75.1867 85.2131 75.76C85.4531 76.3333 85.5731 76.94 85.5731 77.58C85.5731 78.1533 85.4798 78.6867 85.2931 79.18C85.1065 79.6733 84.8731 80.1267 84.5931 80.54C84.3265 80.94 84.0598 81.3333 83.7931 81.72L80.2731 86.6C80.2198 86.6667 80.1398 86.7533 80.0331 86.86C79.9398 86.9533 79.7931 87 79.5931 87H77.7331ZM80.1331 80.2C80.6131 80.2 81.0465 80.1 81.4331 79.9C81.8331 79.6867 82.1465 79.3933 82.3731 79.02C82.6131 78.6333 82.7331 78.18 82.7331 77.66C82.7331 77.1267 82.6131 76.6733 82.3731 76.3C82.1465 75.9133 81.8331 75.62 81.4331 75.42C81.0331 75.2067 80.5998 75.1 80.1331 75.1C79.6531 75.1 79.2131 75.2067 78.8131 75.42C78.4265 75.62 78.1131 75.9133 77.8731 76.3C77.6465 76.6733 77.5331 77.1267 77.5331 77.66C77.5331 78.18 77.6465 78.6333 77.8731 79.02C78.1131 79.3933 78.4265 79.6867 78.8131 79.9C79.2131 80.1 79.6531 80.2 80.1331 80.2ZM89.8769 87C89.7569 87 89.6569 86.96 89.5769 86.88C89.4969 86.7867 89.4569 86.68 89.4569 86.56C89.4569 86.4933 89.4635 86.44 89.4769 86.4C89.5035 86.36 89.5235 86.3267 89.5369 86.3L92.4769 82.24C92.2102 82.3067 91.9302 82.3333 91.6369 82.32C90.9702 82.3067 90.3435 82.18 89.7569 81.94C89.1835 81.6867 88.6769 81.3533 88.2369 80.94C87.8102 80.5133 87.4702 80.0267 87.2169 79.48C86.9769 78.92 86.8569 78.3133 86.8569 77.66C86.8569 77.06 86.9702 76.4733 87.1969 75.9C87.4235 75.3133 87.7569 74.7867 88.1969 74.32C88.6502 73.8533 89.2102 73.4867 89.8769 73.22C90.5569 72.94 91.3502 72.8 92.2569 72.8C93.1502 72.8 93.9369 72.9267 94.6169 73.18C95.2969 73.4333 95.8635 73.7867 96.3169 74.24C96.7835 74.68 97.1302 75.1867 97.3569 75.76C97.5969 76.3333 97.7169 76.94 97.7169 77.58C97.7169 78.1533 97.6235 78.6867 97.4369 79.18C97.2502 79.6733 97.0169 80.1267 96.7369 80.54C96.4702 80.94 96.2035 81.3333 95.9369 81.72L92.4169 86.6C92.3635 86.6667 92.2835 86.7533 92.1769 86.86C92.0835 86.9533 91.9369 87 91.7369 87H89.8769ZM92.2769 80.2C92.7569 80.2 93.1902 80.1 93.5769 79.9C93.9769 79.6867 94.2902 79.3933 94.5169 79.02C94.7569 78.6333 94.8769 78.18 94.8769 77.66C94.8769 77.1267 94.7569 76.6733 94.5169 76.3C94.2902 75.9133 93.9769 75.62 93.5769 75.42C93.1769 75.2067 92.7435 75.1 92.2769 75.1C91.7969 75.1 91.3569 75.2067 90.9569 75.42C90.5702 75.62 90.2569 75.9133 90.0169 76.3C89.7902 76.6733 89.6769 77.1267 89.6769 77.66C89.6769 78.18 89.7902 78.6333 90.0169 79.02C90.2569 79.3933 90.5702 79.6867 90.9569 79.9C91.3569 80.1 91.7969 80.2 92.2769 80.2ZM98.1469 88.68C98.0402 88.68 97.9469 88.64 97.8669 88.56C97.7869 88.48 97.7469 88.38 97.7469 88.26C97.7469 88.2067 97.7602 88.1333 97.7869 88.04L104.587 71.7C104.64 71.6067 104.714 71.5133 104.807 71.42C104.9 71.3267 105.034 71.28 105.207 71.28H106.507C106.614 71.28 106.707 71.32 106.787 71.4C106.88 71.48 106.927 71.58 106.927 71.7C106.927 71.7533 106.907 71.8267 106.867 71.92L100.047 88.26C100.007 88.34 99.9402 88.4267 99.8469 88.52C99.7535 88.6267 99.6135 88.68 99.4269 88.68H98.1469ZM108.943 82.14C108.796 82.14 108.676 82.0933 108.583 82C108.503 81.9067 108.463 81.7933 108.463 81.66V80.34C108.463 80.2067 108.503 80.0933 108.583 80C108.676 79.9067 108.796 79.86 108.943 79.86H115.083C115.216 79.86 115.33 79.9067 115.423 80C115.516 80.0933 115.563 80.2067 115.563 80.34V81.66C115.563 81.7933 115.516 81.9067 115.423 82C115.33 82.0933 115.216 82.14 115.083 82.14H108.943Z" fill="#1D1D1D" fill-opacity="0.84"/>
<path d="M54.98 139C54.88 139 54.795 138.965 54.725 138.895C54.655 138.825 54.62 138.74 54.62 138.64V128.875C54.62 128.765 54.655 128.675 54.725 128.605C54.795 128.535 54.88 128.5 54.98 128.5H59C59.78 128.5 60.46 128.625 61.04 128.875C61.62 129.115 62.07 129.485 62.39 129.985C62.71 130.475 62.87 131.09 62.87 131.83C62.87 132.58 62.71 133.2 62.39 133.69C62.07 134.17 61.62 134.53 61.04 134.77C60.46 135.01 59.78 135.13 59 135.13H56.765V138.64C56.765 138.74 56.73 138.825 56.66 138.895C56.6 138.965 56.515 139 56.405 139H54.98ZM56.735 133.465H58.925C59.505 133.465 59.95 133.33 60.26 133.06C60.57 132.78 60.725 132.37 60.725 131.83C60.725 131.33 60.58 130.93 60.29 130.63C60 130.32 59.545 130.165 58.925 130.165H56.735V133.465ZM64.5377 139C64.4377 139 64.3527 138.965 64.2827 138.895C64.2127 138.825 64.1777 138.74 64.1777 138.64V131.575C64.1777 131.465 64.2127 131.375 64.2827 131.305C64.3527 131.235 64.4377 131.2 64.5377 131.2H65.7527C65.8527 131.2 65.9377 131.235 66.0077 131.305C66.0877 131.375 66.1277 131.465 66.1277 131.575V132.19C66.3577 131.87 66.6527 131.625 67.0127 131.455C67.3827 131.285 67.8077 131.2 68.2877 131.2H68.9027C69.0127 131.2 69.0977 131.235 69.1577 131.305C69.2277 131.375 69.2627 131.46 69.2627 131.56V132.64C69.2627 132.74 69.2277 132.825 69.1577 132.895C69.0977 132.965 69.0127 133 68.9027 133H67.7327C67.2527 133 66.8777 133.135 66.6077 133.405C66.3477 133.675 66.2177 134.045 66.2177 134.515V138.64C66.2177 138.74 66.1827 138.825 66.1127 138.895C66.0427 138.965 65.9527 139 65.8427 139H64.5377ZM73.63 139.15C72.83 139.15 72.155 139.01 71.605 138.73C71.065 138.45 70.65 138.055 70.36 137.545C70.08 137.035 69.92 136.44 69.88 135.76C69.87 135.58 69.865 135.36 69.865 135.1C69.865 134.84 69.87 134.62 69.88 134.44C69.92 133.75 70.085 133.155 70.375 132.655C70.675 132.145 71.095 131.75 71.635 131.47C72.185 131.19 72.85 131.05 73.63 131.05C74.41 131.05 75.07 131.19 75.61 131.47C76.16 131.75 76.58 132.145 76.87 132.655C77.17 133.155 77.34 133.75 77.38 134.44C77.39 134.62 77.395 134.84 77.395 135.1C77.395 135.36 77.39 135.58 77.38 135.76C77.34 136.44 77.175 137.035 76.885 137.545C76.605 138.055 76.19 138.45 75.64 138.73C75.1 139.01 74.43 139.15 73.63 139.15ZM73.63 137.665C74.16 137.665 74.57 137.5 74.86 137.17C75.15 136.83 75.31 136.335 75.34 135.685C75.35 135.535 75.355 135.34 75.355 135.1C75.355 134.86 75.35 134.665 75.34 134.515C75.31 133.875 75.15 133.385 74.86 133.045C74.57 132.705 74.16 132.535 73.63 132.535C73.1 132.535 72.69 132.705 72.4 133.045C72.11 133.385 71.95 133.875 71.92 134.515C71.91 134.665 71.905 134.86 71.905 135.1C71.905 135.34 71.91 135.535 71.92 135.685C71.95 136.335 72.11 136.83 72.4 137.17C72.69 137.5 73.1 137.665 73.63 137.665ZM82.282 139.15C81.562 139.15 80.927 139.015 80.377 138.745C79.837 138.475 79.412 138.085 79.102 137.575C78.802 137.055 78.637 136.43 78.607 135.7C78.597 135.55 78.592 135.355 78.592 135.115C78.592 134.865 78.597 134.66 78.607 134.5C78.637 133.77 78.802 133.15 79.102 132.64C79.412 132.12 79.837 131.725 80.377 131.455C80.927 131.185 81.562 131.05 82.282 131.05C82.922 131.05 83.467 131.14 83.917 131.32C84.367 131.5 84.737 131.725 85.027 131.995C85.317 132.265 85.532 132.55 85.672 132.85C85.822 133.14 85.902 133.405 85.912 133.645C85.922 133.755 85.887 133.845 85.807 133.915C85.737 133.975 85.652 134.005 85.552 134.005H84.232C84.132 134.005 84.052 133.98 83.992 133.93C83.942 133.88 83.892 133.805 83.842 133.705C83.692 133.305 83.492 133.025 83.242 132.865C83.002 132.695 82.692 132.61 82.312 132.61C81.812 132.61 81.412 132.77 81.112 133.09C80.822 133.4 80.667 133.895 80.647 134.575C80.627 134.955 80.627 135.305 80.647 135.625C80.667 136.315 80.822 136.815 81.112 137.125C81.412 137.435 81.812 137.59 82.312 137.59C82.702 137.59 83.017 137.51 83.257 137.35C83.497 137.18 83.692 136.895 83.842 136.495C83.892 136.395 83.942 136.32 83.992 136.27C84.052 136.22 84.132 136.195 84.232 136.195H85.552C85.652 136.195 85.737 136.23 85.807 136.3C85.887 136.36 85.922 136.445 85.912 136.555C85.902 136.735 85.852 136.94 85.762 137.17C85.682 137.39 85.547 137.62 85.357 137.86C85.177 138.09 84.947 138.305 84.667 138.505C84.387 138.695 84.047 138.85 83.647 138.97C83.257 139.09 82.802 139.15 82.282 139.15ZM90.6863 139.15C89.5763 139.15 88.6963 138.83 88.0463 138.19C87.3963 137.55 87.0463 136.64 86.9963 135.46C86.9863 135.36 86.9813 135.235 86.9813 135.085C86.9813 134.925 86.9863 134.8 86.9963 134.71C87.0363 133.96 87.2063 133.31 87.5063 132.76C87.8163 132.21 88.2413 131.79 88.7813 131.5C89.3213 131.2 89.9563 131.05 90.6863 131.05C91.4963 131.05 92.1763 131.22 92.7263 131.56C93.2763 131.89 93.6913 132.355 93.9713 132.955C94.2513 133.545 94.3913 134.23 94.3913 135.01V135.325C94.3913 135.425 94.3563 135.51 94.2863 135.58C94.2163 135.65 94.1263 135.685 94.0163 135.685H89.0363C89.0363 135.685 89.0363 135.7 89.0363 135.73C89.0363 135.76 89.0363 135.785 89.0363 135.805C89.0463 136.155 89.1113 136.48 89.2313 136.78C89.3613 137.07 89.5463 137.305 89.7863 137.485C90.0363 137.665 90.3313 137.755 90.6713 137.755C90.9513 137.755 91.1863 137.715 91.3763 137.635C91.5663 137.545 91.7213 137.445 91.8413 137.335C91.9613 137.225 92.0463 137.135 92.0963 137.065C92.1863 136.945 92.2563 136.875 92.3063 136.855C92.3663 136.825 92.4513 136.81 92.5613 136.81H93.8513C93.9513 136.81 94.0313 136.84 94.0913 136.9C94.1613 136.96 94.1913 137.035 94.1813 137.125C94.1713 137.285 94.0863 137.48 93.9263 137.71C93.7763 137.94 93.5563 138.165 93.2663 138.385C92.9763 138.605 92.6113 138.79 92.1713 138.94C91.7413 139.08 91.2463 139.15 90.6863 139.15ZM89.0363 134.425H92.3513V134.38C92.3513 133.99 92.2863 133.65 92.1563 133.36C92.0263 133.07 91.8363 132.84 91.5863 132.67C91.3363 132.5 91.0363 132.415 90.6863 132.415C90.3363 132.415 90.0363 132.5 89.7863 132.67C89.5363 132.84 89.3463 133.07 89.2163 133.36C89.0963 133.65 89.0363 133.99 89.0363 134.38V134.425ZM99.1936 139.15C98.0836 139.15 97.2036 138.83 96.5536 138.19C95.9036 137.55 95.5536 136.64 95.5036 135.46C95.4936 135.36 95.4886 135.235 95.4886 135.085C95.4886 134.925 95.4936 134.8 95.5036 134.71C95.5436 133.96 95.7136 133.31 96.0136 132.76C96.3236 132.21 96.7486 131.79 97.2886 131.5C97.8286 131.2 98.4636 131.05 99.1936 131.05C100.004 131.05 100.684 131.22 101.234 131.56C101.784 131.89 102.199 132.355 102.479 132.955C102.759 133.545 102.899 134.23 102.899 135.01V135.325C102.899 135.425 102.864 135.51 102.794 135.58C102.724 135.65 102.634 135.685 102.524 135.685H97.5436C97.5436 135.685 97.5436 135.7 97.5436 135.73C97.5436 135.76 97.5436 135.785 97.5436 135.805C97.5536 136.155 97.6186 136.48 97.7386 136.78C97.8686 137.07 98.0536 137.305 98.2936 137.485C98.5436 137.665 98.8386 137.755 99.1786 137.755C99.4586 137.755 99.6936 137.715 99.8836 137.635C100.074 137.545 100.229 137.445 100.349 137.335C100.469 137.225 100.554 137.135 100.604 137.065C100.694 136.945 100.764 136.875 100.814 136.855C100.874 136.825 100.959 136.81 101.069 136.81H102.359C102.459 136.81 102.539 136.84 102.599 136.9C102.669 136.96 102.699 137.035 102.689 137.125C102.679 137.285 102.594 137.48 102.434 137.71C102.284 137.94 102.064 138.165 101.774 138.385C101.484 138.605 101.119 138.79 100.679 138.94C100.249 139.08 99.7536 139.15 99.1936 139.15ZM97.5436 134.425H100.859V134.38C100.859 133.99 100.794 133.65 100.664 133.36C100.534 133.07 100.344 132.84 100.094 132.67C99.8436 132.5 99.5436 132.415 99.1936 132.415C98.8436 132.415 98.5436 132.5 98.2936 132.67C98.0436 132.84 97.8536 133.07 97.7236 133.36C97.6036 133.65 97.5436 133.99 97.5436 134.38V134.425ZM107.236 139.15C106.716 139.15 106.256 139.065 105.856 138.895C105.466 138.715 105.141 138.465 104.881 138.145C104.621 137.825 104.421 137.45 104.281 137.02C104.141 136.58 104.061 136.1 104.041 135.58C104.031 135.4 104.026 135.24 104.026 135.1C104.026 134.95 104.031 134.785 104.041 134.605C104.061 134.105 104.136 133.64 104.266 133.21C104.406 132.78 104.606 132.405 104.866 132.085C105.136 131.755 105.466 131.5 105.856 131.32C106.256 131.14 106.716 131.05 107.236 131.05C107.776 131.05 108.231 131.145 108.601 131.335C108.981 131.515 109.296 131.75 109.546 132.04V128.71C109.546 128.61 109.576 128.525 109.636 128.455C109.706 128.385 109.796 128.35 109.906 128.35H111.181C111.281 128.35 111.366 128.385 111.436 128.455C111.506 128.525 111.541 128.61 111.541 128.71V138.64C111.541 138.74 111.506 138.825 111.436 138.895C111.366 138.965 111.281 139 111.181 139H109.996C109.886 139 109.796 138.965 109.726 138.895C109.666 138.825 109.636 138.74 109.636 138.64V138.085C109.386 138.395 109.066 138.65 108.676 138.85C108.296 139.05 107.816 139.15 107.236 139.15ZM107.791 137.545C108.211 137.545 108.546 137.45 108.796 137.26C109.046 137.07 109.231 136.83 109.351 136.54C109.471 136.24 109.536 135.935 109.546 135.625C109.556 135.445 109.561 135.255 109.561 135.055C109.561 134.845 109.556 134.65 109.546 134.47C109.536 134.17 109.466 133.885 109.336 133.615C109.206 133.335 109.016 133.105 108.766 132.925C108.516 132.745 108.191 132.655 107.791 132.655C107.371 132.655 107.036 132.75 106.786 132.94C106.546 133.12 106.371 133.36 106.261 133.66C106.151 133.96 106.086 134.29 106.066 134.65C106.056 134.95 106.056 135.25 106.066 135.55C106.086 135.91 106.151 136.24 106.261 136.54C106.371 136.84 106.546 137.085 106.786 137.275C107.036 137.455 107.371 137.545 107.791 137.545Z" fill="#2D8304"/>
<rect x="15.5" y="118.5" width="135" height="31" rx="15.5" stroke="#2D8304" stroke-opacity="0.07"/>
<rect x="0.5" y="0.5" width="166" height="164" rx="9.5" stroke="#FFF6DE"/>
</svg>
