<svg width="12" height="13" viewBox="0 0 12 13" fill="none" xmlns="http://www.w3.org/2000/svg">
<g id="tabler:star-filled" clip-path="url(#clip0_101_12454)">
<g id="Group">
<path id="Vector" d="M4.12114 4.16996L0.931139 4.63246L0.874639 4.64396C0.789108 4.66667 0.711136 4.71167 0.648685 4.77436C0.586234 4.83706 0.541541 4.91521 0.51917 5.00082C0.496799 5.08644 0.497552 5.17647 0.521353 5.2617C0.545153 5.34693 0.591147 5.42432 0.654639 5.48596L2.96564 7.73546L2.42064 10.913L2.41414 10.968C2.4089 11.0564 2.42727 11.1447 2.46736 11.2237C2.50746 11.3027 2.56783 11.3697 2.64231 11.4177C2.71678 11.4657 2.80268 11.4931 2.89121 11.497C2.97974 11.5009 3.06772 11.4812 3.14614 11.44L5.99914 9.93996L8.84564 11.44L8.89564 11.463C8.97817 11.4955 9.06786 11.5054 9.15552 11.4918C9.24317 11.4782 9.32563 11.4416 9.39443 11.3856C9.46324 11.3296 9.51592 11.2563 9.54706 11.1733C9.5782 11.0902 9.58668 11.0004 9.57164 10.913L9.02614 7.73546L11.3381 5.48546L11.3771 5.44296C11.4328 5.37435 11.4694 5.29219 11.483 5.20486C11.4966 5.11753 11.4869 5.02815 11.4547 4.94583C11.4225 4.8635 11.3691 4.79118 11.2999 4.73622C11.2307 4.68126 11.1481 4.64563 11.0606 4.63296L7.87064 4.16996L6.44464 1.27996C6.40338 1.19623 6.3395 1.12572 6.26023 1.07641C6.18097 1.02711 6.08949 1.00098 5.99614 1.00098C5.90279 1.00098 5.81131 1.02711 5.73204 1.07641C5.65278 1.12572 5.5889 1.19623 5.54764 1.27996L4.12114 4.16996Z" fill="white"/>
</g>
</g>
<defs>
<clipPath id="clip0_101_12454">
<rect width="12" height="12" fill="white" transform="translate(0 0.5)"/>
</clipPath>
</defs>
</svg>
