<svg width="141" height="21" viewBox="0 0 141 21" fill="none" xmlns="http://www.w3.org/2000/svg">
<path d="M9.2807 14.323V7.23597H12.7037V19.5781H9.4173V17.3363H9.28873C9.01018 18.0594 8.54681 18.6407 7.89864 19.0799C7.25582 19.5192 6.47104 19.7388 5.54431 19.7388C4.71936 19.7388 3.99351 19.5513 3.36676 19.1763C2.74002 18.8014 2.24987 18.2684 1.89632 17.5773C1.54812 16.8863 1.37135 16.0587 1.36599 15.0944V7.23597H4.789V14.4838C4.79436 15.2123 4.98988 15.7881 5.37557 16.2113C5.76126 16.6345 6.2782 16.8461 6.92637 16.8461C7.33885 16.8461 7.72454 16.7524 8.08345 16.5649C8.44236 16.372 8.73162 16.0881 8.95125 15.7131C9.17624 15.3382 9.28606 14.8748 9.2807 14.323ZM13.4053 19.5781V7.23597H16.7238V9.38941H16.8524C17.0774 8.62339 17.455 8.04485 17.9854 7.6538C18.5157 7.2574 19.1264 7.0592 19.8174 7.0592C19.9888 7.0592 20.1736 7.06991 20.3718 7.09134C20.57 7.11276 20.7441 7.14223 20.8941 7.17972V10.217C20.7334 10.1688 20.5111 10.126 20.2272 10.0885C19.9433 10.051 19.6835 10.0322 19.4478 10.0322C18.9442 10.0322 18.4942 10.142 18.0978 10.3617C17.7068 10.576 17.3961 10.8759 17.1658 11.2616C16.9408 11.6473 16.8283 12.0919 16.8283 12.5955V19.5781H13.4053ZM20.6917 19.5781V3.12193H24.1147V9.30906H24.2192C24.3692 8.97694 24.5861 8.63946 24.87 8.29662C25.1593 7.94843 25.5343 7.65916 25.995 7.42882C26.461 7.19312 27.0395 7.07527 27.7306 7.07527C28.6305 7.07527 29.4608 7.31097 30.2215 7.78237C30.9822 8.24841 31.5902 8.95283 32.0455 9.89563C32.5008 10.8331 32.7285 12.0089 32.7285 13.4231C32.7285 14.7998 32.5062 15.9622 32.0616 16.9104C31.6223 17.8532 31.0223 18.5683 30.2617 19.0558C29.5064 19.5379 28.66 19.779 27.7225 19.779C27.0583 19.779 26.4931 19.6692 26.0271 19.4495C25.5664 19.2299 25.1888 18.954 24.8941 18.6219C24.5995 18.2844 24.3745 17.9443 24.2192 17.6014H24.0665V19.5781H20.6917ZM24.0424 13.407C24.0424 14.1409 24.1442 14.7811 24.3477 15.3275C24.5513 15.8739 24.8459 16.2997 25.2316 16.6051C25.6173 16.905 26.086 17.055 26.6378 17.055C27.1949 17.055 27.6663 16.9024 28.052 16.597C28.4377 16.2863 28.7296 15.8578 28.9278 15.3114C29.1314 14.7596 29.2332 14.1248 29.2332 13.407C29.2332 12.6946 29.1341 12.0678 28.9359 11.5268C28.7376 10.9857 28.4457 10.5626 28.06 10.2572C27.6743 9.95188 27.2002 9.79921 26.6378 9.79921C26.0807 9.79921 25.6093 9.94652 25.2236 10.2411C24.8432 10.5358 24.5513 10.9536 24.3477 11.4946C24.1442 12.0357 24.0424 12.6731 24.0424 13.407ZM36.4955 19.8111C35.708 19.8111 35.0063 19.6745 34.3902 19.4013C33.7742 19.1228 33.2867 18.713 32.9278 18.1719C32.5743 17.6255 32.3975 16.9452 32.3975 16.131C32.3975 15.4453 32.5234 14.8694 32.7752 14.4034C33.0269 13.9374 33.3698 13.5624 33.8037 13.2785C34.2376 12.9946 34.7304 12.7803 35.2822 12.6357C35.8393 12.491 36.4232 12.3892 37.0338 12.3303C37.7517 12.2553 38.3302 12.1857 38.7695 12.1214C39.2087 12.0518 39.5274 11.95 39.7256 11.8161C39.9238 11.6821 40.023 11.4839 40.023 11.2214V11.1732C40.023 10.6643 39.8622 10.2706 39.5408 9.99206C39.2248 9.7135 38.7748 9.57422 38.1909 9.57422C37.5749 9.57422 37.0847 9.71082 36.7205 9.98402C36.3562 10.2519 36.1151 10.5893 35.9973 10.9965L32.8314 10.7393C32.9921 9.98938 33.3082 9.3412 33.7796 8.79481C34.251 8.24305 34.859 7.81986 35.6036 7.52524C36.3535 7.22526 37.2213 7.07527 38.207 7.07527C38.8927 7.07527 39.5489 7.15562 40.1756 7.31632C40.8077 7.47703 41.3675 7.72612 41.855 8.0636C42.3478 8.40108 42.7362 8.83498 43.0201 9.36531C43.304 9.89028 43.446 10.5197 43.446 11.2536V19.5781H40.1997V17.8666H40.1033C39.9051 18.2523 39.6399 18.5924 39.3078 18.8871C38.9757 19.1763 38.5766 19.404 38.1106 19.5701C37.6445 19.7308 37.1062 19.8111 36.4955 19.8111ZM37.4758 17.4488C37.9793 17.4488 38.4239 17.3497 38.8096 17.1515C39.1953 16.9479 39.498 16.6747 39.7176 16.3319C39.9372 15.989 40.0471 15.6007 40.0471 15.1667V13.857C39.9399 13.9266 39.7926 13.9909 39.6051 14.0499C39.423 14.1034 39.2167 14.1543 38.9864 14.2025C38.7561 14.2454 38.5257 14.2856 38.2954 14.323C38.065 14.3552 37.8561 14.3847 37.6686 14.4114C37.2669 14.4704 36.916 14.5641 36.616 14.6927C36.316 14.8212 36.083 14.9953 35.9169 15.215C35.7509 15.4292 35.6679 15.6971 35.6679 16.0185C35.6679 16.4845 35.8366 16.8408 36.1741 17.0872C36.5169 17.3282 36.9508 17.4488 37.4758 17.4488ZM47.4882 12.4428V19.5781H44.0652V7.23597H47.3275V9.41352H47.4721C47.7453 8.69571 48.2033 8.12788 48.8461 7.71005C49.4889 7.28686 50.2684 7.07527 51.1844 7.07527C52.0415 7.07527 52.7887 7.26276 53.4262 7.63773C54.0637 8.01271 54.5592 8.54839 54.9127 9.24478C55.2663 9.93581 55.4431 10.7608 55.4431 11.7196V19.5781H52.02V12.3303C52.0254 11.575 51.8326 10.9857 51.4415 10.5626C51.0505 10.134 50.5121 9.91974 49.8264 9.91974C49.3657 9.91974 48.9586 10.0188 48.6051 10.217C48.2569 10.4152 47.9837 10.7045 47.7855 11.0848C47.5926 11.4598 47.4935 11.9125 47.4882 12.4428Z" fill="#BCC000"/>
<path d="M59.3692 19.5781V3.12193H62.7922V9.30906H62.8967C63.0467 8.97694 63.2636 8.63946 63.5476 8.29662C63.8368 7.94843 64.2118 7.65916 64.6725 7.42882C65.1385 7.19312 65.7171 7.07527 66.4081 7.07527C67.308 7.07527 68.1384 7.31097 68.899 7.78237C69.6597 8.24841 70.2677 8.95283 70.723 9.89563C71.1783 10.8331 71.406 12.0089 71.406 13.4231C71.406 14.7998 71.1837 15.9622 70.7391 16.9104C70.2998 17.8532 69.6999 18.5683 68.9392 19.0558C68.1839 19.5379 67.3375 19.779 66.4001 19.779C65.7358 19.779 65.1707 19.6692 64.7046 19.4495C64.2439 19.2299 63.8663 18.954 63.5717 18.6219C63.277 18.2844 63.052 17.9443 62.8967 17.6014H62.744V19.5781H59.3692ZM62.7199 13.407C62.7199 14.1409 62.8217 14.7811 63.0253 15.3275C63.2288 15.8739 63.5234 16.2997 63.9091 16.6051C64.2948 16.905 64.7636 17.055 65.3153 17.055C65.8724 17.055 66.3438 16.9024 66.7295 16.597C67.1152 16.2863 67.4071 15.8578 67.6053 15.3114C67.8089 14.7596 67.9107 14.1248 67.9107 13.407C67.9107 12.6946 67.8116 12.0678 67.6134 11.5268C67.4152 10.9857 67.1232 10.5626 66.7375 10.2572C66.3518 9.95188 65.8778 9.79921 65.3153 9.79921C64.7582 9.79921 64.2868 9.94652 63.9011 10.2411C63.5208 10.5358 63.2288 10.9536 63.0253 11.4946C62.8217 12.0357 62.7199 12.6731 62.7199 13.407ZM77.23 19.8192C75.9819 19.8192 74.9025 19.554 73.9918 19.0237C73.0865 18.488 72.3875 17.7434 71.8946 16.7899C71.4018 15.831 71.1554 14.7195 71.1554 13.4552C71.1554 12.1803 71.4018 11.0661 71.8946 10.1126C72.3875 9.15371 73.0865 8.40912 73.9918 7.87879C74.9025 7.34311 75.9819 7.07527 77.23 7.07527C78.4782 7.07527 79.5549 7.34311 80.4602 7.87879C81.3709 8.40912 82.0726 9.15371 82.5654 10.1126C83.0583 11.0661 83.3047 12.1803 83.3047 13.4552C83.3047 14.7195 83.0583 15.831 82.5654 16.7899C82.0726 17.7434 81.3709 18.488 80.4602 19.0237C79.5549 19.554 78.4782 19.8192 77.23 19.8192ZM77.2461 17.1675C77.8139 17.1675 78.288 17.0068 78.6683 16.6854C79.0487 16.3586 79.3353 15.914 79.5281 15.3516C79.7263 14.7891 79.8254 14.149 79.8254 13.4311C79.8254 12.7133 79.7263 12.0732 79.5281 11.5107C79.3353 10.9483 79.0487 10.5036 78.6683 10.1769C78.288 9.8501 77.8139 9.68672 77.2461 9.68672C76.6729 9.68672 76.1908 9.8501 75.7998 10.1769C75.4141 10.5036 75.1221 10.9483 74.9239 11.5107C74.7311 12.0732 74.6347 12.7133 74.6347 13.4311C74.6347 14.149 74.7311 14.7891 74.9239 15.3516C75.1221 15.914 75.4141 16.3586 75.7998 16.6854C76.1908 17.0068 76.6729 17.1675 77.2461 17.1675ZM90.0588 7.23597V9.80725H82.6262V7.23597H90.0588ZM84.3136 4.279H87.7366V15.7855C87.7366 16.1015 87.7848 16.3479 87.8812 16.5247C87.9776 16.6961 88.1116 16.8167 88.283 16.8863C88.4598 16.9559 88.6633 16.9907 88.8937 16.9907C89.0544 16.9907 89.2151 16.9774 89.3758 16.9506C89.5365 16.9184 89.6597 16.8943 89.7454 16.8783L90.2838 19.4254C90.1123 19.479 89.8713 19.5406 89.5606 19.6102C89.2499 19.6852 88.8722 19.7308 88.4276 19.7468C87.6027 19.779 86.8795 19.6692 86.2581 19.4174C85.6421 19.1656 85.1626 18.7746 84.8198 18.2442C84.477 17.7139 84.3082 17.0443 84.3136 16.2354V4.279ZM93.7715 19.8111C92.9841 19.8111 92.2823 19.6745 91.6663 19.4013C91.0503 19.1228 90.5628 18.713 90.2039 18.1719C89.8503 17.6255 89.6736 16.9452 89.6736 16.131C89.6736 15.4453 89.7994 14.8694 90.0512 14.4034C90.303 13.9374 90.6458 13.5624 91.0797 13.2785C91.5136 12.9946 92.0065 12.7803 92.5582 12.6357C93.1153 12.491 93.6992 12.3892 94.3099 12.3303C95.0277 12.2553 95.6062 12.1857 96.0455 12.1214C96.4848 12.0518 96.8035 11.95 97.0017 11.8161C97.1999 11.6821 97.299 11.4839 97.299 11.2214V11.1732C97.299 10.6643 97.1383 10.2706 96.8169 9.99206C96.5008 9.7135 96.0509 9.57422 95.467 9.57422C94.8509 9.57422 94.3608 9.71082 93.9965 9.98402C93.6323 10.2519 93.3912 10.5893 93.2733 10.9965L90.1075 10.7393C90.2682 9.98938 90.5842 9.3412 91.0556 8.79481C91.527 8.24305 92.135 7.81986 92.8796 7.52524C93.6296 7.22526 94.4974 7.07527 95.483 7.07527C96.1687 7.07527 96.8249 7.15562 97.4517 7.31632C98.0838 7.47703 98.6436 7.72612 99.131 8.0636C99.6239 8.40108 100.012 8.83498 100.296 9.36531C100.58 9.89028 100.722 10.5197 100.722 11.2536V19.5781H97.4758V17.8666H97.3794C97.1812 18.2523 96.916 18.5924 96.5839 18.8871C96.2517 19.1763 95.8527 19.404 95.3866 19.5701C94.9206 19.7308 94.3822 19.8111 93.7715 19.8111ZM94.7518 17.4488C95.2554 17.4488 95.7 17.3497 96.0857 17.1515C96.4714 16.9479 96.774 16.6747 96.9937 16.3319C97.2133 15.989 97.3231 15.6007 97.3231 15.1667V13.857C97.216 13.9266 97.0687 13.9909 96.8812 14.0499C96.699 14.1034 96.4928 14.1543 96.2625 14.2025C96.0321 14.2454 95.8018 14.2856 95.5714 14.323C95.3411 14.3552 95.1322 14.3847 94.9447 14.4114C94.5429 14.4704 94.192 14.5641 93.8921 14.6927C93.5921 14.8212 93.3591 14.9953 93.193 15.215C93.0269 15.4292 92.9439 15.6971 92.9439 16.0185C92.9439 16.4845 93.1126 16.8408 93.4501 17.0872C93.793 17.3282 94.2269 17.4488 94.7518 17.4488ZM104.764 12.4428V19.5781H101.341V7.23597H104.604V9.41352H104.748C105.021 8.69571 105.479 8.12788 106.122 7.71005C106.765 7.28686 107.544 7.07527 108.46 7.07527C109.318 7.07527 110.065 7.26276 110.702 7.63773C111.34 8.01271 111.835 8.54839 112.189 9.24478C112.542 9.93581 112.719 10.7608 112.719 11.7196V19.5781H109.296V12.3303C109.301 11.575 109.109 10.9857 108.718 10.5626C108.327 10.134 107.788 9.91974 107.102 9.91974C106.642 9.91974 106.235 10.0188 105.881 10.217C105.533 10.4152 105.26 10.7045 105.062 11.0848C104.869 11.4598 104.77 11.9125 104.764 12.4428ZM113.38 19.5781V7.23597H116.803V19.5781H113.38ZM115.1 5.64499C114.591 5.64499 114.155 5.47625 113.79 5.13877C113.431 4.79594 113.252 4.38614 113.252 3.90938C113.252 3.43798 113.431 3.03354 113.79 2.69606C114.155 2.35323 114.591 2.18181 115.1 2.18181C115.609 2.18181 116.043 2.35323 116.402 2.69606C116.766 3.03354 116.948 3.43798 116.948 3.90938C116.948 4.38614 116.766 4.79594 116.402 5.13877C116.043 5.47625 115.609 5.64499 115.1 5.64499ZM123.086 19.8192C121.821 19.8192 120.734 19.5513 119.823 19.0156C118.918 18.4746 118.222 17.7246 117.734 16.7658C117.252 15.8069 117.011 14.7034 117.011 13.4552C117.011 12.191 117.255 11.0822 117.742 10.1287C118.235 9.16978 118.934 8.42251 119.839 7.88682C120.745 7.34579 121.821 7.07527 123.069 7.07527C124.146 7.07527 125.089 7.27079 125.898 7.66184C126.707 8.05289 127.347 8.60196 127.818 9.30906C128.29 10.0162 128.549 10.8465 128.598 11.8H125.368C125.276 11.184 125.035 10.6884 124.644 10.3135C124.259 9.93313 123.752 9.74296 123.126 9.74296C122.595 9.74296 122.132 9.8876 121.736 10.1769C121.345 10.4608 121.039 10.8759 120.82 11.4223C120.6 11.9687 120.49 12.6303 120.49 13.407C120.49 14.1945 120.597 14.8641 120.812 15.4158C121.031 15.9676 121.339 16.3881 121.736 16.6774C122.132 16.9666 122.595 17.1113 123.126 17.1113C123.517 17.1113 123.868 17.0309 124.178 16.8702C124.494 16.7095 124.754 16.4765 124.958 16.1712C125.167 15.8605 125.303 15.4882 125.368 15.0543H128.598C128.544 15.9971 128.287 16.8274 127.826 17.5452C127.371 18.2576 126.742 18.8147 125.938 19.2165C125.135 19.6183 124.184 19.8192 123.086 19.8192ZM132.272 19.8111C131.485 19.8111 130.783 19.6745 130.167 19.4013C129.551 19.1228 129.064 18.713 128.705 18.1719C128.351 17.6255 128.174 16.9452 128.174 16.131C128.174 15.4453 128.3 14.8694 128.552 14.4034C128.804 13.9374 129.147 13.5624 129.58 13.2785C130.014 12.9946 130.507 12.7803 131.059 12.6357C131.616 12.491 132.2 12.3892 132.811 12.3303C133.528 12.2553 134.107 12.1857 134.546 12.1214C134.986 12.0518 135.304 11.95 135.502 11.8161C135.701 11.6821 135.8 11.4839 135.8 11.2214V11.1732C135.8 10.6643 135.639 10.2706 135.318 9.99206C135.002 9.7135 134.552 9.57422 133.968 9.57422C133.352 9.57422 132.862 9.71082 132.497 9.98402C132.133 10.2519 131.892 10.5893 131.774 10.9965L128.608 10.7393C128.769 9.98938 129.085 9.3412 129.556 8.79481C130.028 8.24305 130.636 7.81986 131.38 7.52524C132.13 7.22526 132.998 7.07527 133.984 7.07527C134.669 7.07527 135.326 7.15562 135.952 7.31632C136.585 7.47703 137.144 7.72612 137.632 8.0636C138.125 8.40108 138.513 8.83498 138.797 9.36531C139.081 9.89028 139.223 10.5197 139.223 11.2536V19.5781H135.977V17.8666H135.88C135.682 18.2523 135.417 18.5924 135.085 18.8871C134.752 19.1763 134.353 19.404 133.887 19.5701C133.421 19.7308 132.883 19.8111 132.272 19.8111ZM133.253 17.4488C133.756 17.4488 134.201 17.3497 134.586 17.1515C134.972 16.9479 135.275 16.6747 135.494 16.3319C135.714 15.989 135.824 15.6007 135.824 15.1667V13.857C135.717 13.9266 135.569 13.9909 135.382 14.0499C135.2 14.1034 134.994 14.1543 134.763 14.2025C134.533 14.2454 134.303 14.2856 134.072 14.323C133.842 14.3552 133.633 14.3847 133.445 14.4114C133.044 14.4704 132.693 14.5641 132.393 14.6927C132.093 14.8212 131.86 14.9953 131.694 15.215C131.528 15.4292 131.445 15.6971 131.445 16.0185C131.445 16.4845 131.613 16.8408 131.951 17.0872C132.294 17.3282 132.728 17.4488 133.253 17.4488Z" fill="#2D8304"/>
<path d="M63.4461 0.630484V1.17276C63.4461 1.67614 63.2461 2.15889 62.8902 2.51483C62.5342 2.87077 62.0515 3.07074 61.5481 3.07074H61.277V3.34187H62.6327V5.23985C62.6327 5.38367 62.5755 5.5216 62.4738 5.6233C62.3721 5.72499 62.2342 5.78213 62.0904 5.78213H59.9213C59.7774 5.78213 59.6395 5.72499 59.5378 5.6233C59.4361 5.5216 59.379 5.38367 59.379 5.23985V3.34187H60.7347V2.52846C60.7347 2.02508 60.9346 1.54233 61.2906 1.18639C61.6465 0.830449 62.1293 0.630484 62.6327 0.630484H63.4461ZM59.2434 0.359345C59.5688 0.359082 59.8894 0.436995 60.1784 0.586526C60.4674 0.736056 60.7162 0.952826 60.9039 1.21858C60.6175 1.59517 60.4628 2.05538 60.4635 2.52846V2.7996H60.328C59.7886 2.7996 59.2714 2.58535 58.89 2.20399C58.5087 1.82262 58.2944 1.30538 58.2944 0.766054V0.359345H59.2434Z" fill="#2D8304"/>
</svg>
