<svg width="129" height="37" viewBox="0 0 129 37" fill="none" xmlns="http://www.w3.org/2000/svg">
<path d="M11.428 23C11.3347 23 11.2553 22.9673 11.19 22.902C11.1247 22.8367 11.092 22.7573 11.092 22.664V13.536C11.092 13.4427 11.1247 13.3633 11.19 13.298C11.2553 13.2327 11.3347 13.2 11.428 13.2H12.744C12.8467 13.2 12.926 13.2327 12.982 13.298C13.0473 13.3633 13.08 13.4427 13.08 13.536V22.664C13.08 22.7573 13.0473 22.8367 12.982 22.902C12.926 22.9673 12.8467 23 12.744 23H11.428ZM19.4204 23C19.2897 23 19.1917 22.9673 19.1264 22.902C19.061 22.8367 19.005 22.7527 18.9584 22.65L16.9564 16.154C16.947 16.1073 16.9424 16.0653 16.9424 16.028C16.9424 15.944 16.9704 15.874 17.0264 15.818C17.0917 15.7527 17.1617 15.72 17.2364 15.72H18.2724C18.3844 15.72 18.473 15.7527 18.5384 15.818C18.6037 15.874 18.641 15.93 18.6504 15.986L20.0224 20.62L21.4784 16.028C21.497 15.9627 21.539 15.8973 21.6044 15.832C21.6697 15.7573 21.7677 15.72 21.8984 15.72H22.5984C22.729 15.72 22.827 15.7573 22.8924 15.832C22.9577 15.8973 22.9997 15.9627 23.0184 16.028L24.4744 20.62L25.8464 15.986C25.8557 15.93 25.8884 15.874 25.9444 15.818C26.0097 15.7527 26.0984 15.72 26.2104 15.72H27.2464C27.3304 15.72 27.4004 15.7527 27.4564 15.818C27.5217 15.874 27.5544 15.944 27.5544 16.028C27.5544 16.0653 27.545 16.1073 27.5264 16.154L25.5244 22.65C25.4964 22.7527 25.445 22.8367 25.3704 22.902C25.305 22.9673 25.207 23 25.0764 23H24.1664C24.0357 23 23.933 22.9673 23.8584 22.902C23.7837 22.8367 23.7324 22.7527 23.7044 22.65L22.2484 18.226L20.7924 22.65C20.755 22.7527 20.699 22.8367 20.6244 22.902C20.559 22.9673 20.4564 23 20.3164 23H19.4204ZM28.9727 23C28.8794 23 28.8001 22.9673 28.7347 22.902C28.6694 22.8367 28.6367 22.7573 28.6367 22.664V16.056C28.6367 15.9627 28.6694 15.8833 28.7347 15.818C28.8001 15.7527 28.8794 15.72 28.9727 15.72H30.1347C30.2374 15.72 30.3167 15.7527 30.3727 15.818C30.4381 15.8833 30.4707 15.9627 30.4707 16.056V22.664C30.4707 22.7573 30.4381 22.8367 30.3727 22.902C30.3167 22.9673 30.2374 23 30.1347 23H28.9727ZM28.9167 14.516C28.8141 14.516 28.7301 14.488 28.6647 14.432C28.6087 14.3667 28.5807 14.2827 28.5807 14.18V13.172C28.5807 13.0787 28.6087 12.9993 28.6647 12.934C28.7301 12.8687 28.8141 12.836 28.9167 12.836H30.1907C30.2934 12.836 30.3774 12.8687 30.4427 12.934C30.5081 12.9993 30.5407 13.0787 30.5407 13.172V14.18C30.5407 14.2827 30.5081 14.3667 30.4427 14.432C30.3774 14.488 30.2934 14.516 30.1907 14.516H28.9167ZM32.3981 23C32.3048 23 32.2255 22.9673 32.1601 22.902C32.0948 22.8367 32.0621 22.7573 32.0621 22.664V13.396C32.0621 13.3027 32.0948 13.2233 32.1601 13.158C32.2255 13.0927 32.3048 13.06 32.3981 13.06H33.5601C33.6535 13.06 33.7328 13.0927 33.7981 13.158C33.8635 13.2233 33.8961 13.3027 33.8961 13.396V22.664C33.8961 22.7573 33.8635 22.8367 33.7981 22.902C33.7328 22.9673 33.6535 23 33.5601 23H32.3981ZM35.8232 23C35.7299 23 35.6506 22.9673 35.5852 22.902C35.5199 22.8367 35.4872 22.7573 35.4872 22.664V13.396C35.4872 13.3027 35.5199 13.2233 35.5852 13.158C35.6506 13.0927 35.7299 13.06 35.8232 13.06H36.9852C37.0786 13.06 37.1579 13.0927 37.2232 13.158C37.2886 13.2233 37.3212 13.3027 37.3212 13.396V22.664C37.3212 22.7573 37.2886 22.8367 37.2232 22.902C37.1579 22.9673 37.0786 23 36.9852 23H35.8232ZM44.5195 23.14C44.0342 23.14 43.6049 23.0607 43.2315 22.902C42.8675 22.734 42.5642 22.5007 42.3215 22.202C42.0788 21.9033 41.8922 21.5533 41.7615 21.152C41.6308 20.7413 41.5562 20.2933 41.5375 19.808C41.5282 19.64 41.5235 19.4907 41.5235 19.36C41.5235 19.22 41.5282 19.066 41.5375 18.898C41.5562 18.4313 41.6262 17.9973 41.7475 17.596C41.8782 17.1947 42.0648 16.8447 42.3075 16.546C42.5595 16.238 42.8675 16 43.2315 15.832C43.6049 15.664 44.0342 15.58 44.5195 15.58C45.0235 15.58 45.4482 15.6687 45.7935 15.846C46.1482 16.014 46.4422 16.2333 46.6755 16.504V13.396C46.6755 13.3027 46.7035 13.2233 46.7595 13.158C46.8249 13.0927 46.9089 13.06 47.0115 13.06H48.2015C48.2948 13.06 48.3742 13.0927 48.4395 13.158C48.5049 13.2233 48.5375 13.3027 48.5375 13.396V22.664C48.5375 22.7573 48.5049 22.8367 48.4395 22.902C48.3742 22.9673 48.2948 23 48.2015 23H47.0955C46.9929 23 46.9089 22.9673 46.8435 22.902C46.7875 22.8367 46.7595 22.7573 46.7595 22.664V22.146C46.5262 22.4353 46.2275 22.6733 45.8635 22.86C45.5088 23.0467 45.0608 23.14 44.5195 23.14ZM45.0375 21.642C45.4295 21.642 45.7422 21.5533 45.9755 21.376C46.2089 21.1987 46.3815 20.9747 46.4935 20.704C46.6055 20.424 46.6662 20.1393 46.6755 19.85C46.6849 19.682 46.6895 19.5047 46.6895 19.318C46.6895 19.122 46.6849 18.94 46.6755 18.772C46.6662 18.492 46.6009 18.226 46.4795 17.974C46.3582 17.7127 46.1809 17.498 45.9475 17.33C45.7142 17.162 45.4109 17.078 45.0375 17.078C44.6455 17.078 44.3329 17.1667 44.0995 17.344C43.8755 17.512 43.7122 17.736 43.6095 18.016C43.5069 18.296 43.4462 18.604 43.4275 18.94C43.4182 19.22 43.4182 19.5 43.4275 19.78C43.4462 20.116 43.5069 20.424 43.6095 20.704C43.7122 20.984 43.8755 21.2127 44.0995 21.39C44.3329 21.558 44.6455 21.642 45.0375 21.642ZM53.3435 23.14C52.5968 23.14 51.9668 23.0093 51.4535 22.748C50.9495 22.4867 50.5621 22.118 50.2915 21.642C50.0301 21.166 49.8808 20.6107 49.8435 19.976C49.8341 19.808 49.8295 19.6027 49.8295 19.36C49.8295 19.1173 49.8341 18.912 49.8435 18.744C49.8808 18.1 50.0348 17.5447 50.3055 17.078C50.5855 16.602 50.9775 16.2333 51.4815 15.972C51.9948 15.7107 52.6155 15.58 53.3435 15.58C54.0715 15.58 54.6875 15.7107 55.1915 15.972C55.7048 16.2333 56.0968 16.602 56.3675 17.078C56.6475 17.5447 56.8061 18.1 56.8435 18.744C56.8528 18.912 56.8575 19.1173 56.8575 19.36C56.8575 19.6027 56.8528 19.808 56.8435 19.976C56.8061 20.6107 56.6521 21.166 56.3815 21.642C56.1201 22.118 55.7328 22.4867 55.2195 22.748C54.7155 23.0093 54.0901 23.14 53.3435 23.14ZM53.3435 21.754C53.8381 21.754 54.2208 21.6 54.4915 21.292C54.7621 20.9747 54.9115 20.5127 54.9395 19.906C54.9488 19.766 54.9535 19.584 54.9535 19.36C54.9535 19.136 54.9488 18.954 54.9395 18.814C54.9115 18.2167 54.7621 17.7593 54.4915 17.442C54.2208 17.1247 53.8381 16.966 53.3435 16.966C52.8488 16.966 52.4661 17.1247 52.1955 17.442C51.9248 17.7593 51.7755 18.2167 51.7475 18.814C51.7381 18.954 51.7335 19.136 51.7335 19.36C51.7335 19.584 51.7381 19.766 51.7475 19.906C51.7755 20.5127 51.9248 20.9747 52.1955 21.292C52.4661 21.6 52.8488 21.754 53.3435 21.754ZM64.0507 23C63.4907 23 63.0194 22.902 62.6367 22.706C62.2541 22.51 61.9694 22.2207 61.7827 21.838C61.5961 21.446 61.5027 20.9607 61.5027 20.382V17.204H60.3967C60.3034 17.204 60.2241 17.1713 60.1587 17.106C60.0934 17.0407 60.0607 16.9613 60.0607 16.868V16.056C60.0607 15.9627 60.0934 15.8833 60.1587 15.818C60.2241 15.7527 60.3034 15.72 60.3967 15.72H61.5027V13.396C61.5027 13.3027 61.5307 13.2233 61.5867 13.158C61.6521 13.0927 61.7361 13.06 61.8387 13.06H62.9727C63.0661 13.06 63.1454 13.0927 63.2107 13.158C63.2761 13.2233 63.3087 13.3027 63.3087 13.396V15.72H65.0587C65.1521 15.72 65.2314 15.7527 65.2967 15.818C65.3621 15.8833 65.3947 15.9627 65.3947 16.056V16.868C65.3947 16.9613 65.3621 17.0407 65.2967 17.106C65.2314 17.1713 65.1521 17.204 65.0587 17.204H63.3087V20.242C63.3087 20.6247 63.3741 20.9233 63.5047 21.138C63.6447 21.3527 63.8827 21.46 64.2187 21.46H65.1847C65.2781 21.46 65.3574 21.4927 65.4227 21.558C65.4881 21.6233 65.5207 21.7027 65.5207 21.796V22.664C65.5207 22.7573 65.4881 22.8367 65.4227 22.902C65.3574 22.9673 65.2781 23 65.1847 23H64.0507ZM66.8327 23C66.7393 23 66.66 22.9673 66.5947 22.902C66.5293 22.8367 66.4967 22.7573 66.4967 22.664V13.396C66.4967 13.3027 66.5293 13.2233 66.5947 13.158C66.66 13.0927 66.7393 13.06 66.8327 13.06H68.0787C68.1813 13.06 68.2607 13.0927 68.3167 13.158C68.382 13.2233 68.4147 13.3027 68.4147 13.396V16.588C68.6667 16.2893 68.9747 16.0467 69.3387 15.86C69.7027 15.6733 70.1507 15.58 70.6827 15.58C71.252 15.58 71.7467 15.7107 72.1667 15.972C72.596 16.224 72.9273 16.5833 73.1607 17.05C73.394 17.5167 73.5107 18.0767 73.5107 18.73V22.664C73.5107 22.7573 73.478 22.8367 73.4127 22.902C73.3473 22.9673 73.268 23 73.1747 23H71.9147C71.8213 23 71.742 22.9673 71.6767 22.902C71.6113 22.8367 71.5787 22.7573 71.5787 22.664V18.814C71.5787 18.2727 71.4433 17.848 71.1727 17.54C70.9113 17.232 70.5287 17.078 70.0247 17.078C69.5393 17.078 69.1473 17.232 68.8487 17.54C68.5593 17.848 68.4147 18.2727 68.4147 18.814V22.664C68.4147 22.7573 68.382 22.8367 68.3167 22.902C68.2607 22.9673 68.1813 23 68.0787 23H66.8327ZM75.3434 23C75.25 23 75.1707 22.9673 75.1054 22.902C75.04 22.8367 75.0074 22.7573 75.0074 22.664V16.056C75.0074 15.9627 75.04 15.8833 75.1054 15.818C75.1707 15.7527 75.25 15.72 75.3434 15.72H76.5054C76.608 15.72 76.6874 15.7527 76.7434 15.818C76.8087 15.8833 76.8414 15.9627 76.8414 16.056V22.664C76.8414 22.7573 76.8087 22.8367 76.7434 22.902C76.6874 22.9673 76.608 23 76.5054 23H75.3434ZM75.2874 14.516C75.1847 14.516 75.1007 14.488 75.0354 14.432C74.9794 14.3667 74.9514 14.2827 74.9514 14.18V13.172C74.9514 13.0787 74.9794 12.9993 75.0354 12.934C75.1007 12.8687 75.1847 12.836 75.2874 12.836H76.5614C76.664 12.836 76.748 12.8687 76.8134 12.934C76.8787 12.9993 76.9114 13.0787 76.9114 13.172V14.18C76.9114 14.2827 76.8787 14.3667 76.8134 14.432C76.748 14.488 76.664 14.516 76.5614 14.516H75.2874ZM81.3408 23.14C80.7808 23.14 80.3002 23.0747 79.8988 22.944C79.5068 22.8133 79.1848 22.65 78.9328 22.454C78.6808 22.258 78.4942 22.062 78.3728 21.866C78.2515 21.67 78.1862 21.5067 78.1768 21.376C78.1675 21.2733 78.1955 21.194 78.2608 21.138C78.3355 21.0727 78.4148 21.04 78.4988 21.04H79.6048C79.6422 21.04 79.6748 21.0447 79.7028 21.054C79.7308 21.0633 79.7682 21.0913 79.8148 21.138C79.9362 21.2407 80.0622 21.348 80.1928 21.46C80.3328 21.572 80.4962 21.67 80.6828 21.754C80.8695 21.8287 81.1028 21.866 81.3828 21.866C81.7468 21.866 82.0502 21.796 82.2928 21.656C82.5448 21.5067 82.6708 21.2967 82.6708 21.026C82.6708 20.83 82.6148 20.6713 82.5028 20.55C82.4002 20.4287 82.2042 20.3213 81.9148 20.228C81.6255 20.1253 81.2148 20.018 80.6828 19.906C80.1602 19.7847 79.7262 19.6307 79.3808 19.444C79.0355 19.2573 78.7788 19.024 78.6108 18.744C78.4428 18.464 78.3588 18.1373 78.3588 17.764C78.3588 17.4 78.4662 17.0547 78.6808 16.728C78.9048 16.392 79.2315 16.1167 79.6608 15.902C80.0995 15.6873 80.6408 15.58 81.2848 15.58C81.7888 15.58 82.2275 15.6453 82.6008 15.776C82.9742 15.8973 83.2822 16.0513 83.5248 16.238C83.7768 16.4247 83.9682 16.616 84.0988 16.812C84.2295 16.9987 84.2995 17.162 84.3088 17.302C84.3182 17.4047 84.2902 17.4887 84.2248 17.554C84.1595 17.61 84.0848 17.638 84.0008 17.638H82.9648C82.9182 17.638 82.8762 17.6287 82.8388 17.61C82.8015 17.5913 82.7642 17.568 82.7268 17.54C82.6242 17.4467 82.5122 17.3487 82.3908 17.246C82.2695 17.1433 82.1202 17.0547 81.9428 16.98C81.7748 16.896 81.5508 16.854 81.2708 16.854C80.9162 16.854 80.6455 16.9333 80.4588 17.092C80.2722 17.2413 80.1788 17.4327 80.1788 17.666C80.1788 17.8247 80.2208 17.9647 80.3048 18.086C80.3982 18.198 80.5802 18.3053 80.8508 18.408C81.1215 18.5107 81.5322 18.618 82.0828 18.73C82.7082 18.842 83.2028 19.01 83.5668 19.234C83.9402 19.4487 84.2015 19.7007 84.3508 19.99C84.5095 20.27 84.5888 20.5827 84.5888 20.928C84.5888 21.348 84.4628 21.726 84.2108 22.062C83.9682 22.398 83.6042 22.664 83.1188 22.86C82.6428 23.0467 82.0502 23.14 81.3408 23.14ZM89.0232 23C88.9299 23 88.8506 22.9673 88.7852 22.902C88.7199 22.8367 88.6872 22.7573 88.6872 22.664V13.396C88.6872 13.3027 88.7199 13.2233 88.7852 13.158C88.8506 13.0927 88.9299 13.06 89.0232 13.06H90.1852C90.2786 13.06 90.3579 13.0927 90.4232 13.158C90.4886 13.2233 90.5212 13.3027 90.5212 13.396V22.664C90.5212 22.7573 90.4886 22.8367 90.4232 22.902C90.3579 22.9673 90.2786 23 90.1852 23H89.0232ZM94.2123 23.14C93.727 23.14 93.2883 23.0467 92.8963 22.86C92.5043 22.664 92.1916 22.4073 91.9583 22.09C91.7343 21.7633 91.6223 21.3993 91.6223 20.998C91.6223 20.3447 91.8836 19.8267 92.4063 19.444C92.9383 19.052 93.6383 18.7907 94.5063 18.66L96.4243 18.38V18.086C96.4243 17.694 96.3263 17.3907 96.1303 17.176C95.9343 16.9613 95.5983 16.854 95.1223 16.854C94.7863 16.854 94.511 16.924 94.2963 17.064C94.091 17.1947 93.937 17.372 93.8343 17.596C93.7596 17.7173 93.6523 17.778 93.5123 17.778H92.4063C92.3036 17.778 92.2243 17.75 92.1683 17.694C92.1216 17.638 92.0983 17.5633 92.0983 17.47C92.1076 17.3207 92.1683 17.1387 92.2803 16.924C92.3923 16.7093 92.5696 16.504 92.8123 16.308C93.055 16.1027 93.3676 15.93 93.7503 15.79C94.133 15.65 94.595 15.58 95.1363 15.58C95.7243 15.58 96.219 15.6547 96.6203 15.804C97.031 15.944 97.3576 16.1353 97.6003 16.378C97.843 16.6207 98.0203 16.9053 98.1323 17.232C98.2443 17.5587 98.3003 17.904 98.3003 18.268V22.664C98.3003 22.7573 98.2676 22.8367 98.2023 22.902C98.137 22.9673 98.0576 23 97.9643 23H96.8303C96.7276 23 96.6436 22.9673 96.5783 22.902C96.5223 22.8367 96.4943 22.7573 96.4943 22.664V22.118C96.373 22.2953 96.2096 22.4633 96.0043 22.622C95.799 22.7713 95.547 22.8973 95.2483 23C94.959 23.0933 94.6136 23.14 94.2123 23.14ZM94.6883 21.81C95.015 21.81 95.309 21.74 95.5703 21.6C95.841 21.46 96.051 21.2453 96.2003 20.956C96.359 20.6573 96.4383 20.284 96.4383 19.836V19.542L95.0383 19.766C94.4876 19.85 94.077 19.9853 93.8063 20.172C93.5356 20.3587 93.4003 20.5873 93.4003 20.858C93.4003 21.0633 93.461 21.2407 93.5823 21.39C93.713 21.53 93.8763 21.6373 94.0723 21.712C94.2683 21.7773 94.4736 21.81 94.6883 21.81ZM103.038 23C102.478 23 102.007 22.902 101.624 22.706C101.241 22.51 100.957 22.2207 100.77 21.838C100.583 21.446 100.49 20.9607 100.49 20.382V17.204H99.384C99.2906 17.204 99.2113 17.1713 99.146 17.106C99.0806 17.0407 99.048 16.9613 99.048 16.868V16.056C99.048 15.9627 99.0806 15.8833 99.146 15.818C99.2113 15.7527 99.2906 15.72 99.384 15.72H100.49V13.396C100.49 13.3027 100.518 13.2233 100.574 13.158C100.639 13.0927 100.723 13.06 100.826 13.06H101.96C102.053 13.06 102.133 13.0927 102.198 13.158C102.263 13.2233 102.296 13.3027 102.296 13.396V15.72H104.046C104.139 15.72 104.219 15.7527 104.284 15.818C104.349 15.8833 104.382 15.9627 104.382 16.056V16.868C104.382 16.9613 104.349 17.0407 104.284 17.106C104.219 17.1713 104.139 17.204 104.046 17.204H102.296V20.242C102.296 20.6247 102.361 20.9233 102.492 21.138C102.632 21.3527 102.87 21.46 103.206 21.46H104.172C104.265 21.46 104.345 21.4927 104.41 21.558C104.475 21.6233 104.508 21.7027 104.508 21.796V22.664C104.508 22.7573 104.475 22.8367 104.41 22.902C104.345 22.9673 104.265 23 104.172 23H103.038ZM108.606 23.14C107.57 23.14 106.749 22.8413 106.142 22.244C105.535 21.6467 105.209 20.7973 105.162 19.696C105.153 19.6027 105.148 19.486 105.148 19.346C105.148 19.1967 105.153 19.08 105.162 18.996C105.199 18.296 105.358 17.6893 105.638 17.176C105.927 16.6627 106.324 16.2707 106.828 16C107.332 15.72 107.925 15.58 108.606 15.58C109.362 15.58 109.997 15.7387 110.51 16.056C111.023 16.364 111.411 16.798 111.672 17.358C111.933 17.9087 112.064 18.548 112.064 19.276V19.57C112.064 19.6633 112.031 19.7427 111.966 19.808C111.901 19.8733 111.817 19.906 111.714 19.906H107.066C107.066 19.906 107.066 19.92 107.066 19.948C107.066 19.976 107.066 19.9993 107.066 20.018C107.075 20.3447 107.136 20.648 107.248 20.928C107.369 21.1987 107.542 21.418 107.766 21.586C107.999 21.754 108.275 21.838 108.592 21.838C108.853 21.838 109.073 21.8007 109.25 21.726C109.427 21.642 109.572 21.5487 109.684 21.446C109.796 21.3433 109.875 21.2593 109.922 21.194C110.006 21.082 110.071 21.0167 110.118 20.998C110.174 20.97 110.253 20.956 110.356 20.956H111.56C111.653 20.956 111.728 20.984 111.784 21.04C111.849 21.096 111.877 21.166 111.868 21.25C111.859 21.3993 111.779 21.5813 111.63 21.796C111.49 22.0107 111.285 22.2207 111.014 22.426C110.743 22.6313 110.403 22.804 109.992 22.944C109.591 23.0747 109.129 23.14 108.606 23.14ZM107.066 18.73H110.16V18.688C110.16 18.324 110.099 18.0067 109.978 17.736C109.857 17.4653 109.679 17.2507 109.446 17.092C109.213 16.9333 108.933 16.854 108.606 16.854C108.279 16.854 107.999 16.9333 107.766 17.092C107.533 17.2507 107.355 17.4653 107.234 17.736C107.122 18.0067 107.066 18.324 107.066 18.688V18.73ZM113.606 23C113.513 23 113.433 22.9673 113.368 22.902C113.303 22.8367 113.27 22.7573 113.27 22.664V16.07C113.27 15.9673 113.303 15.8833 113.368 15.818C113.433 15.7527 113.513 15.72 113.606 15.72H114.74C114.833 15.72 114.913 15.7527 114.978 15.818C115.053 15.8833 115.09 15.9673 115.09 16.07V16.644C115.305 16.3453 115.58 16.1167 115.916 15.958C116.261 15.7993 116.658 15.72 117.106 15.72H117.68C117.783 15.72 117.862 15.7527 117.918 15.818C117.983 15.8833 118.016 15.9627 118.016 16.056V17.064C118.016 17.1573 117.983 17.2367 117.918 17.302C117.862 17.3673 117.783 17.4 117.68 17.4H116.588C116.14 17.4 115.79 17.526 115.538 17.778C115.295 18.03 115.174 18.3753 115.174 18.814V22.664C115.174 22.7573 115.141 22.8367 115.076 22.902C115.011 22.9673 114.927 23 114.824 23H113.606Z" fill="black"/>
<rect x="0.5" y="0.5" width="128" height="36" rx="18" stroke="black" stroke-opacity="0.1"/>
</svg>
