<svg width="32" height="32" viewBox="0 0 32 32" fill="none" xmlns="http://www.w3.org/2000/svg">
<g id="fluent:cart-20-filled">
<path id="Vector" d="M4.79521 5.59358C4.79521 5.38141 4.8795 5.17792 5.02952 5.02789C5.17955 4.87786 5.38304 4.79358 5.59521 4.79358H6.29601C7.45921 4.79358 8.12801 5.55038 8.51521 6.30558C8.77921 6.82238 8.96961 7.45278 9.12801 7.99998H25.6C25.8472 8.00005 26.0911 8.05742 26.3124 8.16757C26.5337 8.27772 26.7265 8.43766 26.8757 8.63485C27.0248 8.83203 27.1262 9.0611 27.1719 9.30406C27.2177 9.54702 27.2065 9.79727 27.1392 10.0352L24.7456 18.4752C24.5552 19.1448 24.1516 19.7341 23.5961 20.1536C23.0406 20.5731 22.3634 20.8001 21.6672 20.8H13.5408C12.8389 20.8002 12.1563 20.5696 11.5983 20.1438C11.0403 19.7179 10.6378 19.1203 10.4528 18.4432L9.42561 14.6752C9.41972 14.6583 9.41438 14.6412 9.40961 14.624L7.76001 9.02878L7.60001 8.48958C7.44001 7.93598 7.29921 7.44638 7.08801 7.03518C6.83361 6.53918 6.60001 6.39518 6.29441 6.39518H5.59361C5.38144 6.39518 5.17795 6.31089 5.02792 6.16086C4.87789 6.01084 4.79361 5.80735 4.79361 5.59518L4.79521 5.59358ZM13.6 27.2C14.2365 27.2 14.847 26.9471 15.2971 26.497C15.7472 26.0469 16 25.4365 16 24.8C16 24.1635 15.7472 23.553 15.2971 23.1029C14.847 22.6528 14.2365 22.4 13.6 22.4C12.9635 22.4 12.353 22.6528 11.903 23.1029C11.4529 23.553 11.2 24.1635 11.2 24.8C11.2 25.4365 11.4529 26.0469 11.903 26.497C12.353 26.9471 12.9635 27.2 13.6 27.2ZM21.6 27.2C22.2365 27.2 22.847 26.9471 23.2971 26.497C23.7472 26.0469 24 25.4365 24 24.8C24 24.1635 23.7472 23.553 23.2971 23.1029C22.847 22.6528 22.2365 22.4 21.6 22.4C20.9635 22.4 20.353 22.6528 19.903 23.1029C19.4529 23.553 19.2 24.1635 19.2 24.8C19.2 25.4365 19.4529 26.0469 19.903 26.497C20.353 26.9471 20.9635 27.2 21.6 27.2Z" fill="#2D8304"/>
</g>
</svg>
