<svg width="32" height="32" viewBox="0 0 32 32" fill="none" xmlns="http://www.w3.org/2000/svg">
<g id="fluent:cart-20-regular">
<path id="Vector" d="M4.79521 5.59358C4.79521 5.38141 4.8795 5.17792 5.02952 5.02789C5.17955 4.87786 5.38304 4.79358 5.59521 4.79358H6.29601C7.45921 4.79358 8.12801 5.55038 8.51521 6.30558C8.77921 6.82238 8.96961 7.45278 9.12801 7.99998H25.6C25.8472 8.00005 26.0911 8.05742 26.3124 8.16757C26.5337 8.27772 26.7265 8.43766 26.8757 8.63485C27.0248 8.83204 27.1262 9.0611 27.1719 9.30406C27.2177 9.54702 27.2065 9.79727 27.1392 10.0352L24.7456 18.4752C24.5552 19.1448 24.1516 19.7341 23.5961 20.1536C23.0406 20.5731 22.3634 20.8001 21.6672 20.8H13.5408C12.8389 20.8002 12.1563 20.5696 11.5983 20.1438C11.0403 19.7179 10.6378 19.1203 10.4528 18.4432L9.42561 14.6752C9.41972 14.6583 9.41438 14.6412 9.40961 14.624L7.76001 9.02878L7.60001 8.48958C7.44001 7.93598 7.29921 7.44638 7.08801 7.03518C6.83361 6.53918 6.60001 6.39518 6.29441 6.39518H5.59361C5.38144 6.39518 5.17795 6.31089 5.02792 6.16086C4.87789 6.01084 4.79361 5.80735 4.79361 5.59518L4.79521 5.59358ZM10.952 14.192L11.9968 18.0256C12.0894 18.364 12.2908 18.6626 12.5697 18.8754C12.8487 19.0882 13.1899 19.2033 13.5408 19.2032H21.6688C22.0167 19.2028 22.355 19.0891 22.6325 18.8792C22.9099 18.6693 23.1114 18.3747 23.2064 18.04L25.6 9.59998H9.60001L10.952 14.192ZM16 24.7984C16 25.4349 15.7472 26.0453 15.2971 26.4954C14.847 26.9455 14.2365 27.1984 13.6 27.1984C12.9635 27.1984 12.353 26.9455 11.903 26.4954C11.4529 26.0453 11.2 25.4349 11.2 24.7984C11.2 24.1619 11.4529 23.5514 11.903 23.1013C12.353 22.6512 12.9635 22.3984 13.6 22.3984C14.2365 22.3984 14.847 22.6512 15.2971 23.1013C15.7472 23.5514 16 24.1619 16 24.7984ZM14.4 24.7984C14.4 24.5862 14.3157 24.3827 14.1657 24.2327C14.0157 24.0827 13.8122 23.9984 13.6 23.9984C13.3878 23.9984 13.1844 24.0827 13.0343 24.2327C12.8843 24.3827 12.8 24.5862 12.8 24.7984C12.8 25.0106 12.8843 25.214 13.0343 25.3641C13.1844 25.5141 13.3878 25.5984 13.6 25.5984C13.8122 25.5984 14.0157 25.5141 14.1657 25.3641C14.3157 25.214 14.4 25.0106 14.4 24.7984ZM24 24.7984C24 25.4349 23.7472 26.0453 23.2971 26.4954C22.847 26.9455 22.2365 27.1984 21.6 27.1984C20.9635 27.1984 20.353 26.9455 19.903 26.4954C19.4529 26.0453 19.2 25.4349 19.2 24.7984C19.2 24.1619 19.4529 23.5514 19.903 23.1013C20.353 22.6512 20.9635 22.3984 21.6 22.3984C22.2365 22.3984 22.847 22.6512 23.2971 23.1013C23.7472 23.5514 24 24.1619 24 24.7984ZM22.4 24.7984C22.4 24.5862 22.3157 24.3827 22.1657 24.2327C22.0157 24.0827 21.8122 23.9984 21.6 23.9984C21.3878 23.9984 21.1844 24.0827 21.0343 24.2327C20.8843 24.3827 20.8 24.5862 20.8 24.7984C20.8 25.0106 20.8843 25.214 21.0343 25.3641C21.1844 25.5141 21.3878 25.5984 21.6 25.5984C21.8122 25.5984 22.0157 25.5141 22.1657 25.3641C22.3157 25.214 22.4 25.0106 22.4 24.7984Z" fill="#595959"/>
</g>
</svg>
