<svg width="32" height="32" viewBox="0 0 32 32" fill="none" xmlns="http://www.w3.org/2000/svg">
<g id="fluent:people-community-20-filled">
<path id="Vector" d="M12.6064 12C13.4128 11.024 14.6336 10.4 16 10.4C17.3664 10.4 18.5872 11.024 19.3936 12C19.9245 12.6437 20.2615 13.4251 20.3651 14.253C20.4688 15.0809 20.3349 15.9213 19.9791 16.676C19.6232 17.4307 19.0601 18.0687 18.3555 18.5155C17.6508 18.9624 16.8336 19.1996 15.9992 19.1996C15.1648 19.1996 14.3476 18.9624 13.6429 18.5155C12.9383 18.0687 12.3752 17.4307 12.0194 16.676C11.6635 15.9213 11.5296 15.0809 11.6333 14.253C11.737 13.4251 12.0739 12.6437 12.6048 12H12.6064ZM22 14.8C22 13.7888 21.7504 12.8352 21.3088 12H28C28.6365 12 29.247 12.2528 29.6971 12.7029C30.1471 13.153 30.4 13.7635 30.4 14.4V15.2C30.4 17.7392 28.4704 20.3392 25.096 21.2544C24.7492 20.6315 24.2423 20.1125 23.6276 19.7513C23.013 19.3901 22.3129 19.1998 21.6 19.2H20.08C20.6865 18.6389 21.1701 17.9582 21.5006 17.201C21.831 16.4437 22.0011 15.6262 22 14.8ZM21.6 20.8C21.9154 20.7991 22.2279 20.8606 22.5194 20.9809C22.811 21.1013 23.0759 21.278 23.2989 21.501C23.522 21.7241 23.6987 21.989 23.819 22.2805C23.9393 22.5721 24.0008 22.8846 24 23.2V24C24 27.1536 21.024 30.4 16 30.4C10.976 30.4 8.00001 27.1536 8.00001 24V23.2C7.99916 22.8846 8.06066 22.5721 8.18097 22.2805C8.30129 21.989 8.47804 21.7241 8.70107 21.501C8.9241 21.278 9.189 21.1013 9.48057 20.9809C9.77213 20.8606 10.0846 20.7991 10.4 20.8H21.6ZM1.60001 15.2C1.60001 17.7392 3.52961 20.3392 6.90401 21.2544C7.25078 20.6315 7.75773 20.1125 8.37239 19.7513C8.98705 19.3901 9.68707 19.1998 10.4 19.2H11.92C11.3136 18.6389 10.8299 17.9582 10.4994 17.201C10.169 16.4437 9.99894 15.6262 10 14.8C10 13.7888 10.2496 12.8352 10.6928 12H4.00001C3.36349 12 2.75304 12.2528 2.30295 12.7029C1.85286 13.153 1.60001 13.7635 1.60001 14.4V15.2ZM14 5.99998C14 4.83302 13.5364 3.71387 12.7113 2.88871C11.8861 2.06355 10.767 1.59998 9.60001 1.59998C8.43305 1.59998 7.3139 2.06355 6.48874 2.88871C5.66358 3.71387 5.20001 4.83302 5.20001 5.99998C5.20001 7.16693 5.66358 8.28609 6.48874 9.11125C7.3139 9.93641 8.43305 10.4 9.60001 10.4C10.767 10.4 11.8861 9.93641 12.7113 9.11125C13.5364 8.28609 14 7.16693 14 5.99998ZM26.8 5.99998C26.8 4.83302 26.3364 3.71387 25.5113 2.88871C24.6861 2.06355 23.567 1.59998 22.4 1.59998C21.2331 1.59998 20.1139 2.06355 19.2887 2.88871C18.4636 3.71387 18 4.83302 18 5.99998C18 7.16693 18.4636 8.28609 19.2887 9.11125C20.1139 9.93641 21.2331 10.4 22.4 10.4C23.567 10.4 24.6861 9.93641 25.5113 9.11125C26.3364 8.28609 26.8 7.16693 26.8 5.99998Z" fill="#2D8304"/>
</g>
</svg>
