<svg width="32" height="32" viewBox="0 0 32 32" fill="none" xmlns="http://www.w3.org/2000/svg">
<g id="fluent:people-community-20-regular">
<path id="Vector" d="M14 5.99998C14 4.83302 13.5364 3.71387 12.7113 2.88871C11.8861 2.06355 10.767 1.59998 9.60001 1.59998C8.43305 1.59998 7.3139 2.06355 6.48874 2.88871C5.66358 3.71387 5.20001 4.83302 5.20001 5.99998C5.20001 7.16693 5.66358 8.28609 6.48874 9.11125C7.3139 9.93641 8.43305 10.4 9.60001 10.4C10.767 10.4 11.8861 9.93641 12.7113 9.11125C13.5364 8.28609 14 7.16693 14 5.99998ZM6.80001 5.99998C6.80001 5.63227 6.87243 5.26817 7.01314 4.92846C7.15386 4.58875 7.3601 4.28008 7.62011 4.02008C7.88011 3.76007 8.18878 3.55383 8.52849 3.41311C8.8682 3.2724 9.2323 3.19998 9.60001 3.19998C9.96771 3.19998 10.3318 3.2724 10.6715 3.41311C11.0112 3.55383 11.3199 3.76007 11.5799 4.02008C11.8399 4.28008 12.0462 4.58875 12.1869 4.92846C12.3276 5.26817 12.4 5.63227 12.4 5.99998C12.4 6.74258 12.105 7.45477 11.5799 7.97987C11.0548 8.50498 10.3426 8.79997 9.60001 8.79998C8.8574 8.79998 8.14521 8.50498 7.62011 7.97987C7.09501 7.45477 6.80001 6.74258 6.80001 5.99998ZM4.00001 12H10.6928C10.4304 12.496 10.2352 13.0336 10.12 13.6H4.00001C3.78783 13.6 3.58435 13.6843 3.43432 13.8343C3.28429 13.9843 3.20001 14.1878 3.20001 14.4V15.2C3.20001 17.216 4.95841 19.3824 8.15361 19.888C7.63841 20.24 7.20961 20.7088 6.90401 21.2544C3.52801 20.3408 1.60001 17.7392 1.60001 15.2V14.4C1.60001 13.7635 1.85286 13.153 2.30295 12.7029C2.75304 12.2528 3.36349 12 4.00001 12ZM12.6064 12C13.4128 11.024 14.6336 10.4 16 10.4C16.9582 10.3983 17.8906 10.7101 18.655 11.2879C19.4194 11.8657 19.9738 12.6777 20.2336 13.6C20.4652 14.4232 20.4521 15.296 20.196 16.1119C19.94 16.9278 19.4519 17.6515 18.7915 18.1947C18.131 18.7379 17.3267 19.0772 16.4768 19.171C15.6268 19.2648 14.7678 19.1092 14.0048 18.7232C13.4173 18.4242 12.9045 17.997 12.5043 17.4732C12.1041 16.9493 11.8267 16.3423 11.6926 15.6969C11.5585 15.0514 11.5711 14.3841 11.7296 13.7442C11.888 13.1044 12.1866 12.5083 12.6064 12ZM13.4704 13.6C13.3128 13.9324 13.2222 14.2926 13.2039 14.66C13.1855 15.0274 13.2396 15.3948 13.3632 15.7413C13.4869 16.0877 13.6775 16.4065 13.9243 16.6793C14.1711 16.9521 14.4692 17.1736 14.8016 17.3312C15.134 17.4888 15.4942 17.5793 15.8616 17.5977C16.229 17.6161 16.5964 17.5619 16.9429 17.4383C17.2894 17.3147 17.6081 17.1241 17.8809 16.8773C18.1537 16.6305 18.3752 16.3324 18.5328 16C18.8511 15.3284 18.8895 14.558 18.6397 13.8581C18.3899 13.1582 17.8723 12.5862 17.2008 12.268C16.5293 11.9497 15.7588 11.9113 15.0589 12.1611C14.3591 12.4109 13.7887 12.9284 13.4704 13.6ZM25.096 21.2544C24.7912 20.7085 24.3634 20.2412 23.8464 19.8896C27.04 19.3824 28.8 17.2144 28.8 15.2V14.4C28.8 14.1878 28.7157 13.9843 28.5657 13.8343C28.4157 13.6843 28.2122 13.6 28 13.6H21.88C21.767 13.0421 21.5746 12.5033 21.3088 12H28C28.6365 12 29.247 12.2528 29.6971 12.7029C30.1471 13.153 30.4 13.7635 30.4 14.4V15.2C30.4 17.7392 28.4704 20.3392 25.096 21.2544ZM23.1792 21.3936C22.7425 21.0102 22.1811 20.7992 21.6 20.8H10.4C10.0846 20.7991 9.77213 20.8606 9.48057 20.9809C9.189 21.1013 8.9241 21.278 8.70107 21.501C8.47804 21.7241 8.30129 21.989 8.18097 22.2805C8.06066 22.5721 7.99916 22.8846 8.00001 23.2V24C8.00001 27.1536 10.976 30.4 16 30.4C21.024 30.4 24 27.1536 24 24V23.2C24 22.48 23.6832 21.8336 23.1792 21.392V21.3936ZM9.60001 23.2C9.60001 22.9878 9.68429 22.7843 9.83432 22.6343C9.98435 22.4843 10.1878 22.4 10.4 22.4H21.6C21.8122 22.4 22.0157 22.4843 22.1657 22.6343C22.3157 22.7843 22.4 22.9878 22.4 23.2V24C22.4 26.3008 20.1088 28.8 16 28.8C11.8912 28.8 9.60001 26.3008 9.60001 24V23.2ZM22.4 1.59998C23.567 1.59998 24.6861 2.06355 25.5113 2.88871C26.3364 3.71387 26.8 4.83302 26.8 5.99998C26.8 7.16693 26.3364 8.28609 25.5113 9.11125C24.6861 9.93641 23.567 10.4 22.4 10.4C21.2331 10.4 20.1139 9.93641 19.2887 9.11125C18.4636 8.28609 18 7.16693 18 5.99998C18 4.83302 18.4636 3.71387 19.2887 2.88871C20.1139 2.06355 21.2331 1.59998 22.4 1.59998ZM22.4 3.19998C21.6574 3.19998 20.9452 3.49497 20.4201 4.02008C19.895 4.54518 19.6 5.25737 19.6 5.99998C19.6 6.74258 19.895 7.45477 20.4201 7.97987C20.9452 8.50498 21.6574 8.79998 22.4 8.79998C23.1426 8.79998 23.8548 8.50498 24.3799 7.97987C24.905 7.45477 25.2 6.74258 25.2 5.99998C25.2 5.25737 24.905 4.54518 24.3799 4.02008C23.8548 3.49497 23.1426 3.19998 22.4 3.19998Z" fill="#595959"/>
</g>
</svg>
