<svg width="32" height="32" viewBox="0 0 32 32" fill="none" xmlns="http://www.w3.org/2000/svg">
<g id="ri:plant-fill">
<path id="Vector" d="M27.9973 3.99996V6.66663C27.9973 9.14198 27.014 11.516 25.2636 13.2663C23.5133 15.0166 21.1393 16 18.664 16H17.3306V17.3333H23.9973V26.6666C23.9973 27.3739 23.7164 28.0522 23.2163 28.5522C22.7162 29.0523 22.0379 29.3333 21.3306 29.3333H10.664C9.95673 29.3333 9.27845 29.0523 8.77835 28.5522C8.27826 28.0522 7.9973 27.3739 7.9973 26.6666V17.3333H14.664V13.3333C14.664 10.8579 15.6473 8.48397 17.3976 6.73363C19.148 4.98329 21.5219 3.99996 23.9973 3.99996H27.9973ZM7.33064 2.66663C8.9306 2.66533 10.5075 3.04847 11.9284 3.78379C13.3494 4.51912 14.5729 5.58509 15.496 6.89196C14.0879 8.74382 13.3271 11.0069 13.3306 13.3333V14.6666H12.664C10.0118 14.6666 7.46827 13.6131 5.5929 11.7377C3.71754 9.86233 2.66397 7.31879 2.66397 4.66663V2.66663H7.33064Z" fill="#2D8304"/>
</g>
</svg>
