<svg width="32" height="32" viewBox="0 0 32 32" fill="none" xmlns="http://www.w3.org/2000/svg">
<path d="M16 16H20C22.1217 16 24.1566 15.1571 25.6569 13.6569C27.1571 12.1566 28 10.1217 28 8V6.66667H24C21.8783 6.66667 19.8434 7.50952 18.3431 9.00981C16.8429 10.5101 16 12.5449 16 14.6667H12C9.87827 14.6667 7.84344 13.8238 6.34315 12.3235C4.84286 10.8232 4 8.7884 4 6.66667V4H8C10.1217 4 12.1566 4.84286 13.6569 6.34315C15.1571 7.84344 16 9.87827 16 12V20M9.33333 20H22.6667V25.3333C22.6667 26.0406 22.3857 26.7189 21.8856 27.219C21.3855 27.719 20.7072 28 20 28H12C11.2928 28 10.6145 27.719 10.1144 27.219C9.61428 26.7189 9.33333 26.0406 9.33333 25.3333V20Z" stroke="#595959" stroke-width="1.33333" stroke-linecap="round" stroke-linejoin="round"/>
</svg>
