<svg width="32" height="32" viewBox="0 0 32 32" fill="none" xmlns="http://www.w3.org/2000/svg">
<g id="fluent:home-20-filled">
<path id="Vector" d="M17.6032 3.82066C17.1627 3.42488 16.5914 3.20593 15.9992 3.20593C15.407 3.20593 14.8357 3.42488 14.3952 3.82066L5.59519 11.7279C5.34498 11.9529 5.14489 12.228 5.0079 12.5353C4.8709 12.8427 4.80006 13.1754 4.79999 13.5119V24.7999C4.79999 25.4364 5.05284 26.0468 5.50293 26.4969C5.95302 26.947 6.56347 27.1999 7.19999 27.1999H10.4C11.0365 27.1999 11.647 26.947 12.097 26.4969C12.5471 26.0468 12.8 25.4364 12.8 24.7999V18.3999C12.8 18.1877 12.8843 17.9842 13.0343 17.8342C13.1843 17.6841 13.3878 17.5999 13.6 17.5999H18.4C18.6122 17.5999 18.8156 17.6841 18.9657 17.8342C19.1157 17.9842 19.2 18.1877 19.2 18.3999V24.7999C19.2 25.4364 19.4528 26.0468 19.9029 26.4969C20.353 26.947 20.9635 27.1999 21.6 27.1999H24.8C25.4365 27.1999 26.047 26.947 26.497 26.4969C26.9471 26.0468 27.2 25.4364 27.2 24.7999V13.5119C27.1999 13.1754 27.1291 12.8427 26.9921 12.5353C26.8551 12.228 26.655 11.9529 26.4048 11.7279L17.6048 3.82066H17.6032Z" fill="#2D8304"/>
</g>
</svg>
