<svg width="32" height="32" viewBox="0 0 32 32" fill="none" xmlns="http://www.w3.org/2000/svg">
<g id="solar:shop-bold">
<path id="Vector" d="M5.03732 4.87329C4.79599 5.35329 4.67732 5.94796 4.43999 7.13463L3.64266 11.1213C3.52966 11.6649 3.52878 12.2258 3.64008 12.7697C3.75139 13.3136 3.97253 13.8291 4.28997 14.2846C4.60742 14.74 5.01448 15.1259 5.48624 15.4186C5.95801 15.7113 6.48454 15.9047 7.03362 15.9868C7.5827 16.069 8.14277 16.0382 8.67953 15.8963C9.2163 15.7545 9.71847 15.5046 10.1553 15.162C10.5921 14.8193 10.9545 14.3911 11.2201 13.9036C11.4857 13.4161 11.649 12.8795 11.7 12.3266L11.7933 11.4066C11.7417 11.9923 11.813 12.5822 12.0026 13.1387C12.1922 13.6952 12.4959 14.206 12.8942 14.6383C13.2926 15.0707 13.7768 15.4151 14.316 15.6495C14.8551 15.884 15.4373 16.0032 16.0252 15.9997C16.613 15.9961 17.1937 15.8699 17.73 15.629C18.2663 15.3881 18.7463 15.0378 19.1395 14.6007C19.5326 14.1636 19.8301 13.6492 20.0129 13.0904C20.1958 12.5317 20.26 11.9409 20.2013 11.356L20.3 12.3266C20.351 12.8795 20.5143 13.4161 20.7799 13.9036C21.0455 14.3911 21.4078 14.8193 21.8447 15.162C22.2815 15.5046 22.7837 15.7545 23.3204 15.8963C23.8572 16.0382 24.4173 16.069 24.9664 15.9868C25.5154 15.9047 26.042 15.7113 26.5137 15.4186C26.9855 15.1259 27.3926 14.74 27.71 14.2846C28.0274 13.8291 28.2486 13.3136 28.3599 12.7697C28.4712 12.2258 28.4703 11.6649 28.3573 11.1213L27.56 7.13463C27.3227 5.94796 27.204 5.35463 26.9627 4.87329C26.7112 4.37201 26.3571 3.92921 25.9235 3.57363C25.4898 3.21805 24.9862 2.95763 24.4453 2.80929C23.9253 2.66663 23.32 2.66663 22.1093 2.66663H9.89066C8.67999 2.66663 8.07466 2.66663 7.55466 2.80929C7.01381 2.95763 6.51021 3.21805 6.07653 3.57363C5.64285 3.92921 5.28878 4.37201 5.03732 4.87329ZM24.3573 18C25.3995 18.0028 26.4248 17.7359 27.3333 17.2253V18.6666C27.3333 23.6946 27.3333 26.2093 25.7707 27.7706C24.5133 29.0293 22.64 29.2733 19.3333 29.3213V24.6666C19.3333 23.42 19.3333 22.7973 19.0653 22.3333C18.8898 22.0293 18.6373 21.7768 18.3333 21.6013C17.8693 21.3333 17.2467 21.3333 16 21.3333C14.7533 21.3333 14.1307 21.3333 13.6667 21.6013C13.3626 21.7768 13.1102 22.0293 12.9347 22.3333C12.6667 22.7973 12.6667 23.42 12.6667 24.6666V29.3213C9.35999 29.2733 7.48666 29.028 6.22932 27.7706C4.66666 26.2093 4.66666 23.6946 4.66666 18.6666V17.2253C5.57521 17.7359 6.60043 18.0028 7.64266 18C9.18354 18.0011 10.6671 17.4157 11.792 16.3626C12.9385 17.4187 14.4412 18.0034 16 18C17.5583 18.003 19.0604 17.4183 20.2067 16.3626C21.3326 17.4166 22.8177 18.0021 24.36 18H24.3573Z" fill="#2D8304"/>
</g>
</svg>
