<svg width="32" height="32" viewBox="0 0 32 32" fill="none" xmlns="http://www.w3.org/2000/svg">
<path d="M4.66666 14.6667V18.6667C4.66666 23.6947 4.66666 26.2094 6.22932 27.7707C7.79066 29.3334 10.3053 29.3334 15.3333 29.3334H16.6667C21.6947 29.3334 24.2093 29.3334 25.7707 27.7707C27.3333 26.2094 27.3333 23.6947 27.3333 18.6667V14.6667" stroke="#595959" stroke-width="1.33333"/>
<path d="M12.6666 2.66669H19.3333L20.2026 11.356C20.2599 11.9424 20.1939 12.5342 20.0087 13.0935C19.8236 13.6528 19.5234 14.1672 19.1276 14.6035C18.7318 15.0399 18.249 15.3886 17.7104 15.6273C17.1718 15.8659 16.5891 15.9892 16 15.9892C15.4108 15.9892 14.8282 15.8659 14.2896 15.6273C13.7509 15.3886 13.2682 15.0399 12.8723 14.6035C12.4765 14.1672 12.1764 13.6528 11.9912 13.0935C11.8061 12.5342 11.74 11.9424 11.7973 11.356L12.6666 2.66669Z" stroke="#595959" stroke-width="1.33333"/>
<path d="M4.43999 7.13469C4.67732 5.94802 4.79599 5.35469 5.03732 4.87335C5.28878 4.37207 5.64285 3.92927 6.07653 3.57369C6.51021 3.21811 7.01381 2.95769 7.55466 2.80935C8.07466 2.66669 8.67999 2.66669 9.89066 2.66669H12.6667L11.7 12.3267C11.649 12.8795 11.4857 13.4161 11.2201 13.9037C10.9545 14.3912 10.5921 14.8194 10.1553 15.162C9.71847 15.5047 9.2163 15.7546 8.67953 15.8964C8.14277 16.0382 7.5827 16.069 7.03362 15.9869C6.48454 15.9047 5.95801 15.7114 5.48624 15.4187C5.01448 15.126 4.60742 14.7401 4.28997 14.2846C3.97253 13.8291 3.75139 13.3137 3.64008 12.7697C3.52878 12.2258 3.52966 11.6649 3.64266 11.1214L4.43999 7.13469ZM27.56 7.13469C27.3227 5.94802 27.204 5.35469 26.9627 4.87335C26.7112 4.37207 26.3571 3.92927 25.9235 3.57369C25.4898 3.21811 24.9862 2.95769 24.4453 2.80935C23.9253 2.66669 23.32 2.66669 22.1093 2.66669H19.3333L20.3 12.3267C20.351 12.8795 20.5143 13.4161 20.7799 13.9037C21.0455 14.3912 21.4078 14.8194 21.8447 15.162C22.2815 15.5047 22.7837 15.7546 23.3204 15.8964C23.8572 16.0382 24.4173 16.069 24.9664 15.9869C25.5154 15.9047 26.042 15.7114 26.5137 15.4187C26.9855 15.126 27.3926 14.7401 27.71 14.2846C28.0274 13.8291 28.2486 13.3137 28.3599 12.7697C28.4712 12.2258 28.4703 11.6649 28.3573 11.1214L27.56 7.13469Z" stroke="#595959" stroke-width="1.33333"/>
<path d="M12.6667 28.6666V24.6666C12.6667 23.42 12.6667 22.7973 12.9347 22.3333C13.1102 22.0293 13.3626 21.7768 13.6667 21.6013C14.1307 21.3333 14.7533 21.3333 16 21.3333C17.2467 21.3333 17.8693 21.3333 18.3333 21.6013C18.6373 21.7768 18.8898 22.0293 19.0653 22.3333C19.3333 22.7973 19.3333 23.42 19.3333 24.6666V28.6666" stroke="#595959" stroke-width="1.33333" stroke-linecap="round"/>
</svg>
