<svg width="50" height="50" viewBox="0 0 50 50" fill="none" xmlns="http://www.w3.org/2000/svg">
<rect width="50" height="50" rx="25" fill="#F1FDFF"/>
<path fill-rule="evenodd" clip-rule="evenodd" d="M16.8841 36.9275H34.2619C35.2902 36.9275 36.1238 36.1002 36.1238 35.0797V26.4565C36.1238 26.1164 35.8459 25.8406 35.5032 25.8406C35.1605 25.8406 34.8825 26.1164 34.8825 26.4565V35.0797C34.8825 35.4198 34.6046 35.6957 34.2619 35.6957H16.8841C16.5414 35.6957 16.2635 35.4198 16.2635 35.0797L16.2635 14.1377C16.2635 13.7975 16.5414 13.5218 16.8841 13.5218H31.8603C32.203 13.5218 32.4809 13.7975 32.4809 14.1377V32.6159C32.4809 32.9561 32.7588 33.2319 33.1016 33.2319C33.4443 33.2319 33.7222 32.9561 33.7222 32.6159V14.1377C33.7222 13.1172 32.8886 12.2899 31.8603 12.2899H16.8841C15.8558 12.2899 15.0222 13.1172 15.0222 14.1377L15.0222 35.0797C15.0222 36.1002 15.8558 36.9275 16.8841 36.9275Z" fill="#237AAB"/>
<path fill-rule="evenodd" clip-rule="evenodd" d="M29.2968 17.3714H19.3666V20.1431H29.2968V17.3714ZM19.3666 16.1395C18.6811 16.1395 18.1254 16.691 18.1254 17.3714V20.1431C18.1254 20.8235 18.6811 21.375 19.3666 21.375H29.2968C29.9823 21.375 30.5381 20.8235 30.5381 20.1431V17.3714C30.5381 16.691 29.9823 16.1395 29.2968 16.1395H19.3666Z" fill="#237AAB"/>
<path fill-rule="evenodd" clip-rule="evenodd" d="M18.1254 23.3768C18.1254 23.0367 18.4032 22.7609 18.746 22.7609H29.9174C30.2601 22.7609 30.5381 23.0367 30.5381 23.3768C30.5381 23.7171 30.2601 23.9927 29.9174 23.9927H18.746C18.4032 23.9927 18.1254 23.7171 18.1254 23.3768Z" fill="#237AAB"/>
<path fill-rule="evenodd" clip-rule="evenodd" d="M18.1254 25.8406C18.1254 25.5005 18.4032 25.2246 18.746 25.2246H29.9174C30.2601 25.2246 30.5381 25.5005 30.5381 25.8406C30.5381 26.1808 30.2601 26.4565 29.9174 26.4565H18.746C18.4032 26.4565 18.1254 26.1808 18.1254 25.8406Z" fill="#237AAB"/>
<path fill-rule="evenodd" clip-rule="evenodd" d="M18.1254 28.3043C18.1254 27.9642 18.4032 27.6884 18.746 27.6884H29.9174C30.2601 27.6884 30.5381 27.9642 30.5381 28.3043C30.5381 28.6446 30.2601 28.9203 29.9174 28.9203H18.746C18.4032 28.9203 18.1254 28.6446 18.1254 28.3043Z" fill="#237AAB"/>
<path fill-rule="evenodd" clip-rule="evenodd" d="M18.1254 30.7681C18.1254 30.428 18.4032 30.1522 18.746 30.1522H24.9524C25.2951 30.1522 25.573 30.428 25.573 30.7681C25.573 31.1084 25.2951 31.3841 24.9524 31.3841H18.746C18.4032 31.3841 18.1254 31.1084 18.1254 30.7681Z" fill="#237AAB"/>
</svg>
