<svg width="16" height="16" viewBox="0 0 16 16" fill="none" xmlns="http://www.w3.org/2000/svg">
<path d="M2 13.577V4.66564C2 4.35649 2.12281 4.06001 2.34141 3.84141C2.56001 3.62281 2.85649 3.5 3.16564 3.5H11.3251C11.6343 3.5 11.9307 3.62281 12.1493 3.84141C12.3679 4.06001 12.4908 4.35649 12.4908 4.66564V10.4938C12.4908 10.803 12.3679 11.0995 12.1493 11.3181C11.9307 11.5367 11.6343 11.6595 11.3251 11.6595H4.89137C4.71666 11.6595 4.54419 11.6988 4.38671 11.7745C4.22924 11.8501 4.09078 11.9602 3.98159 12.0966L2.62303 13.7949C2.57782 13.8516 2.51612 13.8928 2.44646 13.9129C2.3768 13.9329 2.30263 13.9308 2.23421 13.9069C2.16579 13.883 2.1065 13.8384 2.06454 13.7792C2.02258 13.7201 2.00003 13.6494 2 13.577Z" stroke="#1D1D1D" stroke-width="0.87423"/>
</svg>
