<svg width="50" height="50" viewBox="0 0 50 50" fill="none" xmlns="http://www.w3.org/2000/svg">
<rect width="50" height="50" rx="25" fill="#2D8304" fill-opacity="0.05"/>
<g clip-path="url(#clip0_30_4597)">
<path d="M25 12.3C18.5488 12.3 13.3 17.5488 13.3 24C13.3 25.956 13.7992 27.888 14.746 29.6136L13.3348 34.5528C13.2448 34.8672 13.3324 35.2056 13.564 35.436C13.7356 35.6076 13.9648 35.7 14.2 35.7C14.2828 35.7 14.3656 35.6892 14.4472 35.6652L19.3864 34.254C21.112 35.202 23.044 35.7 25 35.7C31.4512 35.7 36.7 30.4512 36.7 24C36.7 17.5488 31.4512 12.3 25 12.3ZM25 33.9C23.236 33.9 21.4948 33.42 19.9624 32.5104C19.822 32.4276 19.6624 32.3844 19.5028 32.3844C19.42 32.3844 19.3372 32.3964 19.2556 32.4192L15.5092 33.4896L16.5796 29.7432C16.648 29.5056 16.6144 29.25 16.4884 29.0364C15.58 27.5052 15.0988 25.7628 15.0988 23.9988C15.1 18.5412 19.5412 14.1 25 14.1C30.4588 14.1 34.9 18.5412 34.9 24C34.9 29.4588 30.4588 33.9 25 33.9ZM25.948 27.852C25.996 27.96 26.02 28.08 26.02 28.2C26.02 28.44 25.924 28.668 25.756 28.836C25.588 29.004 25.348 29.1 25.12 29.1C25 29.1 24.88 29.076 24.772 29.028C24.664 28.98 24.568 28.92 24.484 28.836C24.4 28.752 24.328 28.656 24.28 28.548C24.244 28.44 24.22 28.32 24.22 28.2C24.22 28.08 24.244 27.96 24.28 27.852C24.328 27.744 24.4 27.648 24.484 27.564C24.568 27.48 24.664 27.42 24.772 27.372C24.988 27.276 25.24 27.276 25.456 27.372C25.576 27.42 25.672 27.48 25.756 27.564C25.84 27.648 25.9 27.744 25.948 27.852ZM28.1452 20.8596C28.456 21.7632 28.2916 22.7592 27.706 23.5236C27.6748 23.5644 27.64 23.6016 27.604 23.6364L26.1964 24.9396C26.0788 25.1136 26.0176 25.3092 26.0176 25.512C26.0176 26.0088 25.6144 26.412 25.1176 26.412C24.6208 26.412 24.2176 26.0088 24.2176 25.512C24.2176 24.8904 24.4204 24.2952 24.8056 23.7924C24.8368 23.7516 24.8716 23.7144 24.9088 23.6796L26.3164 22.3764C26.506 22.098 26.5516 21.762 26.4436 21.4452C26.326 21.1056 26.0488 20.8548 25.6828 20.76C25.3204 20.664 25.0348 20.6856 24.8092 20.82C24.4396 21.042 24.2464 21.5544 24.2044 21.7332C24.088 22.2132 23.6068 22.5192 23.1256 22.404C22.6444 22.2936 22.342 21.8196 22.4488 21.3372C22.48 21.1968 22.7824 19.95 23.8648 19.2888C24.3148 19.014 25.0768 18.7428 26.1388 19.0188C27.0856 19.266 27.8356 19.9536 28.1476 20.8608L28.1452 20.8596Z" fill="#2D8304"/>
</g>
<defs>
<clipPath id="clip0_30_4597">
<rect width="24" height="24" fill="white" transform="translate(13 12)"/>
</clipPath>
</defs>
</svg>
