<svg width="16" height="16" viewBox="0 0 16 16" fill="none" xmlns="http://www.w3.org/2000/svg">
<path d="M3.33329 6V14H0.666626V6H3.33329ZM5.99996 14C5.64634 14 5.3072 13.8595 5.05715 13.6095C4.8071 13.3594 4.66663 13.0203 4.66663 12.6667V6C4.66663 5.63334 4.81329 5.3 5.05996 5.06L9.44663 0.666672L10.1533 1.37334C10.3333 1.55334 10.4466 1.8 10.4466 2.07334L10.4266 2.28667L9.79329 5.33334H14C14.3536 5.33334 14.6927 5.47381 14.9428 5.72386C15.1928 5.97391 15.3333 6.31305 15.3333 6.66667V8C15.3333 8.17334 15.3 8.33334 15.24 8.48667L13.2266 13.1867C13.0266 13.6667 12.5533 14 12 14H5.99996ZM5.99996 12.6667H12.02L14 8V6.66667H8.13996L8.89329 3.12L5.99996 6.02V12.6667Z" fill="#1D1D1D"/>
</svg>
