<svg xmlns="http://www.w3.org/2000/svg" width="16" height="28" viewBox="0 0 16 28" fill="none">
  <g clip-path="url(#clip0_101_13032)">
    <path d="M4.75083 13.4217L5.26131 13.6021V24.4034C5.26131 25.4837 6.13703 26.3594 7.21729 26.3594H20.7827C21.863 26.3594 22.7387 25.4837 22.7387 24.4034V13.6021L23.2492 13.4217C25.0979 12.7683 26.3594 11.0147 26.3594 9.02155C26.3594 6.44492 24.2706 4.35614 21.694 4.35614C21.0073 4.35614 20.3432 4.50407 19.7349 4.78594L19.0308 5.11223L18.7141 4.40382C17.9686 2.73666 16.3108 1.64062 14.4526 1.64062C12.4556 1.64062 10.6995 2.90693 10.049 4.76075L9.72154 5.69384L8.90018 5.14318C8.13863 4.63263 7.24391 4.35614 6.30603 4.35614C3.7294 4.35614 1.64062 6.44492 1.64062 9.02155C1.64062 11.0147 2.9021 12.7683 4.75083 13.4217ZM3.73006 14.6591C1.55537 13.6654 0.109375 11.481 0.109375 9.02155C0.109375 5.59923 2.88371 2.82489 6.30603 2.82489C7.24023 2.82489 8.14462 3.03248 8.96566 3.4232C10.0181 1.42066 12.1105 0.109375 14.4526 0.109375C16.6695 0.109375 18.672 1.28443 19.7737 3.12836C20.3876 2.92843 21.0339 2.82489 21.694 2.82489C25.1163 2.82489 27.8906 5.59923 27.8906 9.02155C27.8906 11.481 26.4446 13.6654 24.2699 14.6591V24.4034C24.2699 26.3293 22.7087 27.8906 20.7827 27.8906H7.21729C5.29135 27.8906 3.73006 26.3293 3.73006 24.4034V14.6591Z" fill="#85147D"/>
    <path d="M4.18262 23.8174V22.2861H23.8173V23.8174H4.18262Z" fill="#85147D"/>
    <path d="M8.7085 15.8103C8.7085 15.3875 9.05128 15.0447 9.47412 15.0447C9.89696 15.0447 10.2397 15.3875 10.2397 15.8103V18.5259C10.2397 18.9487 9.89696 19.2915 9.47412 19.2915C9.05128 19.2915 8.7085 18.9487 8.7085 18.5259V15.8103Z" fill="#85147D"/>
    <path d="M13.2344 16.7155C13.2344 16.2927 13.5772 15.9499 14 15.9499C14.4228 15.9499 14.7656 16.2927 14.7656 16.7155V19.431C14.7656 19.8539 14.4228 20.1967 14 20.1967C13.5772 20.1967 13.2344 19.8539 13.2344 19.431V16.7155Z" fill="#85147D"/>
  </g>
  <defs>
    <clipPath id="clip0_101_13032">
      <rect width="28" height="28" fill="white"/>
    </clipPath>
  </defs>
</svg>