<svg width="16" height="16" viewBox="0 0 16 16" fill="none" xmlns="http://www.w3.org/2000/svg">
<path fill-rule="evenodd" clip-rule="evenodd" d="M9.50008 3.66667C9.50013 3.16046 9.67742 2.67025 10.0012 2.28111C10.3249 1.89198 10.7747 1.62849 11.2725 1.53638C11.7702 1.44426 12.2845 1.52934 12.7261 1.77685C13.1677 2.02435 13.5087 2.41866 13.6899 2.89133C13.8711 3.364 13.881 3.88519 13.718 4.36444C13.5551 4.8437 13.2294 5.25076 12.7976 5.51498C12.3659 5.7792 11.8552 5.88389 11.3543 5.81089C10.8534 5.73788 10.3938 5.4918 10.0554 5.11533L8.24408 6.10333L6.21741 7.26133C6.50075 7.76004 6.57506 8.35066 6.42408 8.904L10.0554 10.8847C10.4107 10.4899 10.8986 10.2394 11.4264 10.1807C11.9542 10.122 12.4852 10.2592 12.9185 10.5663C13.3518 10.8733 13.6572 11.3288 13.7768 11.8462C13.8964 12.3636 13.8219 12.9069 13.5672 13.373C13.3126 13.839 12.8957 14.1953 12.3957 14.3742C11.8956 14.5531 11.3473 14.5421 10.8549 14.3433C10.3624 14.1445 9.96011 13.7718 9.72436 13.296C9.48861 12.8201 9.43585 12.2742 9.57608 11.762L5.94475 9.782C5.66799 10.0898 5.30886 10.3119 4.90984 10.422C4.51082 10.5321 4.08861 10.5256 3.69317 10.4033C3.29772 10.2809 2.9456 10.0479 2.67847 9.73168C2.41133 9.41548 2.24036 9.02938 2.18579 8.61906C2.13121 8.20874 2.19531 7.79138 2.37051 7.41635C2.54571 7.04132 2.82467 6.72432 3.17439 6.50287C3.5241 6.28142 3.92993 6.16478 4.34386 6.16675C4.75779 6.16873 5.16249 6.28923 5.51008 6.514L7.75675 5.23L9.57608 4.23733C9.52551 4.05133 9.49995 3.85942 9.50008 3.66667ZM11.6667 2.5C11.5135 2.5 11.3618 2.53018 11.2203 2.58881C11.0787 2.64744 10.9501 2.73337 10.8418 2.84171C10.7335 2.95004 10.6475 3.07866 10.5889 3.2202C10.5303 3.36175 10.5001 3.51346 10.5001 3.66667C10.5001 3.81988 10.5303 3.97158 10.5889 4.11313C10.6475 4.25468 10.7335 4.38329 10.8418 4.49162C10.9501 4.59996 11.0787 4.6859 11.2203 4.74453C11.3618 4.80316 11.5135 4.83333 11.6667 4.83333C11.9762 4.83333 12.2729 4.71042 12.4917 4.49162C12.7105 4.27283 12.8334 3.97609 12.8334 3.66667C12.8334 3.35725 12.7105 3.0605 12.4917 2.84171C12.2729 2.62292 11.9762 2.5 11.6667 2.5ZM4.33341 7.16667C4.02399 7.16667 3.72725 7.28958 3.50845 7.50838C3.28966 7.72717 3.16675 8.02391 3.16675 8.33333C3.16675 8.64275 3.28966 8.9395 3.50845 9.15829C3.72725 9.37708 4.02399 9.5 4.33341 9.5C4.64283 9.5 4.93958 9.37708 5.15837 9.15829C5.37716 8.9395 5.50008 8.64275 5.50008 8.33333C5.50008 8.02391 5.37716 7.72717 5.15837 7.50838C4.93958 7.28958 4.64283 7.16667 4.33341 7.16667ZM10.5001 12.3333C10.5001 12.0239 10.623 11.7272 10.8418 11.5084C11.0606 11.2896 11.3573 11.1667 11.6667 11.1667C11.9762 11.1667 12.2729 11.2896 12.4917 11.5084C12.7105 11.7272 12.8334 12.0239 12.8334 12.3333C12.8334 12.6428 12.7105 12.9395 12.4917 13.1583C12.2729 13.3771 11.9762 13.5 11.6667 13.5C11.3573 13.5 11.0606 13.3771 10.8418 13.1583C10.623 12.9395 10.5001 12.6428 10.5001 12.3333Z" fill="#1D1D1D"/>
</svg>
