<svg width="50" height="50" viewBox="0 0 50 50" fill="none" xmlns="http://www.w3.org/2000/svg">
<rect width="50" height="50" rx="25" fill="#FFFBEB"/>
<g clip-path="url(#clip0_30_4603)">
<path d="M25.6075 13.9953C23.2791 13.8247 21.0624 14.6316 19.3639 16.2718C17.69 17.8879 16.7303 20.1733 16.7303 22.5414C16.7303 24.4707 17.3422 26.2992 18.5001 27.8274C19.3451 28.9425 20.1663 30.1811 20.8808 31.4179V33.6261C20.8808 34.1035 21.2552 34.492 21.716 34.492H28.2451C28.7055 34.492 29.0798 34.1035 29.0798 33.6261V31.4904C29.8334 30.1969 30.729 28.8379 31.4938 27.8293C32.7122 26.2309 33.3389 24.2239 33.2573 22.1779C33.0874 17.8944 29.7271 14.3007 25.6075 13.9953ZM30.5972 27.0963C29.7755 28.1797 28.8117 29.6475 28.0187 31.0224L27.9381 31.1632V33.3082H22.0226V31.0935L21.9428 30.9541C21.1848 29.6276 20.3048 28.2936 19.3979 27.0972C18.3996 25.7786 17.872 24.2039 17.872 22.5423C17.872 20.5014 18.6995 18.5316 20.1421 17.1391C21.6066 15.7257 23.5194 15.0285 25.5263 15.1773C29.0749 15.4399 31.9698 18.5368 32.1169 22.2272C32.1877 24.0157 31.6628 25.6987 30.5972 27.0963ZM15.0837 25.1809C15.0183 25.1809 14.9511 25.1916 14.8896 25.2111L12.5322 26.0045C12.1955 26.1193 12.0117 26.4958 12.122 26.843C12.2049 27.1084 12.4537 27.2943 12.7267 27.2943C12.7993 27.2943 12.8643 27.285 12.9226 27.2664L15.2801 26.473C15.4451 26.4168 15.5786 26.2978 15.6557 26.1375C15.7311 25.9822 15.7427 25.8047 15.6894 25.6387C15.6051 25.365 15.3621 25.1809 15.0837 25.1809ZM15.281 18.5321L12.9284 17.7378C12.8616 17.7155 12.7935 17.7039 12.7258 17.7039C12.451 17.7039 12.2089 17.8861 12.122 18.1584C12.0148 18.5089 12.1986 18.883 12.5308 18.9923L14.8843 19.7917C14.9457 19.8117 15.0111 19.8214 15.0851 19.8214C15.3626 19.8214 15.6064 19.6351 15.6907 19.3594C15.7432 19.1972 15.7306 19.0225 15.6553 18.8672C15.5777 18.7073 15.4451 18.5884 15.281 18.5321ZM18.3606 14.151C18.4758 14.3188 18.6677 14.4187 18.8739 14.4187C19.0088 14.4187 19.1353 14.3746 19.2473 14.2886C19.3832 14.1882 19.4728 14.0371 19.5002 13.8647C19.5275 13.6895 19.4885 13.5143 19.3885 13.372L17.9343 11.2907C17.8106 11.1173 17.621 11.0174 17.4143 11.0174C17.2794 11.0174 17.1498 11.062 17.0391 11.1452C16.9024 11.2479 16.8123 11.4013 16.7863 11.5766C16.7603 11.7499 16.8015 11.9233 16.9019 12.0636L18.3606 14.151ZM25.0009 12.3555C25.3533 12.3555 25.6393 12.0585 25.6393 11.6932V9.11921C25.6393 8.75854 25.3528 8.46432 25.0009 8.46432C24.6486 8.46432 24.3622 8.75807 24.3622 9.11921V11.6932C24.3622 12.0585 24.6486 12.3555 25.0009 12.3555ZM30.7608 14.2932C30.868 14.3755 30.9948 14.4187 31.128 14.4187C31.3337 14.4187 31.5265 14.3174 31.6431 14.1482L33.1017 12.0604C33.2008 11.9214 33.2407 11.7495 33.2152 11.5766C33.1892 11.4013 33.0991 11.2475 32.9619 11.1448C32.8512 11.0616 32.7221 11.0179 32.5876 11.0179C32.3836 11.0179 32.1908 11.1183 32.0703 11.2875L30.6134 13.372C30.5138 13.5143 30.4744 13.689 30.5017 13.8642C30.5291 14.0395 30.6192 14.1882 30.7608 14.2932ZM37.4715 26.0055L35.115 25.2125C35.0513 25.1916 34.9854 25.1809 34.9195 25.1809C34.6443 25.1809 34.3937 25.3692 34.3103 25.6373C34.2005 25.9831 34.3834 26.3578 34.7191 26.4726L37.0739 27.2655C37.1358 27.285 37.2012 27.2948 37.2743 27.2948C37.5495 27.2948 37.7912 27.1149 37.8781 26.8458C37.9862 26.4958 37.8037 26.1189 37.4715 26.0055ZM34.9164 19.8214C34.9894 19.8214 35.0549 19.8121 35.1123 19.7936L37.4697 19.0002C37.8024 18.8867 37.9866 18.5121 37.8808 18.164C37.7938 17.8907 37.5495 17.7076 37.2725 17.7076C37.2066 17.7076 37.1421 17.7183 37.0797 17.7387L34.7223 18.5321C34.5573 18.5884 34.4237 18.7073 34.3466 18.8672C34.2717 19.0225 34.2596 19.2 34.313 19.365C34.3964 19.6383 34.6389 19.8214 34.9164 19.8214ZM28.4755 35.6442H21.3381C21.0229 35.6442 20.767 35.9092 20.767 36.2364C20.767 36.5631 21.0225 36.8285 21.3381 36.8285H28.476C28.7916 36.8285 29.0471 36.5636 29.0471 36.2364C29.0471 35.9092 28.7907 35.6442 28.4755 35.6442ZM28.4755 37.7163H21.3381C21.0229 37.7163 20.767 37.9812 20.767 38.3084C20.767 38.6356 21.0225 38.9006 21.3381 38.9006H28.476C28.7916 38.9006 29.0471 38.6356 29.0471 38.3084C29.0471 37.9812 28.7907 37.7163 28.4755 37.7163ZM26.9989 39.8157H22.7165C22.4014 39.8157 22.1454 40.0806 22.1454 40.4079C22.1454 40.7351 22.4009 41 22.7161 41H26.9985C27.3136 41 27.5696 40.7351 27.5696 40.4079C27.5696 40.0806 27.3141 39.8157 26.9989 39.8157Z" fill="#EEAD05"/>
</g>
<defs>
<clipPath id="clip0_30_4603">
<rect width="26" height="33" fill="white" transform="translate(12 8)"/>
</clipPath>
</defs>
</svg>
