<svg width="59" height="26" viewBox="0 0 59 26" fill="none" xmlns="http://www.w3.org/2000/svg">
<g clip-path="url(#clip0_55_9084)">
<path d="M11.996 5C10.9457 5.00026 9.90571 5.2074 8.93545 5.60958C7.96519 6.01176 7.08364 6.60111 6.34115 7.34397C5.59865 8.08684 5.00974 8.96868 4.60805 9.93915C4.20635 10.9096 3.99974 11.9497 4 13C3.99955 14.9367 4.70167 16.8078 5.97609 18.2662C7.25051 19.7245 9.01069 20.671 10.93 20.93V19.317C10.9311 19.0951 10.8624 18.8784 10.7338 18.6976C10.6051 18.5167 10.423 18.3808 10.213 18.309C9.07957 17.9274 8.098 17.1931 7.41191 16.2136C6.72582 15.234 6.37122 14.0606 6.4 12.865C6.42997 11.3921 7.04127 9.99089 8.10051 8.96706C9.15976 7.94322 10.581 7.37989 12.054 7.4C12.802 7.40802 13.5407 7.56583 14.2267 7.86411C14.9127 8.1624 15.5319 8.59511 16.0479 9.13669C16.5638 9.67827 16.966 10.3178 17.2307 11.0174C17.4954 11.717 17.6172 12.4625 17.589 13.21L17.587 13.256C17.584 13.3201 17.58 13.3841 17.575 13.448L17.57 13.509C17.5618 13.604 17.5508 13.6987 17.537 13.793L17.527 13.861C16.842 18.377 10.963 20.915 10.931 20.929C12.0611 21.0805 13.2106 20.9887 14.3024 20.6596C15.3941 20.3305 16.4029 19.7718 17.261 19.0209C18.1191 18.27 18.8067 17.3443 19.2777 16.3058C19.7487 15.2674 19.9923 14.1403 19.992 13C19.9923 10.879 19.15 8.8447 17.6505 7.34462C16.151 5.84455 14.117 5.00153 11.996 5.001V5Z" fill="#008DDD"/>
</g>
<path d="M26.7957 17.12C26.3957 17.12 26.0317 17.04 25.7037 16.88C25.3757 16.72 25.1117 16.504 24.9117 16.232C24.7117 15.96 24.6117 15.652 24.6117 15.308C24.6117 14.756 24.8357 14.316 25.2837 13.988C25.7317 13.66 26.3157 13.444 27.0357 13.34L28.8237 13.088V12.74C28.8237 12.356 28.7117 12.056 28.4877 11.84C28.2717 11.624 27.9157 11.516 27.4197 11.516C27.0597 11.516 26.7677 11.588 26.5437 11.732C26.3277 11.876 26.1757 12.06 26.0877 12.284C26.0397 12.404 25.9557 12.464 25.8357 12.464H25.2957C25.2077 12.464 25.1397 12.44 25.0917 12.392C25.0517 12.336 25.0317 12.272 25.0317 12.2C25.0317 12.08 25.0757 11.932 25.1637 11.756C25.2597 11.58 25.4037 11.408 25.5957 11.24C25.7877 11.072 26.0317 10.932 26.3277 10.82C26.6317 10.7 26.9997 10.64 27.4317 10.64C27.9117 10.64 28.3157 10.704 28.6437 10.832C28.9717 10.952 29.2277 11.116 29.4117 11.324C29.6037 11.532 29.7397 11.768 29.8197 12.032C29.9077 12.296 29.9517 12.564 29.9517 12.836V16.724C29.9517 16.804 29.9237 16.872 29.8677 16.928C29.8197 16.976 29.7557 17 29.6757 17H29.1237C29.0357 17 28.9677 16.976 28.9197 16.928C28.8717 16.872 28.8477 16.804 28.8477 16.724V16.208C28.7437 16.352 28.6037 16.496 28.4277 16.64C28.2517 16.776 28.0317 16.892 27.7677 16.988C27.5037 17.076 27.1797 17.12 26.7957 17.12ZM27.0477 16.22C27.3757 16.22 27.6757 16.152 27.9477 16.016C28.2197 15.872 28.4317 15.652 28.5837 15.356C28.7437 15.06 28.8237 14.688 28.8237 14.24V13.904L27.4317 14.108C26.8637 14.188 26.4357 14.324 26.1477 14.516C25.8597 14.7 25.7157 14.936 25.7157 15.224C25.7157 15.448 25.7797 15.636 25.9077 15.788C26.0437 15.932 26.2117 16.04 26.4117 16.112C26.6197 16.184 26.8317 16.22 27.0477 16.22ZM31.8448 17C31.7648 17 31.6968 16.976 31.6408 16.928C31.5928 16.872 31.5688 16.804 31.5688 16.724V8.756C31.5688 8.676 31.5928 8.612 31.6408 8.564C31.6968 8.508 31.7648 8.48 31.8448 8.48H32.4088C32.4968 8.48 32.5648 8.508 32.6128 8.564C32.6608 8.612 32.6848 8.676 32.6848 8.756V16.724C32.6848 16.804 32.6608 16.872 32.6128 16.928C32.5648 16.976 32.4968 17 32.4088 17H31.8448ZM36.8388 17.12C36.0148 17.12 35.3588 16.868 34.8708 16.364C34.3828 15.852 34.1148 15.156 34.0668 14.276C34.0588 14.172 34.0548 14.04 34.0548 13.88C34.0548 13.712 34.0588 13.576 34.0668 13.472C34.0988 12.904 34.2308 12.408 34.4628 11.984C34.6948 11.552 35.0108 11.22 35.4108 10.988C35.8188 10.756 36.2948 10.64 36.8388 10.64C37.4468 10.64 37.9548 10.768 38.3628 11.024C38.7788 11.28 39.0948 11.644 39.3108 12.116C39.5268 12.588 39.6348 13.14 39.6348 13.772V13.976C39.6348 14.064 39.6068 14.132 39.5508 14.18C39.5028 14.228 39.4388 14.252 39.3588 14.252H35.2068C35.2068 14.26 35.2068 14.276 35.2068 14.3C35.2068 14.324 35.2068 14.344 35.2068 14.36C35.2228 14.688 35.2948 14.996 35.4228 15.284C35.5508 15.564 35.7348 15.792 35.9748 15.968C36.2148 16.144 36.5028 16.232 36.8388 16.232C37.1268 16.232 37.3668 16.188 37.5588 16.1C37.7508 16.012 37.9068 15.916 38.0268 15.812C38.1468 15.7 38.2268 15.616 38.2668 15.56C38.3388 15.456 38.3948 15.396 38.4348 15.38C38.4748 15.356 38.5388 15.344 38.6268 15.344H39.2028C39.2828 15.344 39.3468 15.368 39.3948 15.416C39.4508 15.456 39.4748 15.516 39.4668 15.596C39.4588 15.716 39.3948 15.864 39.2748 16.04C39.1548 16.208 38.9828 16.376 38.7588 16.544C38.5348 16.712 38.2628 16.852 37.9428 16.964C37.6228 17.068 37.2548 17.12 36.8388 17.12ZM35.2068 13.424H38.4948V13.388C38.4948 13.028 38.4268 12.708 38.2908 12.428C38.1628 12.148 37.9748 11.928 37.7268 11.768C37.4788 11.6 37.1828 11.516 36.8388 11.516C36.4948 11.516 36.1988 11.6 35.9508 11.768C35.7108 11.928 35.5268 12.148 35.3988 12.428C35.2708 12.708 35.2068 13.028 35.2068 13.388V13.424ZM40.5327 17C40.4687 17 40.4087 16.976 40.3527 16.928C40.3047 16.88 40.2807 16.82 40.2807 16.748C40.2807 16.724 40.2847 16.696 40.2927 16.664C40.3087 16.624 40.3327 16.58 40.3647 16.532L42.4527 13.808L40.4967 11.228C40.4647 11.18 40.4407 11.14 40.4247 11.108C40.4167 11.076 40.4127 11.044 40.4127 11.012C40.4127 10.94 40.4367 10.88 40.4847 10.832C40.5327 10.784 40.5927 10.76 40.6647 10.76H41.2767C41.3647 10.76 41.4287 10.784 41.4687 10.832C41.5167 10.872 41.5567 10.912 41.5887 10.952L43.1847 13.028L44.7807 10.964C44.8127 10.924 44.8487 10.88 44.8887 10.832C44.9367 10.784 45.0047 10.76 45.0927 10.76H45.6807C45.7527 10.76 45.8127 10.784 45.8607 10.832C45.9087 10.88 45.9327 10.94 45.9327 11.012C45.9327 11.044 45.9247 11.076 45.9087 11.108C45.9007 11.14 45.8807 11.18 45.8487 11.228L43.8687 13.832L45.9567 16.532C45.9887 16.58 46.0087 16.62 46.0167 16.652C46.0327 16.684 46.0407 16.716 46.0407 16.748C46.0407 16.82 46.0167 16.88 45.9687 16.928C45.9207 16.976 45.8607 17 45.7887 17H45.1527C45.0727 17 45.0087 16.98 44.9607 16.94C44.9127 16.9 44.8727 16.86 44.8407 16.82L43.1487 14.624L41.4567 16.82C41.4247 16.852 41.3847 16.892 41.3367 16.94C41.2967 16.98 41.2327 17 41.1447 17H40.5327ZM48.8392 17.12C48.4392 17.12 48.0752 17.04 47.7472 16.88C47.4192 16.72 47.1552 16.504 46.9552 16.232C46.7552 15.96 46.6552 15.652 46.6552 15.308C46.6552 14.756 46.8792 14.316 47.3272 13.988C47.7752 13.66 48.3592 13.444 49.0792 13.34L50.8672 13.088V12.74C50.8672 12.356 50.7552 12.056 50.5312 11.84C50.3152 11.624 49.9592 11.516 49.4632 11.516C49.1032 11.516 48.8112 11.588 48.5872 11.732C48.3712 11.876 48.2192 12.06 48.1312 12.284C48.0832 12.404 47.9992 12.464 47.8792 12.464H47.3392C47.2512 12.464 47.1832 12.44 47.1352 12.392C47.0952 12.336 47.0752 12.272 47.0752 12.2C47.0752 12.08 47.1192 11.932 47.2072 11.756C47.3032 11.58 47.4472 11.408 47.6392 11.24C47.8312 11.072 48.0752 10.932 48.3712 10.82C48.6752 10.7 49.0432 10.64 49.4752 10.64C49.9552 10.64 50.3592 10.704 50.6872 10.832C51.0152 10.952 51.2712 11.116 51.4552 11.324C51.6472 11.532 51.7832 11.768 51.8632 12.032C51.9512 12.296 51.9952 12.564 51.9952 12.836V16.724C51.9952 16.804 51.9672 16.872 51.9112 16.928C51.8632 16.976 51.7992 17 51.7192 17H51.1672C51.0792 17 51.0112 16.976 50.9632 16.928C50.9152 16.872 50.8912 16.804 50.8912 16.724V16.208C50.7872 16.352 50.6472 16.496 50.4712 16.64C50.2952 16.776 50.0752 16.892 49.8112 16.988C49.5472 17.076 49.2232 17.12 48.8392 17.12ZM49.0912 16.22C49.4192 16.22 49.7192 16.152 49.9912 16.016C50.2632 15.872 50.4752 15.652 50.6272 15.356C50.7872 15.06 50.8672 14.688 50.8672 14.24V13.904L49.4752 14.108C48.9072 14.188 48.4792 14.324 48.1912 14.516C47.9032 14.7 47.7592 14.936 47.7592 15.224C47.7592 15.448 47.8232 15.636 47.9512 15.788C48.0872 15.932 48.2552 16.04 48.4552 16.112C48.6632 16.184 48.8752 16.22 49.0912 16.22Z" fill="#008DDD"/>
<rect x="0.5" y="0.5" width="58" height="25" rx="12.5" stroke="#008DDD"/>
<defs>
<clipPath id="clip0_55_9084">
<rect width="16" height="16" fill="white" transform="translate(4 5)"/>
</clipPath>
</defs>
</svg>
