<svg width="32" height="32" viewBox="0 0 32 32" fill="none" xmlns="http://www.w3.org/2000/svg">
<path d="M4.79518 5.59355C4.79518 5.38138 4.87946 5.17789 5.02949 5.02786C5.17952 4.87783 5.38301 4.79355 5.59518 4.79355H6.29598C7.45918 4.79355 8.12798 5.55035 8.51518 6.30555C8.77918 6.82235 8.96958 7.45275 9.12798 7.99995H25.6C25.8472 8.00002 26.0911 8.05739 26.3124 8.16754C26.5337 8.27769 26.7265 8.43763 26.8756 8.63482C27.0248 8.832 27.1262 9.06107 27.1719 9.30403C27.2176 9.54699 27.2064 9.79724 27.1392 10.0351L24.7456 18.4751C24.5552 19.1448 24.1516 19.734 23.5961 20.1536C23.0405 20.5731 22.3633 20.8 21.6672 20.7999H13.5408C12.8388 20.8002 12.1563 20.5696 11.5982 20.1437C11.0402 19.7178 10.6377 19.1203 10.4528 18.4431L9.42558 14.6751C9.41969 14.6583 9.41435 14.6412 9.40958 14.6239L7.75998 9.02875L7.59998 8.48955C7.43998 7.93595 7.29918 7.44635 7.08798 7.03515C6.83358 6.53915 6.59998 6.39515 6.29438 6.39515H5.59358C5.38141 6.39515 5.17792 6.31086 5.02789 6.16083C4.87786 6.0108 4.79358 5.80732 4.79358 5.59515L4.79518 5.59355ZM10.952 14.1919L11.9968 18.0255C12.0894 18.364 12.2907 18.6626 12.5697 18.8754C12.8487 19.0881 13.1899 19.2033 13.5408 19.2031H21.6688C22.0167 19.2028 22.355 19.0891 22.6325 18.8792C22.9099 18.6693 23.1114 18.3746 23.2064 18.0399L25.6 9.59995H9.59998L10.952 14.1919ZM16 24.7983C16 25.4349 15.7471 26.0453 15.297 26.4954C14.8469 26.9455 14.2365 27.1983 13.6 27.1983C12.9635 27.1983 12.353 26.9455 11.9029 26.4954C11.4528 26.0453 11.2 25.4349 11.2 24.7983C11.2 24.1618 11.4528 23.5514 11.9029 23.1013C12.353 22.6512 12.9635 22.3983 13.6 22.3983C14.2365 22.3983 14.8469 22.6512 15.297 23.1013C15.7471 23.5514 16 24.1618 16 24.7983ZM14.4 24.7983C14.4 24.5862 14.3157 24.3827 14.1657 24.2327C14.0156 24.0826 13.8122 23.9983 13.6 23.9983C13.3878 23.9983 13.1843 24.0826 13.0343 24.2327C12.8843 24.3827 12.8 24.5862 12.8 24.7983C12.8 25.0105 12.8843 25.214 13.0343 25.364C13.1843 25.5141 13.3878 25.5983 13.6 25.5983C13.8122 25.5983 14.0156 25.5141 14.1657 25.364C14.3157 25.214 14.4 25.0105 14.4 24.7983ZM24 24.7983C24 25.4349 23.7471 26.0453 23.297 26.4954C22.8469 26.9455 22.2365 27.1983 21.6 27.1983C20.9635 27.1983 20.353 26.9455 19.9029 26.4954C19.4528 26.0453 19.2 25.4349 19.2 24.7983C19.2 24.1618 19.4528 23.5514 19.9029 23.1013C20.353 22.6512 20.9635 22.3983 21.6 22.3983C22.2365 22.3983 22.8469 22.6512 23.297 23.1013C23.7471 23.5514 24 24.1618 24 24.7983ZM22.4 24.7983C22.4 24.5862 22.3157 24.3827 22.1657 24.2327C22.0156 24.0826 21.8122 23.9983 21.6 23.9983C21.3878 23.9983 21.1843 24.0826 21.0343 24.2327C20.8843 24.3827 20.8 24.5862 20.8 24.7983C20.8 25.0105 20.8843 25.214 21.0343 25.364C21.1843 25.5141 21.3878 25.5983 21.6 25.5983C21.8122 25.5983 22.0156 25.5141 22.1657 25.364C22.3157 25.214 22.4 25.0105 22.4 24.7983Z" fill="black"/>
</svg>
