<svg width="20" height="20" viewBox="0 0 20 20" fill="none" xmlns="http://www.w3.org/2000/svg">
<path fill-rule="evenodd" clip-rule="evenodd" d="M14.0256 15.2248C12.6521 16.3351 10.9037 17 9 17C4.58172 17 1 13.4183 1 9C1 4.58172 4.58172 1 9 1C13.4183 1 17 4.58172 17 9C17 10.9037 16.3351 12.6521 15.2248 14.0256C15.2581 14.0504 15.2901 14.0779 15.3204 14.1082L18.749 17.5368C19.0837 17.8715 19.0837 18.4142 18.749 18.749C18.4142 19.0837 17.8715 19.0837 17.5368 18.749L14.1082 15.3204C14.0779 15.2901 14.0504 15.2581 14.0256 15.2248ZM15.2857 9C15.2857 12.4715 12.4715 15.2857 9 15.2857C5.5285 15.2857 2.71429 12.4715 2.71429 9C2.71429 5.5285 5.5285 2.71429 9 2.71429C12.4715 2.71429 15.2857 5.5285 15.2857 9Z" fill="#333333"/>
</svg>
